<svg width="154" height="155" viewBox="0 0 154 155" fill="none" xmlns="http://www.w3.org/2000/svg">
<path fill-rule="evenodd" clip-rule="evenodd" d="M47.2945 89.0381V9.69714H89.0478V89.0381H47.2914H47.2945Z" fill="#FFB9EC"/>
<path fill-rule="evenodd" clip-rule="evenodd" d="M47.2944 134.648V108.953H89.0508V134.648H47.2944Z" fill="#FFB9EC"/>
<path d="M47.2945 89.0381V9.69714H89.0478V89.0381H47.2914H47.2945Z" stroke="black" stroke-width="5.37607" stroke-linejoin="round"/>
<path d="M47.2944 134.648V108.953H89.0508V134.648H47.2944Z" stroke="black" stroke-width="5.37607" stroke-linejoin="round"/>
<path d="M64.961 99.9573L47.2944 89.0349H89.0477L106.714 99.9573H64.9579H64.961Z" stroke="black" stroke-width="5.37607" stroke-linejoin="round"/>
<path d="M64.961 145.571L47.2944 134.648H89.0477L106.714 145.568L64.961 145.571Z" stroke="black" stroke-width="5.37607" stroke-linejoin="round"/>
<path d="M106.721 20.6195V99.9574L89.0571 89.0381V9.69714L106.721 20.6195Z" stroke="black" stroke-width="5.37607" stroke-linejoin="round"/>
<path d="M106.721 36.5166L89.0571 25.5942" stroke="black" stroke-width="5.37607" stroke-linejoin="round"/>
<path d="M106.721 52.9389L89.0571 42.0165" stroke="black" stroke-width="5.37607" stroke-linejoin="round"/>
<path d="M106.721 84.1002L89.0571 73.1809" stroke="black" stroke-width="5.37607" stroke-linejoin="round"/>
<path d="M106.721 68.237L89.0571 57.3177" stroke="black" stroke-width="5.37607" stroke-linejoin="round"/>
<path d="M106.721 132.725L89.0571 121.802" stroke="black" stroke-width="5.37607" stroke-linejoin="round"/>
<path d="M106.721 119.872V145.571L89.0571 134.648V108.953L106.721 119.872Z" stroke="black" stroke-width="5.37607" stroke-linejoin="round"/>
<path d="M74.9168 21.5798V77.1491" stroke="black" stroke-width="5.37607" stroke-linecap="round" stroke-linejoin="round"/>
<path d="M61.4317 21.5798V77.1491" stroke="black" stroke-width="5.37607" stroke-linecap="round" stroke-linejoin="round"/>
<path d="M61.4317 119.551V124.05" stroke="black" stroke-width="5.37607" stroke-linecap="round" stroke-linejoin="round"/>
<path d="M74.9168 119.551V124.05" stroke="black" stroke-width="5.37607" stroke-linecap="round" stroke-linejoin="round"/>
</svg>
