<svg width="154" height="155" viewBox="0 0 154 155" fill="none" xmlns="http://www.w3.org/2000/svg">
<path d="M14.9843 47.0569C18.1032 18.3999 47.9522 19.0237 62.4876 22.9177C87.405 3.45068 105.319 7.3447 112.325 19.0267C117.93 28.3681 114.66 41.6065 112.325 47.0569C141.137 59.5171 141.915 67.3051 139.58 82.0999C137.712 93.9364 120.632 99.4917 112.325 100.789C101.425 122.59 99.087 121.812 71.0538 123.372C48.6254 124.616 48.2116 101.045 50.8056 89.1067C37.5671 87.0315 11.8716 75.7138 14.9843 47.0569Z" fill="#FFB9EC"/>
<path d="M14.9843 47.0569C18.1032 18.3999 47.9522 19.0237 62.4876 22.9177C87.405 3.45068 105.319 7.3447 112.325 19.0267C117.93 28.3681 114.66 41.6065 112.325 47.0569C141.137 59.5171 141.915 67.3051 139.58 82.0999C137.712 93.9364 120.632 99.4917 112.325 100.789C101.425 122.59 99.087 121.812 71.0538 123.372C48.6254 124.616 48.2116 101.045 50.8056 89.1067C37.5671 87.0315 11.8716 75.7138 14.9843 47.0569Z" stroke="black" stroke-width="5.37607" stroke-linejoin="round"/>
<path d="M81.3835 47.8597C81.0912 47.8445 80.8158 47.7176 80.6142 47.5053C80.4127 47.293 80.3003 47.0114 80.3003 46.7187C80.3003 46.4259 80.4127 46.1443 80.6142 45.932C80.8158 45.7197 81.0912 45.5929 81.3835 45.5776" stroke="black" stroke-width="5.37607" stroke-linecap="round" stroke-linejoin="round"/>
<path d="M81.3773 47.8597C81.6697 47.8445 81.9451 47.7176 82.1466 47.5053C82.3482 47.293 82.4605 47.0114 82.4605 46.7187C82.4605 46.4259 82.3482 46.1443 82.1466 45.932C81.9451 45.7197 81.6697 45.5929 81.3773 45.5776" stroke="black" stroke-width="5.37607" stroke-linecap="round" stroke-linejoin="round"/>
<path d="M13.4528 68.8028L14.7436 50.4722C13.9407 76.6217 38.1046 87.1179 50.8026 89.1097C50.1219 92.3064 49.7599 95.5627 49.7218 98.8308L49.274 110.856C36.0356 108.777 10.3401 97.4597 13.4528 68.8028Z" stroke="black" stroke-width="5.37607" stroke-linejoin="round"/>
<path d="M112.322 100.789C120.629 99.4886 137.706 93.9332 139.577 82.0968L138.71 98.8247C138.542 100.504 138.322 102.177 138.049 103.843C136.177 115.679 119.101 121.235 110.794 122.532L112.322 100.786V100.789Z" stroke="black" stroke-width="5.37607" stroke-linejoin="round"/>
<path d="M71.051 123.371L74.3645 123.189C99.288 121.84 101.867 121.701 112.323 100.789L110.794 122.535C100.338 143.444 97.7625 143.586 72.8359 144.935L69.5224 145.114C47.094 146.362 46.6802 122.791 49.2741 110.853L49.7188 98.8278C49.583 110.64 53.8197 124.329 71.051 123.371Z" stroke="black" stroke-width="5.37607" stroke-linejoin="round"/>
<path d="M62.5063 55.5242C62.2033 55.5242 61.9126 55.4038 61.6984 55.1896C61.4841 54.9753 61.3637 54.6847 61.3637 54.3816C61.3637 54.0786 61.4841 53.788 61.6984 53.5737C61.9126 53.3595 62.2033 53.2391 62.5063 53.2391" stroke="black" stroke-width="5.37607" stroke-linecap="round" stroke-linejoin="round"/>
<path d="M62.5 55.5242C62.803 55.5242 63.0936 55.4038 63.3079 55.1896C63.5222 54.9753 63.6426 54.6847 63.6426 54.3816C63.6426 54.0786 63.5222 53.788 63.3079 53.5737C63.0936 53.3595 62.803 53.2391 62.5 53.2391" stroke="black" stroke-width="5.37607" stroke-linecap="round" stroke-linejoin="round"/>
<path d="M60.2026 72.0607C59.8996 72.0607 59.609 71.9403 59.3947 71.726C59.1804 71.5117 59.0601 71.2211 59.0601 70.9181C59.0601 70.6151 59.1804 70.3244 59.3947 70.1102C59.609 69.8959 59.8996 69.7755 60.2026 69.7755" stroke="black" stroke-width="5.37607" stroke-linecap="round" stroke-linejoin="round"/>
<path d="M60.1933 72.0607C60.4964 72.0607 60.787 71.9403 61.0012 71.726C61.2155 71.5117 61.3359 71.2211 61.3359 70.9181C61.3359 70.6151 61.2155 70.3244 61.0012 70.1102C60.787 69.8959 60.4964 69.7755 60.1933 69.7755" stroke="black" stroke-width="5.37607" stroke-linecap="round" stroke-linejoin="round"/>
<path d="M72.6167 84.3819C72.3243 84.3667 72.049 84.2399 71.8474 84.0275C71.6458 83.8152 71.5335 83.5336 71.5335 83.2409C71.5335 82.9481 71.6458 82.6666 71.8474 82.4542C72.049 82.2419 72.3243 82.1151 72.6167 82.0999" stroke="black" stroke-width="5.37607" stroke-linecap="round" stroke-linejoin="round"/>
<path d="M72.6071 84.3819C72.762 84.39 72.9168 84.3665 73.0623 84.3127C73.2077 84.259 73.3407 84.1763 73.4531 84.0696C73.5656 83.9628 73.6551 83.8343 73.7163 83.6918C73.7775 83.5494 73.8091 83.3959 73.8091 83.2409C73.8091 83.0859 73.7775 82.9324 73.7163 82.79C73.6551 82.6475 73.5656 82.519 73.4531 82.4123C73.3407 82.3055 73.2077 82.2228 73.0623 82.1691C72.9168 82.1154 72.762 82.0918 72.6071 82.0999" stroke="black" stroke-width="5.37607" stroke-linecap="round" stroke-linejoin="round"/>
<path d="M74.8953 62.2809C74.5923 62.2809 74.3017 62.1605 74.0874 61.9462C73.8731 61.7319 73.7527 61.4413 73.7527 61.1383C73.7527 60.8353 73.8731 60.5447 74.0874 60.3304C74.3017 60.1161 74.5923 59.9957 74.8953 59.9957" stroke="black" stroke-width="5.37607" stroke-linecap="round" stroke-linejoin="round"/>
<path d="M74.886 62.2809C75.0361 62.2809 75.1846 62.2513 75.3233 62.1939C75.4619 62.1365 75.5878 62.0523 75.6939 61.9462C75.8 61.8401 75.8842 61.7142 75.9416 61.5755C75.999 61.4369 76.0286 61.2883 76.0286 61.1383C76.0286 60.9883 75.999 60.8397 75.9416 60.7011C75.8842 60.5624 75.8 60.4365 75.6939 60.3304C75.5878 60.2243 75.4619 60.1401 75.3233 60.0827C75.1846 60.0253 75.0361 59.9957 74.886 59.9957" stroke="black" stroke-width="5.37607" stroke-linecap="round" stroke-linejoin="round"/>
<path d="M80.2625 74.4848C80.1077 74.4928 79.9528 74.4693 79.8074 74.4156C79.6619 74.3619 79.5289 74.2791 79.4165 74.1724C79.304 74.0656 79.2145 73.9371 79.1533 73.7947C79.0921 73.6522 79.0605 73.4988 79.0605 73.3437C79.0605 73.1887 79.0921 73.0353 79.1533 72.8928C79.2145 72.7504 79.304 72.6218 79.4165 72.5151C79.5289 72.4083 79.6619 72.3256 79.8074 72.2719C79.9528 72.2182 80.1077 72.1947 80.2625 72.2027" stroke="black" stroke-width="5.37607" stroke-linecap="round" stroke-linejoin="round"/>
<path d="M80.2565 74.4848C80.5488 74.4695 80.8242 74.3427 81.0257 74.1304C81.2273 73.9181 81.3397 73.6365 81.3397 73.3437C81.3397 73.051 81.2273 72.7694 81.0257 72.5571C80.8242 72.3448 80.5488 72.2179 80.2565 72.2027" stroke="black" stroke-width="5.37607" stroke-linecap="round" stroke-linejoin="round"/>
<path d="M90.564 81.7973C90.2716 81.782 89.9963 81.6552 89.7947 81.4429C89.5932 81.2306 89.4808 80.949 89.4808 80.6562C89.4808 80.3635 89.5932 80.0819 89.7947 79.8696C89.9963 79.6573 90.2716 79.5304 90.564 79.5152" stroke="black" stroke-width="5.37607" stroke-linecap="round" stroke-linejoin="round"/>
<path d="M90.5548 81.7973C90.7096 81.8053 90.8645 81.7818 91.0099 81.7281C91.1554 81.6744 91.2884 81.5916 91.4008 81.4849C91.5133 81.3781 91.6028 81.2496 91.664 81.1072C91.7252 80.9647 91.7568 80.8113 91.7568 80.6562C91.7568 80.5012 91.7252 80.3478 91.664 80.2053C91.6028 80.0629 91.5133 79.9343 91.4008 79.8276C91.2884 79.7208 91.1554 79.6381 91.0099 79.5844C90.8645 79.5307 90.7096 79.5072 90.5548 79.5152" stroke="black" stroke-width="5.37607" stroke-linecap="round" stroke-linejoin="round"/>
<path d="M101.962 72.0607C101.659 72.0607 101.368 71.9403 101.154 71.726C100.94 71.5117 100.819 71.2211 100.819 70.9181C100.819 70.6151 100.94 70.3244 101.154 70.1102C101.368 69.8959 101.659 69.7755 101.962 69.7755" stroke="black" stroke-width="5.37607" stroke-linecap="round" stroke-linejoin="round"/>
<path d="M101.956 72.0607C102.259 72.0607 102.55 71.9403 102.764 71.726C102.978 71.5117 103.099 71.2211 103.099 70.9181C103.099 70.6151 102.978 70.3244 102.764 70.1102C102.55 69.8959 102.259 69.7755 101.956 69.7755" stroke="black" stroke-width="5.37607" stroke-linecap="round" stroke-linejoin="round"/>
<path d="M88.2729 64.5598C87.9698 64.5598 87.6792 64.4394 87.4649 64.2252C87.2507 64.0109 87.1303 63.7203 87.1303 63.4172C87.1303 63.1142 87.2507 62.8236 87.4649 62.6093C87.6792 62.395 87.9698 62.2747 88.2729 62.2747" stroke="black" stroke-width="5.37607" stroke-linecap="round" stroke-linejoin="round"/>
<path d="M88.2635 64.5598C88.5666 64.5598 88.8572 64.4394 89.0715 64.2252C89.2857 64.0109 89.4061 63.7203 89.4061 63.4172C89.4061 63.1142 89.2857 62.8236 89.0715 62.6093C88.8572 62.395 88.5666 62.2747 88.2635 62.2747" stroke="black" stroke-width="5.37607" stroke-linecap="round" stroke-linejoin="round"/>
<path d="M96.7494 55.5242C96.4464 55.5242 96.1558 55.4038 95.9415 55.1896C95.7272 54.9753 95.6069 54.6847 95.6069 54.3816C95.6069 54.0786 95.7272 53.788 95.9415 53.5737C96.1558 53.3595 96.4464 53.2391 96.7494 53.2391" stroke="black" stroke-width="5.37607" stroke-linecap="round" stroke-linejoin="round"/>
<path d="M96.7432 55.5242C97.0462 55.5242 97.3368 55.4038 97.5511 55.1896C97.7654 54.9753 97.8857 54.6847 97.8857 54.3816C97.8857 54.0786 97.7654 53.788 97.5511 53.5737C97.3368 53.3595 97.0462 53.2391 96.7432 53.2391" stroke="black" stroke-width="5.37607" stroke-linecap="round" stroke-linejoin="round"/>
</svg>
