<svg width="154" height="154" viewBox="0 0 154 154" fill="none" xmlns="http://www.w3.org/2000/svg">
<path d="M119.706 44.6699C120.417 43.7659 120.942 42.7309 121.252 41.6239C121.563 40.5169 121.652 39.3596 121.516 38.2181C121.379 37.0765 121.019 35.9731 120.455 34.9708C119.892 33.9684 119.137 33.0869 118.233 32.3764C117.329 31.6659 116.294 31.1404 115.187 30.8299C114.08 30.5194 112.923 30.43 111.781 30.5668C110.64 30.7036 109.536 31.0639 108.534 31.6271C107.532 32.1903 106.65 32.9455 105.94 33.8494L111.498 26.7778C112.901 24.9496 113.527 22.6418 113.24 20.3551C112.952 18.0684 111.775 15.9873 109.963 14.5634C108.15 13.1394 105.85 12.4875 103.56 12.749C101.27 13.0106 99.176 14.1645 97.7316 15.9604L92.1731 23.0289C92.9023 22.1271 93.4451 21.0893 93.7698 19.976C94.0946 18.8626 94.1949 17.6958 94.065 16.5434C93.935 15.3909 93.5774 14.2758 93.0128 13.2627C92.4483 12.2496 91.688 11.3588 90.7763 10.642C89.8645 9.92524 88.8195 9.39675 87.7018 9.08725C86.5841 8.77776 85.416 8.69343 84.2654 8.83917C83.1149 8.9849 82.0047 9.3578 80.9995 9.93619C79.9942 10.5146 79.1139 11.2869 78.4097 12.2084L50.2005 47.6653L50.0708 27.4386C50.0557 25.0212 49.1118 22.702 47.4346 20.961C45.7574 19.22 43.4751 18.1903 41.0599 18.085C38.8172 17.9782 36.6117 18.6867 34.8509 20.0797C33.0901 21.4727 31.893 23.456 31.4808 25.663C29.1215 38.4413 22.859 62.2346 22.1951 77.8663C21.738 88.5787 23.0783 104.414 35.9121 115.284C60.1471 135.81 82.9862 121.522 99.1366 100.128L126.704 64.2542C127.413 63.3416 127.935 62.2982 128.241 61.1836C128.547 60.069 128.631 58.905 128.487 57.7582C128.343 56.6113 127.975 55.504 127.403 54.4995C126.832 53.4949 126.068 52.6129 125.155 51.9036C124.242 51.1943 123.199 50.6718 122.084 50.3657C120.97 50.0597 119.806 49.9762 118.659 50.12C117.512 50.2638 116.405 50.6321 115.4 51.2039C114.396 51.7756 113.514 52.5396 112.804 53.4522L119.706 44.673V44.6699Z" fill="#FFB9AA"/>
<path d="M119.706 44.6699C120.417 43.7659 120.942 42.7309 121.252 41.6239C121.563 40.5169 121.652 39.3596 121.516 38.2181C121.379 37.0765 121.019 35.9731 120.455 34.9708C119.892 33.9684 119.137 33.0869 118.233 32.3764C117.329 31.6659 116.294 31.1404 115.187 30.8299C114.08 30.5194 112.923 30.43 111.781 30.5668C110.64 30.7036 109.536 31.0639 108.534 31.6271C107.532 32.1903 106.65 32.9455 105.94 33.8494L111.498 26.7778C112.901 24.9496 113.527 22.6418 113.24 20.3551C112.952 18.0684 111.775 15.9873 109.963 14.5634C108.15 13.1394 105.85 12.4875 103.56 12.749C101.27 13.0106 99.176 14.1645 97.7316 15.9604L92.1731 23.0289C92.9023 22.1271 93.4451 21.0893 93.7698 19.976C94.0946 18.8626 94.1949 17.6958 94.065 16.5434C93.935 15.3909 93.5774 14.2758 93.0128 13.2627C92.4483 12.2496 91.688 11.3588 90.7763 10.642C89.8645 9.92524 88.8195 9.39675 87.7018 9.08725C86.5841 8.77776 85.416 8.69343 84.2654 8.83917C83.1149 8.9849 82.0047 9.3578 80.9995 9.93619C79.9942 10.5146 79.1139 11.2869 78.4097 12.2084L50.2005 47.6653L50.0708 27.4386C50.0557 25.0212 49.1118 22.702 47.4346 20.961C45.7574 19.22 43.4751 18.1903 41.0599 18.085C38.8172 17.9782 36.6117 18.6867 34.8509 20.0797C33.0901 21.4727 31.893 23.456 31.4808 25.663C29.1215 38.4413 22.859 62.2346 22.1951 77.8663C21.738 88.5787 23.0783 104.414 35.9121 115.284C60.1471 135.81 82.9862 121.522 99.1366 100.128L126.704 64.2542C127.413 63.3416 127.935 62.2982 128.241 61.1836C128.547 60.069 128.631 58.905 128.487 57.7582C128.343 56.6113 127.975 55.504 127.403 54.4995C126.832 53.4949 126.068 52.6129 125.155 51.9036C124.242 51.1943 123.199 50.6718 122.084 50.3657C120.97 50.0597 119.806 49.9762 118.659 50.12C117.512 50.2638 116.405 50.6321 115.4 51.2039C114.396 51.7756 113.514 52.5396 112.804 53.4522L119.706 44.673V44.6699Z" stroke="black" stroke-width="5.37607" stroke-linecap="round" stroke-linejoin="round"/>
<path d="M128.501 58.0997C128.702 60.3023 128.063 62.4995 126.713 64.2511L99.1459 100.125C82.9954 121.516 60.1563 135.807 35.9214 115.281C28.6305 109.105 25.0515 101.323 23.3994 93.7882L26.6017 114.376C28.3526 121.568 31.9317 128.902 38.8736 134.785C63.1085 155.311 85.9507 141.023 102.098 119.629L129.665 83.7551C131.178 81.7881 131.731 79.3856 131.394 77.1097L128.501 58.0997Z" stroke="black" stroke-width="5.37607" stroke-linecap="round" stroke-linejoin="round"/>
<path d="M116.776 77.156L119.749 96.6878" stroke="black" stroke-width="5.37607" stroke-linecap="round" stroke-linejoin="round"/>
<path d="M104.47 93.2292L107.428 112.638" stroke="black" stroke-width="5.37607" stroke-linecap="round" stroke-linejoin="round"/>
<path d="M90.9255 109.648L93.8993 129.174" stroke="black" stroke-width="5.37607" stroke-linecap="round" stroke-linejoin="round"/>
<path d="M75.958 121.068L78.9287 140.597" stroke="black" stroke-width="5.37607" stroke-linecap="round" stroke-linejoin="round"/>
<path d="M57.9578 125.166L60.9377 144.738" stroke="black" stroke-width="5.37607" stroke-linecap="round" stroke-linejoin="round"/>
<path d="M40.0935 118.681L42.8419 137.814" stroke="black" stroke-width="5.37607" stroke-linecap="round" stroke-linejoin="round"/>
<path d="M92.1792 23.0289L67.6169 54.2799" stroke="black" stroke-width="5.37607" stroke-linecap="round" stroke-linejoin="round"/>
<path d="M84.7434 60.8235L105.946 33.8525" stroke="black" stroke-width="5.37607" stroke-linecap="round" stroke-linejoin="round"/>
<path d="M119.709 44.6699L95.1438 75.9209" stroke="black" stroke-width="5.37607" stroke-linecap="round" stroke-linejoin="round"/>
<path d="M25.5396 54.9871C28.1362 59.092 31.9388 62.2935 36.4262 64.1527C40.9136 66.0119 45.8662 66.4379 50.6051 65.3721C56.6916 64.0051 63.0718 65.1094 68.3446 68.4427C73.6175 71.7759 77.3519 77.0655 78.7279 83.15C79.7652 87.7371 82.1518 91.9088 85.5805 95.1278C89.0092 98.3468 93.323 100.466 97.9664 101.212" stroke="black" stroke-width="5.37607" stroke-linecap="round" stroke-linejoin="round"/>
<path d="M84.1751 115.766C80.1456 114.661 76.4923 112.481 73.6066 109.459C70.7209 106.438 68.7113 102.688 67.7931 98.6117C66.4475 92.6509 62.7893 87.4686 57.6231 84.2047C52.4569 80.9409 46.2058 79.8628 40.2447 81.2076C37.1588 81.9084 33.9613 81.9643 30.8528 81.3718C27.7442 80.7793 24.7915 79.5512 22.1797 77.7644" stroke="black" stroke-width="5.37607" stroke-linecap="round" stroke-linejoin="round"/>
<path d="M62.2655 125.082C59.6912 122.179 57.8956 118.669 57.0467 114.883C55.7011 108.922 52.0434 103.741 46.8779 100.477C41.7123 97.213 35.462 96.1345 29.5014 97.4784C27.8648 97.849 26.2281 98.0342 24.6223 98.0497" stroke="black" stroke-width="5.37607" stroke-linecap="round" stroke-linejoin="round"/>
</svg>
