<svg width="155" height="155" viewBox="0 0 155 155" fill="none" xmlns="http://www.w3.org/2000/svg">
<path fill-rule="evenodd" clip-rule="evenodd" d="M128.522 60.0357L28.7659 33.3057L9.46567 105.328L25.2641 109.559L40.6487 94.245L87.7536 106.869L93.4232 127.824L109.225 132.055L128.525 60.0357H128.522Z" fill="#FFB9EC"/>
<path d="M25.2455 109.574L40.6455 94.248L87.7536 106.869L93.4263 127.843L25.2455 109.574Z" fill="#94E986"/>
<path d="M37.224 65.3564C36.7554 67.0374 36.6246 68.7946 36.8393 70.5265C37.054 72.2584 37.6098 73.9306 38.4747 75.4463C39.3395 76.9621 40.4963 78.2914 41.8781 79.3573C43.2598 80.4232 44.8392 81.2047 46.5248 81.6565C48.2105 82.1084 49.969 82.2216 51.6986 81.9896C53.4283 81.7576 55.0948 81.1851 56.6018 80.3051C58.1088 79.4251 59.4265 78.2551 60.4786 76.8628C61.5306 75.4704 62.2963 73.8833 62.7312 72.1933C63.1999 70.5122 63.3306 68.755 63.116 67.0231C62.9013 65.2912 62.3455 63.619 61.4806 62.1033C60.6157 60.5875 59.459 59.2583 58.0772 58.1923C56.6954 57.1264 55.1161 56.3449 53.4304 55.8931C51.7448 55.4413 49.9863 55.3281 48.2567 55.56C46.527 55.792 44.8605 56.3645 43.3535 57.2445C41.8464 58.1245 40.5288 59.2945 39.4767 60.6868C38.4246 62.0792 37.659 63.6663 37.224 65.3564Z" fill="#89DCFF"/>
<path d="M79.6723 76.7388C79.2037 78.4198 79.0729 80.1771 79.2875 81.909C79.5022 83.6409 80.058 85.313 80.9229 86.8288C81.7878 88.3445 82.9446 89.6738 84.3263 90.7397C85.7081 91.8057 87.2875 92.5872 88.9731 93.039C90.6587 93.4908 92.4172 93.604 94.1469 93.372C95.8765 93.1401 97.543 92.5675 99.0501 91.6876C100.557 90.8076 101.875 89.6376 102.927 88.2452C103.979 86.8529 104.745 85.2658 105.179 83.5757C105.648 81.8947 105.779 80.1374 105.564 78.4055C105.35 76.6736 104.794 75.0015 103.929 73.4857C103.064 71.97 101.907 70.6407 100.525 69.5748C99.1437 68.5088 97.5643 67.7274 95.8787 67.2755C94.1931 66.8237 92.4346 66.7105 90.7049 66.9425C88.9753 67.1744 87.3087 67.747 85.8017 68.627C84.2947 69.507 82.977 70.6769 81.925 72.0693C80.8729 73.4616 80.1072 75.0487 79.6723 76.7388Z" fill="#89DCFF"/>
<path d="M47.7698 81.8032C50.9946 82.3536 54.309 81.6873 57.0706 79.9334C59.8322 78.1794 61.8444 75.4628 62.7172 72.3099C63.59 69.157 63.2613 65.7923 61.7948 62.8679C60.3283 59.9435 57.8284 57.6677 54.7796 56.4813L94.4115 67.1042C91.1998 66.6157 87.9207 67.3284 85.2014 69.1059C82.4822 70.8835 80.5136 73.601 79.6723 76.7388C77.7824 83.7858 82.1767 91.2217 89.2576 92.9757L47.7698 81.8032Z" fill="#94E986"/>
<path d="M28.7662 33.3025L128.525 60.0356L109.225 132.058L9.46906 105.328L28.7662 33.3025Z" stroke="black" stroke-width="5.37607" stroke-linejoin="round"/>
<path d="M45.5773 22.8031L145.339 49.527L128.525 60.0356L28.766 33.3086L45.5804 22.8L45.5773 22.8031Z" stroke="black" stroke-width="5.37607" stroke-linejoin="round"/>
<path d="M89.2545 92.9726L47.7544 81.8557" stroke="black" stroke-width="5.37607" stroke-linecap="round" stroke-linejoin="round"/>
<path d="M25.2455 109.574L40.6455 94.248L87.7536 106.869L93.4263 127.843L25.2455 109.574Z" stroke="black" stroke-width="5.37607" stroke-linecap="round" stroke-linejoin="round"/>
<path d="M37.224 65.3564C36.7554 67.0374 36.6246 68.7946 36.8393 70.5265C37.054 72.2584 37.6098 73.9306 38.4747 75.4463C39.3395 76.9621 40.4963 78.2914 41.8781 79.3573C43.2598 80.4232 44.8392 81.2047 46.5248 81.6565C48.2105 82.1084 49.969 82.2216 51.6986 81.9896C53.4283 81.7576 55.0948 81.1851 56.6018 80.3051C58.1088 79.4251 59.4265 78.2551 60.4786 76.8628C61.5306 75.4704 62.2963 73.8833 62.7312 72.1933C63.1999 70.5122 63.3306 68.755 63.116 67.0231C62.9013 65.2912 62.3455 63.619 61.4806 62.1033C60.6157 60.5875 59.459 59.2583 58.0772 58.1923C56.6954 57.1264 55.1161 56.3449 53.4304 55.8931C51.7448 55.4413 49.9863 55.3281 48.2567 55.56C46.527 55.792 44.8605 56.3645 43.3535 57.2445C41.8464 58.1245 40.5288 59.2945 39.4767 60.6868C38.4246 62.0792 37.659 63.6663 37.224 65.3564Z" stroke="black" stroke-width="5.37607" stroke-linejoin="round"/>
<path d="M79.6723 76.7388C79.2037 78.4198 79.0729 80.1771 79.2875 81.909C79.5022 83.6409 80.058 85.313 80.9229 86.8288C81.7878 88.3445 82.9446 89.6738 84.3263 90.7397C85.7081 91.8057 87.2875 92.5872 88.9731 93.039C90.6587 93.4908 92.4172 93.604 94.1469 93.372C95.8765 93.1401 97.543 92.5675 99.0501 91.6876C100.557 90.8076 101.875 89.6376 102.927 88.2452C103.979 86.8529 104.745 85.2658 105.179 83.5757C105.648 81.8947 105.779 80.1374 105.564 78.4055C105.35 76.6736 104.794 75.0015 103.929 73.4857C103.064 71.97 101.907 70.6407 100.525 69.5748C99.1437 68.5088 97.5643 67.7274 95.8787 67.2755C94.1931 66.8237 92.4346 66.7105 90.7049 66.9425C88.9753 67.1744 87.3087 67.747 85.8017 68.627C84.2947 69.507 82.977 70.6769 81.925 72.0693C80.8729 73.4616 80.1072 75.0487 79.6723 76.7388Z" stroke="black" stroke-width="5.37607" stroke-linejoin="round"/>
<path d="M145.339 49.5239L126.039 121.546L109.225 132.055L128.525 60.0325L145.336 49.5239H145.339Z" stroke="black" stroke-width="5.37607" stroke-linejoin="round"/>
<path d="M96.0699 67.5458L54.5697 56.4258" stroke="black" stroke-width="5.37607" stroke-linecap="round" stroke-linejoin="round"/>
<path d="M68.9012 29.041L52.0868 39.5496" stroke="black" stroke-width="5.37607" stroke-linejoin="round"/>
<path d="M92.8336 35.4611L76.0192 45.9666" stroke="black" stroke-width="5.37607" stroke-linejoin="round"/>
<path d="M118.208 42.264L101.394 52.7695" stroke="black" stroke-width="5.37607" stroke-linejoin="round"/>
<path d="M139.414 71.6591L122.599 82.1677" stroke="black" stroke-width="5.37607" stroke-linejoin="round"/>
<path d="M132.592 97.0829L115.778 107.588" stroke="black" stroke-width="5.37607" stroke-linejoin="round"/>
<path d="M53.6217 56.1694L52.2012 61.4747" stroke="black" stroke-width="5.37607" stroke-linecap="round" stroke-linejoin="round"/>
<path d="M48.2205 76.2972L46.8 81.6025" stroke="black" stroke-width="5.37607" stroke-linecap="round" stroke-linejoin="round"/>
<path d="M62.6572 72.1809L57.3489 70.7604" stroke="black" stroke-width="5.37607" stroke-linecap="round" stroke-linejoin="round"/>
<path d="M42.5295 66.7861L37.2243 65.3656" stroke="black" stroke-width="5.37607" stroke-linecap="round" stroke-linejoin="round"/>
<path d="M96.07 67.5458L94.6495 72.851" stroke="black" stroke-width="5.37607" stroke-linecap="round" stroke-linejoin="round"/>
<path d="M90.6718 87.6643L89.2513 92.9726" stroke="black" stroke-width="5.37607" stroke-linecap="round" stroke-linejoin="round"/>
<path d="M105.099 83.5572L99.7942 82.1367" stroke="black" stroke-width="5.37607" stroke-linecap="round" stroke-linejoin="round"/>
<path d="M84.9774 78.1532L79.6721 76.7327" stroke="black" stroke-width="5.37607" stroke-linecap="round" stroke-linejoin="round"/>
</svg>
