<svg width="615" height="842" viewBox="0 0 615 842" fill="none" xmlns="http://www.w3.org/2000/svg">
<path d="M268.006 217.738H227.146V95.4824H268.006V217.738Z" fill="#89DCFF"/>
<path d="M268.006 217.738H227.146V95.4824H268.006V217.738Z" stroke="black" stroke-width="5.37607" stroke-linejoin="round"/>
<path d="M247.579 81.8641H288.44L268.01 95.4824H227.149L247.579 81.8641Z" stroke="black" stroke-width="5.37607" stroke-linejoin="round"/>
<path d="M288.434 81.8641V204.12L268.007 217.738V95.4824L288.434 81.8641Z" stroke="black" stroke-width="5.37607" stroke-linejoin="round"/>
<path d="M247.74 95.4824L268.003 81.8641" stroke="black" stroke-width="5.37607" stroke-linecap="round" stroke-linejoin="round"/>
<path d="M268.007 118.507L288.357 105.213" stroke="black" stroke-width="5.37607" stroke-linecap="round" stroke-linejoin="round"/>
<path d="M268.007 143.798L288.357 130.504" stroke="black" stroke-width="5.37607" stroke-linecap="round" stroke-linejoin="round"/>
<path d="M268.007 169.098L288.357 155.801" stroke="black" stroke-width="5.37607" stroke-linecap="round" stroke-linejoin="round"/>
<path d="M268.007 194.392L288.357 181.095" stroke="black" stroke-width="5.37607" stroke-linecap="round" stroke-linejoin="round"/>
<path d="M247.595 206.065V107.482" stroke="black" stroke-width="5.37607" stroke-linecap="round" stroke-linejoin="round"/>
<path d="M380.72 479.12C380.219 479.015 379.711 478.948 379.2 478.92C379.085 478.913 378.971 478.947 378.879 479.017C378.788 479.087 378.724 479.187 378.7 479.3C378.06 481.78 380.7 481.86 381.12 479.68C381.138 479.553 381.106 479.424 381.032 479.32C380.957 479.216 380.846 479.144 380.72 479.12ZM382.22 471.46C381.36 471.319 380.477 471.433 379.68 471.789C378.884 472.144 378.21 472.725 377.74 473.46C377.617 473.641 377.565 473.861 377.593 474.078C377.62 474.296 377.726 474.495 377.891 474.64C378.055 474.785 378.266 474.864 378.485 474.864C378.704 474.864 378.916 474.785 379.08 474.64C379.858 474.017 380.848 473.723 381.84 473.82C383.92 474.12 383.86 471.72 382.22 471.46ZM385.44 487C385.709 486.964 385.955 486.831 386.134 486.627C386.312 486.423 386.411 486.161 386.411 485.89C386.411 485.619 386.312 485.357 386.134 485.153C385.955 484.949 385.709 484.816 385.44 484.78H384.5C384.607 482.613 384.894 480.459 385.36 478.34C385.415 478.107 385.377 477.861 385.253 477.656C385.13 477.451 384.932 477.301 384.7 477.24C384.478 477.183 384.242 477.214 384.041 477.325C383.84 477.437 383.69 477.621 383.62 477.84C382.742 480.092 382.275 482.483 382.24 484.9C382.24 485.68 382.24 487.02 383.9 487.06C384.414 487.077 384.929 487.057 385.44 487ZM394.72 475.4C393.841 474.648 392.783 474.136 391.648 473.912C390.513 473.688 389.339 473.759 388.24 474.12C387.984 474.308 387.811 474.589 387.758 474.903C387.706 475.217 387.778 475.539 387.96 475.8C388.84 477.04 391.36 475.6 393.96 477.36C394.175 477.478 394.422 477.522 394.664 477.486C394.906 477.449 395.129 477.335 395.3 477.16C395.58 476.72 395.42 476.14 394.72 475.4ZM390.56 488.54C389.73 489.214 388.764 489.699 387.728 489.961C386.691 490.224 385.611 490.258 384.56 490.06C384.319 490.015 384.069 490.068 383.867 490.206C383.664 490.345 383.525 490.559 383.48 490.8C383.435 491.041 383.488 491.291 383.626 491.493C383.765 491.696 383.979 491.835 384.22 491.88C385.629 492.186 387.088 492.18 388.494 491.862C389.9 491.544 391.22 490.922 392.36 490.04C393.8 488.62 392.2 486.8 390.56 488.54ZM392.14 480.3C392.155 480.233 392.156 480.164 392.144 480.096C392.132 480.029 392.106 479.964 392.069 479.907C392.032 479.849 391.984 479.799 391.927 479.761C391.871 479.722 391.807 479.694 391.74 479.68C391.2 479.577 390.649 479.543 390.1 479.58C390 479.581 389.902 479.615 389.823 479.676C389.743 479.737 389.686 479.823 389.66 479.92C389 482 391.26 483.7 392.14 480.3Z" fill="black"/>
<path fill-rule="evenodd" clip-rule="evenodd" d="M387.9 507C385.42 507 385.14 508.06 385.34 511C385.62 515 385.6 515.2 388.9 515.2C392.2 515.2 392.48 515.2 392.52 510.96C392.56 506.72 391.68 507 387.9 507ZM373.9 611.32C373.9 611.437 373.946 611.549 374.029 611.631C374.111 611.714 374.223 611.76 374.34 611.76C374.457 611.76 374.569 611.714 374.651 611.631C374.734 611.549 374.78 611.437 374.78 611.32C372.436 579.231 377.224 547.02 388.8 517C389.1 516.22 387.9 515.64 387.62 516.44C378.351 539.913 373.398 564.867 373 590.1C373 597.18 373.32 604.26 373.9 611.32ZM267.74 599.26C264.08 599.78 260.42 599.96 256.74 600.16C254.947 595.616 252.696 591.267 250.02 587.18C248.44 585.18 247.74 590.92 244.68 601.74L232.2 604.7C231.62 604.84 230.88 606.3 231.62 606.84C233.94 608.54 238.52 611.2 241.14 612.66C239.98 615.96 237.86 621.68 237.14 624.78C236.96 625.48 238.22 626.78 238.96 626.16L251.58 616.6C255.677 619.057 259.956 621.197 264.38 623C264.557 623.08 264.752 623.11 264.944 623.087C265.137 623.064 265.319 622.989 265.472 622.869C265.625 622.749 265.741 622.59 265.81 622.409C265.878 622.227 265.896 622.031 265.86 621.84C264.612 617.77 262.985 613.826 261 610.06C263.86 607.14 266.54 604.06 269.3 601.02C270.06 600 268.64 599.14 267.74 599.26ZM259 609.96C260.5 613.4 262.12 616.76 263.28 620.32C261.68 619.62 251.5 614.08 250.88 614.5L239.6 623.34C240.8 619.58 241.98 615.82 243.18 612.08C243.56 610.82 235 606.88 233.58 606.08C235.58 605.66 244.64 604.08 245.88 603.24C246.26 602.98 249.26 592.54 249.88 590.64C250.88 592.22 255.4 601.72 256.22 601.76C259.604 601.94 262.997 601.82 266.36 601.4C265.36 602.42 258.72 609.2 259.06 610L259 609.96ZM251.4 558.84C252.58 559.5 252.88 557.7 252.76 557L250.18 545.64L259.1 539.98C260.16 539.3 261.32 537.58 259.7 537.3C255.6 536.58 251.46 536.04 247.34 535.42C246.1 530.869 244.577 526.401 242.78 522.04C242.702 521.87 242.576 521.726 242.418 521.625C242.261 521.524 242.077 521.47 241.89 521.47C241.703 521.47 241.519 521.524 241.362 521.625C241.204 521.726 241.078 521.87 241 522.04C239.8 524.92 237.8 531.38 236.86 534.58C233.54 534.76 225.56 535.02 222.86 535.48C222.26 535.68 221.56 536.88 222.14 537.48L230.7 545.24C229.82 549.12 229 553.06 228.24 556.98C228.1 557.72 229 558.54 229.72 558.1C233.54 555.82 237.3 553.42 241.06 551.06C244.38 553.74 247.88 556.28 251.4 558.84ZM232.26 544.44C229.767 541.873 227.093 539.487 224.26 537.3L237.24 536.72C238.54 536.72 241.52 526.44 242.08 524.86C243.06 527.9 244.76 533.12 245.38 535.12C246 537.12 245.2 536.8 247.48 537.12L257.48 538.76L248.88 544.58C248.06 545.14 250.4 554.58 250.68 556.04L241.44 549.3C240.42 548.56 231.44 554.88 230.08 555.78C230.74 553.18 233 546.84 232.26 544.44ZM318.38 667C316.68 667.16 308.08 667.7 306.6 668.08L301.64 659.84C301.28 659.16 300.04 655.62 298.66 656.1C298.34 656.1 298.14 656.36 297.96 657.18C297.62 658.58 297.32 661.88 296.44 670.16C292.44 671.14 288.54 672.16 284.64 673.4C284.06 673.58 283.46 674.94 284.12 675.4C287.522 677.622 291.093 679.575 294.8 681.24C294.12 684.14 293.82 687.12 293.36 690.04C293.02 692.32 292.1 695.84 295.98 692.84C298.857 690.618 301.534 688.149 303.98 685.46C306.82 686.8 313.12 689.78 315.82 690.64C316.08 690.74 317.82 690.84 317.52 689.7C315.869 685.758 313.861 681.976 311.52 678.4C314.025 675.647 316.382 672.763 318.58 669.76C319.54 668.7 320.04 666.86 318.38 667ZM309.98 678.74L314.82 688.1C313.52 687.56 303.9 683.1 303.48 683.4C300.7 686.14 298.14 688.6 295.16 691.16C295.44 689.3 297.16 680.34 296.4 679.84C292.98 678.18 289.68 676.52 286.4 674.7C287.92 674.34 297.74 672.36 298.08 671.3C298.74 669.2 299.3 662.8 299.66 660.22C301.325 663.449 303.337 666.487 305.66 669.28C306.54 670.36 315.32 669.28 316.96 669.06C315.8 670.34 309.26 677.42 309.98 678.74ZM535.38 493.32C538.747 495.057 542.286 496.438 545.94 497.44L547.06 509.64C547.16 510.48 548.62 510.64 548.94 510.1L555.98 499C560.34 499.82 564.64 500.88 568.96 501.94C570.38 502.28 571.54 501.14 569.94 499.12C567.34 496.09 564.954 492.882 562.8 489.52C563.26 488.7 568.28 480.08 568.42 479.06C568.409 478.733 568.289 478.42 568.078 478.17C567.868 477.919 567.58 477.747 567.26 477.68C567 477.68 557.26 481.56 556.28 481.94C555.14 480.98 547.36 473.74 547.02 473.02C546.32 471.66 545.16 471.54 545.02 472.8L544.78 485.92L535.4 490.76C534.76 491.1 534.74 493 535.38 493.32ZM546.52 486.72C546.92 484.36 546.88 478.58 546.94 475.68C549.485 478.61 552.304 481.289 555.36 483.68C556.32 484.42 563.94 481.08 565.74 480.32L561.22 488.78C561.22 491.84 565.76 497.42 567.84 499.64C566.26 499.22 555.58 496.24 554.88 497.3C552.88 500.62 550.56 504.2 548.54 507.52L548.02 499.52C547.72 495.06 547.36 495.96 544.14 494.82L536.6 492.02C538.4 491.4 546.28 488.12 546.52 486.72ZM500.22 679.98C500.22 678.96 494.48 671.12 493.5 669.98C493.84 669.42 498.84 659.74 499.14 658.68C499.64 656.68 498.38 656.36 497.42 656.68C493.68 658.12 490.38 658.94 486.66 660.12C483.633 656.12 480.62 652.12 477.62 648.12C476.44 646.72 475.62 649.84 475.62 650.7C475.36 654.4 474.72 660.1 474.82 663.4L463.42 668.74C462.34 669.28 463.42 670.52 463.78 670.74L474.36 674.62C474.36 678.62 473.62 684.62 473.98 688.16C473.98 688.82 475.38 689.26 475.8 688.76C478.96 685.1 482 681.34 485.04 677.56C489.719 679.28 494.51 680.677 499.38 681.74C500.56 682.02 501.18 680.44 500.22 679.98ZM484.1 675.64C481.3 679.08 478.52 682.56 475.82 686.1C475.92 684.24 476.72 674.5 476.28 673.3C476.04 672.66 467.18 670.1 465.9 669.68C466.92 669.26 475.62 665.58 476.36 664.92C477.1 664.26 477.52 652.82 477.64 651.08L485.46 661.98C486.36 662.86 495.06 659.74 496.78 659.06C495.167 662.567 493.54 666.053 491.9 669.52C491.46 670.86 496.68 677.86 497.64 679.28C496.04 678.86 484.48 675.16 484.1 675.64ZM583.38 565.56L575.96 556.44C577.16 553.76 579.96 545.64 580.34 544.22C580.363 543.966 580.295 543.712 580.148 543.504C580.002 543.295 579.786 543.145 579.54 543.08C578.72 542.8 569.88 546.78 568.56 547.3C565.652 544.13 562.934 540.791 560.42 537.3C559.74 536.28 558.74 537.5 558.56 537.94C558.38 538.38 557.88 550.3 557.78 551.94L544.58 557C543.68 557.38 544.12 559.18 544.7 559.34L557.52 562.74V576.06C557.52 576.96 558.16 580.06 559.42 578.62C562.6 574.38 566.06 569.88 569.22 565.62C577.8 566.6 580.8 567.88 583.22 567.3C583.419 567.27 583.602 567.174 583.74 567.028C583.878 566.881 583.963 566.693 583.981 566.493C583.999 566.292 583.95 566.092 583.841 565.923C583.732 565.754 583.57 565.626 583.38 565.56ZM568.24 563.84C565.44 567.7 562.38 571.84 559.58 575.66C559.58 572.84 559.44 564.12 559.1 562.48C560.62 560.48 548.02 558.48 546.56 558.1C548.1 557.54 559.1 554.1 559.28 553.06C559.94 548.83 560.321 544.56 560.42 540.28C561.36 541.68 566.58 549.38 568.16 548.86C569.04 549.54 576.16 546.42 577.84 545.6C577.4 547.02 573.84 556.3 574.42 557.2C576.42 559.86 578.7 562.72 580.72 565.38C578.72 565.38 568.72 563.38 568.2 563.84H568.24ZM560.12 627.82C560.84 626.54 564.98 619.38 565.18 618.46C565.142 618.237 565.059 618.024 564.937 617.833C564.815 617.642 564.656 617.478 564.47 617.349C564.284 617.221 564.074 617.131 563.852 617.085C563.631 617.038 563.402 617.037 563.18 617.08C559.5 618.28 555.9 619.4 552.2 620.52C548.64 617.12 544.98 613.72 541.3 610.4C541.178 610.294 541.034 610.218 540.879 610.176C540.723 610.135 540.56 610.129 540.402 610.16C540.244 610.191 540.095 610.257 539.966 610.354C539.838 610.451 539.733 610.576 539.66 610.72C539.18 611.9 540.36 623.66 540.64 625.62L528.28 631.86C527.96 632.04 526.94 633.58 528.02 633.86L542.68 636.14C542.806 641.369 543.476 646.57 544.68 651.66C545.14 652.54 546.8 652.04 547.1 651.52L554.66 637.66C558.14 638.38 562.66 639.26 566.14 639.98C568.26 640.48 569.8 639.44 568.36 637.98C565.58 634.64 562.74 631.3 560.12 627.82ZM554.12 636.04C552.96 636.4 547.36 647.92 546.5 649.6C546.18 647.74 544.7 634.68 543.82 634.34C542.94 634 531.96 632.72 530.8 632.62C532.26 631.94 542.52 627.64 542.54 626.38C542.54 621.92 542 617.56 541.86 613.12C545.007 616.253 548.173 619.347 551.36 622.4C552.24 623.3 561.08 620.04 562.56 619.48C561.22 622.06 558.56 625.72 558.56 628.56C560.775 631.809 563.193 634.916 565.8 637.86C563.82 637.42 555.12 635.54 554.04 636.04H554.12ZM432.86 769C432.66 767.48 432.86 759.48 432.6 758.24C434.483 758.291 436.365 758.103 438.2 757.68C438.98 757.04 442.78 646.42 441.84 627.44C433.98 631.98 412.14 643.62 401.84 641.84C395.34 640.72 383.46 632.38 379.1 628.02C375.74 624.64 375.72 619.62 376.06 615.18L366.06 614.88C365.587 619.503 363.841 623.904 361.017 627.593C358.192 631.283 354.399 634.117 350.06 635.78C343.52 674.88 337.82 716.76 336.48 757.78C336.48 758.24 339.08 758.4 341.12 758.46C340.96 759.76 339.92 767.76 340.12 768.46C335.94 770.3 322.5 776.22 322.12 781.4C321.82 784.58 357.12 782.46 357.3 781.4C357.62 779.82 357.3 771.7 356.24 770.4C357.04 766.4 357.82 762.4 358.6 758.4C362.3 758.24 365.18 758.4 365.32 757.72C371.56 732.66 382.82 709.38 389.78 684.46C388.28 675.14 386.64 664.3 385.46 654.96C382.86 653.796 380.484 652.185 378.44 650.2C376.6 648.42 379.2 647.66 380.72 648.54C384.9 650.98 388.24 652 388.36 652.84C392.36 677.86 405.5 736.22 411.22 757.6C411.36 758.1 413.62 758.06 415.94 758.22C416.44 761.88 416.98 765.74 417.66 769.38C416.7 769.58 415.66 779.72 416.6 780.42C418.6 781.84 448.6 783.78 449.24 782.04C449.88 780.3 442.46 773.46 432.86 769ZM355.24 769.96C350.52 769.44 345.58 770.22 341.04 768.56C341.695 765.221 342.176 761.849 342.48 758.46H357.22C356.182 762.219 355.519 766.071 355.24 769.96ZM418.66 769.36C418.3 765.64 417.8 761.96 417.26 758.26C422.076 758.54 426.904 758.54 431.72 758.26C431.34 761.817 431.34 765.403 431.72 768.96C427.385 769.452 423.017 769.586 418.66 769.36Z" fill="black"/>
<path fill-rule="evenodd" clip-rule="evenodd" d="M503 410.26C502.74 408 501.22 408.82 500.6 409.66C482.12 433.92 463.54 458.08 445.3 482.5C425.24 457.2 397.84 425.7 374.2 403.2C373.68 402.72 372.5 403.2 372.3 403.78C362.6 433.14 353.42 466.16 345.8 496.36C321.1 483.06 287.8 468.36 261.4 457.32C260.8 457.08 258.5 456.76 258.84 458.22C274.62 529.32 297.64 604.76 305.74 627.3C306.3 628.9 306.76 629.08 308.4 628.86C320.2 627.5 332.4 625.1 344.2 623.14L344.68 629.62C345.06 634.82 349.14 632.3 352.02 630.34C356.617 627.65 360.025 623.32 361.56 618.22C363.36 611.98 363.14 582.64 363.56 574.36C365 575.06 368.22 572.22 367.32 568.96C367.971 568.363 368.396 567.559 368.524 566.685C368.651 565.81 368.473 564.918 368.02 564.16C371.32 561.4 368.16 557.38 365.1 555.92C366.7 541.4 370.72 518.96 375.28 509.34L376.42 508.88C376.313 511.23 376.407 513.586 376.7 515.92C376.718 516.144 376.794 516.36 376.919 516.547C377.044 516.733 377.215 516.885 377.416 516.987C377.616 517.089 377.839 517.139 378.064 517.13C378.289 517.122 378.507 517.057 378.7 516.94C380.486 515.733 382.196 514.417 383.82 513C383.623 511.388 383.576 509.761 383.68 508.14C381.897 506.507 379.873 505.158 377.68 504.14C376.32 503.58 376.5 506.58 376.46 507.22C351.5 517 325.26 540.86 317.86 567.34C314.38 579.8 315.62 608.84 335.86 605.48C343.68 604.16 351.68 594.76 356.32 587.34C359.58 582.1 360.98 586.16 358.72 589.78C354.778 595.814 349.997 601.255 344.52 605.94C344.106 610.929 343.993 615.938 344.18 620.94C332.18 622.94 319.84 625.32 307.7 627.18C302.36 609.18 283.06 553.78 261.32 459.18C286.8 470.12 319.68 485.64 344.18 497.98C346.86 499.34 346.86 499.66 347.56 496.96C355.56 467.16 364.34 434.26 373.98 405.5C398.64 431.18 421.78 456.42 443.98 484.44C444.36 484.92 445.44 485.46 445.98 484.8C464.7 460.68 483.08 436.3 501.58 412C507.46 470.16 511.32 530.5 510.64 590.5C497.44 593.167 484.233 595.747 471.02 598.24C481.58 580.36 470.92 555.96 459.88 540.8C446.509 522.401 426.978 509.413 404.84 504.2C404.84 497.7 404.42 491.54 407.82 485.66C408.84 483.88 410.44 482.28 410.1 480.1C414.56 476.46 416.88 469.76 417.96 464.3C419.8 455.04 411.96 457.04 406.76 458.44C400.1 460.22 388.94 457.64 382.56 455.84C378.72 454.76 369.08 452.28 367.7 458.08C366.56 462.78 373.3 467.12 377.04 468.4C373.82 479.3 371.04 500.72 382.24 503.08C382.24 503.76 382.1 504.44 382.04 505.08C382.52 505.28 382.98 505.5 383.4 505.72C383.4 504.94 383.68 501.98 382.68 501.72C375.32 499.32 375.28 489.72 375.72 483.46C376.102 478.494 376.838 473.562 377.92 468.7C382.759 469.922 387.863 469.557 392.48 467.66C395.28 466.6 401.86 462.4 404.78 464.78C407.28 466.78 401.12 469.18 401.94 477.5C402.48 483.06 405.5 478.34 407.78 479.04C408.081 479.15 408.34 479.352 408.52 479.618C408.7 479.883 408.791 480.199 408.78 480.52C408.96 483.68 402.36 485.92 403.34 503.54C401.56 503.06 395.58 507.38 394.14 508.42C394.354 510.144 394.307 511.89 394 513.6C396.88 515.38 401.88 517.48 402.4 517.16C403.3 516.62 404.88 508.9 404.6 505.74C406.78 506.24 408.94 506.84 411.06 507.52C404.26 515.52 390.04 544.06 388.12 555.52C386.702 555.382 385.273 555.633 383.986 556.246C382.7 556.859 381.605 557.811 380.82 559C378.56 562.66 377.02 570.08 380 573.54C380.98 574.521 382.212 575.213 383.56 575.54C381.092 589.286 379.667 603.199 379.3 617.16C379.3 620.58 379.44 623.16 382.52 625.98C386.84 629.98 396.52 637.12 402.2 637.98C410.76 639.44 434.78 628.18 443.18 621.98C444.013 621.177 444.518 620.094 444.6 618.94C444.869 617.032 444.916 615.099 444.74 613.18C425.886 610.638 408.328 602.171 394.6 589C392.6 587 394.3 584.7 396.48 586.68C413.86 602.44 450.24 621.42 469.22 600.68C483.433 598.013 497.64 595.24 511.84 592.36C512.8 592.18 512.64 591.06 512.64 590.22C513.004 530.095 509.785 470.002 503 410.26ZM355.76 536.08C355.98 535.1 358.94 532.6 360.24 531.56C359.04 530.78 356.58 529 356.8 527.84C357.22 525.66 363.12 517.56 364.58 515.68C365.56 514.44 367.6 516.02 366.58 517.28C364.123 520.516 361.98 523.978 360.18 527.62C363.04 530.3 364.06 530.12 364.18 531.24C364.18 533 360.38 535.24 358.76 536.72C358.96 540.947 359.166 545.18 359.38 549.42C359.38 551.1 356.94 551.12 356.8 549.42C356.66 547.72 355.46 537.38 355.76 536.08ZM362.44 555.18C360.862 554.947 359.252 555.056 357.72 555.5C359.32 553.568 360.444 551.286 361 548.84C361.56 546.84 362.72 547.16 363 548.68C363.255 550.862 363.064 553.074 362.44 555.18ZM364.56 557.18C367.1 558.42 368.94 560.48 367.3 563.28C366.5 562.34 363.92 559.86 362.64 560.54C362.571 560.577 362.512 560.63 362.467 560.693C362.421 560.757 362.391 560.83 362.377 560.906C362.364 560.983 362.368 561.062 362.389 561.137C362.41 561.212 362.448 561.282 362.5 561.34C362.82 561.7 369.04 564.26 366.72 567.8C366.14 566.8 364.1 564.98 362.9 565.24C362.834 565.249 362.771 565.272 362.715 565.307C362.659 565.342 362.611 565.388 362.573 565.443C362.535 565.497 362.51 565.559 362.497 565.624C362.484 565.689 362.485 565.755 362.5 565.82C362.74 567 365.76 566.86 366.1 569.82C366.177 570.587 365.984 571.357 365.553 571.997C365.121 572.636 364.48 573.104 363.74 573.32C364.78 571.32 361.96 569.76 360.36 571.32C360.14 571.52 360.14 572.12 361.08 571.84C361.368 571.76 361.672 571.76 361.96 571.84C359.96 577.42 353.22 574.14 351.96 568.92C351.202 565.569 351.775 562.055 353.56 559.12C357.48 556.86 359.94 555 364.56 557.26V557.18ZM327.14 565.18C326.898 565.287 326.626 565.304 326.373 565.23C326.119 565.156 325.9 564.994 325.754 564.774C325.608 564.554 325.545 564.289 325.575 564.027C325.605 563.764 325.727 563.521 325.92 563.34C331.465 559.309 337.773 556.451 344.46 554.94C345.822 549.479 347.601 544.13 349.78 538.94C350.28 537.72 352.3 538.54 351.78 539.74C349.977 544.552 348.487 549.476 347.32 554.48C348.213 554.387 349.093 554.327 349.96 554.3C351.06 554.3 351.48 556.02 350.3 556.3C342.017 557.593 334.115 560.671 327.14 565.32V565.18ZM357.42 582.34C347.26 580.68 340.96 568.98 349.64 559.1L352.52 559C349.72 562.44 349.42 570.76 353.9 574.46C354.669 575.108 355.571 575.578 356.542 575.837C357.514 576.096 358.53 576.138 359.52 575.96C359.092 578.212 358.386 580.402 357.42 582.48V582.34ZM396.62 552.12C398.38 549.7 405.18 540.12 406.94 538.12C406.04 537.22 403.86 534.86 404.16 533.42C404.203 533.194 404.308 532.985 404.464 532.815C404.619 532.646 404.818 532.523 405.04 532.46L411.46 529.98L415.46 514.46C415.485 514.293 415.545 514.132 415.636 513.989C415.727 513.846 415.847 513.724 415.988 513.63C416.129 513.536 416.288 513.472 416.454 513.443C416.621 513.413 416.792 513.419 416.957 513.459C417.121 513.5 417.276 513.574 417.41 513.677C417.544 513.781 417.655 513.911 417.737 514.06C417.818 514.208 417.867 514.372 417.881 514.541C417.896 514.71 417.875 514.88 417.82 515.04C417.2 517.68 415.08 530.8 413.36 532.12C411.602 533.153 409.702 533.921 407.72 534.4C409.24 535.76 410.94 537.16 409.84 539.02C409.32 539.96 400.12 551.92 398.66 553.76C397.72 555 395.7 553.52 396.62 552.26V552.12ZM390.5 551C394.36 544.16 394.16 550.18 393.82 553.54C393.73 554.572 393.873 555.611 394.24 556.58C392.619 555.901 390.894 555.502 389.14 555.4C389.28 553.854 389.743 552.355 390.5 551ZM381 572.52C378.34 570.14 380.2 562.38 382.14 559.5C384.58 555.94 389.82 555.94 393.4 557.5C390.687 559.457 388.612 562.171 387.435 565.301C386.257 568.432 386.029 571.84 386.78 575.1C384.707 574.614 382.746 573.738 381 572.52ZM394.02 582.24L388.02 576.24C386.02 567.18 390.3 559.88 395.9 557.68C397.78 557.82 399.9 557.68 401.78 557.68C396.62 563.98 392.28 573.86 393.92 582.24H394.02ZM453 567.5C438.82 560.309 423.139 556.574 407.24 556.6C405.84 556.6 405.96 554.6 407.24 554.46C413.15 554.189 419.073 554.511 424.92 555.42C424.72 554.68 423.82 551.3 423.56 550.36C423.448 550.095 423.447 549.796 423.556 549.53C423.664 549.264 423.875 549.051 424.14 548.94C424.405 548.829 424.704 548.827 424.97 548.936C425.236 549.045 425.448 549.255 425.56 549.52C426.525 551.593 427.302 553.748 427.88 555.96C437.072 557.723 445.876 561.109 453.88 565.96C455.14 566.52 454.1 568.04 453 567.5Z" fill="black"/>
<path d="M326.769 286.328L274.976 322.106L270.026 378.688L393.047 389.449L397.997 332.87L353.205 288.64L326.772 286.324L326.769 286.328Z" fill="white"/>
<path d="M274.979 322.072L326.771 286.29L371.563 330.52L366.613 387.099L270.029 378.651L274.979 322.072Z" fill="#FFB9AA"/>
<path d="M326.769 286.328L274.976 322.106L270.026 378.688L393.047 389.449L397.997 332.87L353.205 288.64L326.772 286.324L326.769 286.328Z" stroke="black" stroke-width="5.37607" stroke-linecap="round" stroke-linejoin="round"/>
<path d="M274.979 322.072L326.771 286.29L371.563 330.52L366.613 387.099L270.029 378.651L274.979 322.072Z" stroke="black" stroke-width="5.37607" stroke-linecap="round" stroke-linejoin="round"/>
<path d="M371.561 330.52L398 332.836M341.613 300.952L368.046 303.265M356.451 315.58L382.887 317.893M367.849 372.993L394.282 375.309M369.084 358.844L395.524 361.157M370.325 344.691L396.759 347.007" stroke="black" stroke-width="5.37607" stroke-linecap="round" stroke-linejoin="round"/>
<path d="M274.336 379.033C277.733 340.411 304.368 309.417 339.25 298.618M292.794 380.645C295.832 346.134 322.074 319.231 354.795 313.969M311.251 382.26C313.947 351.704 340.893 329.106 371.455 331.774M329.708 383.876C331.515 363.513 349.471 348.456 369.84 350.234M348.165 385.487C348.605 380.602 350.963 376.091 354.723 372.942C358.483 369.793 363.339 368.263 368.225 368.689" stroke="black" stroke-width="5.37607" stroke-linecap="round" stroke-linejoin="round"/>
<path fill-rule="evenodd" clip-rule="evenodd" d="M109.839 566.738L187.914 560.139L189.674 580.974L132.576 585.797L134.497 608.325L170.195 605.308C183.844 604.153 195.754 614.337 196.903 627.924L199.102 653.926C200.25 667.516 190.214 679.547 176.565 680.699L140.864 683.719C127.215 684.871 115.305 674.69 114.153 661.102L113.483 653.16L134.318 651.4L134.991 659.342C135.176 661.528 137.063 663.057 139.104 662.884L174.805 659.867C175.307 659.82 175.794 659.674 176.24 659.438C176.685 659.203 177.08 658.882 177.401 658.493C177.722 658.105 177.963 657.657 178.112 657.175C178.26 656.694 178.311 656.188 178.264 655.686L176.071 629.685C176.034 629.182 175.897 628.691 175.67 628.241C175.443 627.791 175.129 627.39 174.747 627.061C174.365 626.732 173.921 626.481 173.442 626.324C172.963 626.166 172.458 626.105 171.955 626.143L115.265 630.932L109.839 566.738Z" fill="#94E986"/>
<path d="M109.839 566.738L187.914 560.139L189.674 580.974L132.576 585.797L134.497 608.325L170.195 605.308C183.844 604.153 195.754 614.337 196.903 627.924L199.102 653.926C200.25 667.516 190.214 679.547 176.565 680.699L140.864 683.719C127.215 684.871 115.305 674.69 114.153 661.102L113.483 653.16L134.318 651.4L134.991 659.342C135.176 661.528 137.063 663.057 139.104 662.884L174.805 659.867C175.307 659.82 175.794 659.674 176.24 659.438C176.685 659.203 177.08 658.882 177.401 658.493C177.722 658.105 177.963 657.657 178.112 657.175C178.26 656.694 178.311 656.188 178.264 655.686L176.071 629.685C176.034 629.182 175.897 628.691 175.67 628.241C175.443 627.791 175.129 627.39 174.747 627.061C174.365 626.732 173.921 626.481 173.442 626.324C172.963 626.166 172.458 626.105 171.955 626.143L115.265 630.932L109.839 566.738Z" stroke="black" stroke-width="5.37607" stroke-linecap="square" stroke-linejoin="round"/>
<path d="M175.694 572.019L120.925 577.04L124.973 619.513L168.521 615.226C179.19 614.325 186.496 621.455 187.395 632.075L189.112 652.663C190.007 663.286 182.562 671.154 171.896 672.056L143.989 674.415C135.188 675.159 127.342 672.056 125.779 663.894" stroke="black" stroke-width="5.37607" stroke-linecap="square" stroke-linejoin="round"/>
<path d="M187.905 610.817C190.472 612.92 192.591 615.518 194.134 618.457C195.678 621.395 196.615 624.614 196.891 627.921L199.089 653.923C200.238 667.513 190.205 679.544 176.556 680.696L140.855 683.716C135.256 684.2 129.661 682.746 125.004 679.6L142.239 692.177C146.691 694.879 151.888 696.094 157.077 695.645L192.778 692.628C206.427 691.476 216.463 679.442 215.314 665.855L213.115 639.85C212.84 636.542 211.903 633.323 210.359 630.384C208.816 627.445 206.697 624.847 204.129 622.743L187.905 610.817Z" stroke="black" stroke-width="5.37607" stroke-linecap="round" stroke-linejoin="round"/>
<path d="M197.193 631.204L213.415 643.133" stroke="black" stroke-width="5.37607" stroke-linejoin="round"/>
<path d="M198.567 648.17L214.792 660.099" stroke="black" stroke-width="5.37607" stroke-linejoin="round"/>
<path d="M197.434 665.135L213.656 677.067" stroke="black" stroke-width="5.37607" stroke-linejoin="round"/>
<path d="M188.278 676.564L204.499 688.493" stroke="black" stroke-width="5.37607" stroke-linejoin="round"/>
<path d="M170.219 681.205L186.444 693.135" stroke="black" stroke-width="5.37607" stroke-linejoin="round"/>
<path d="M149.644 682.99L165.865 694.919" stroke="black" stroke-width="5.37607" stroke-linejoin="round"/>
<path d="M176.859 639.026L131.486 642.861L115.265 630.932L171.955 626.14C173.993 625.97 175.883 627.498 176.068 629.685L176.856 639.026H176.859Z" stroke="black" stroke-width="5.37607" stroke-linecap="square" stroke-linejoin="round"/>
<path d="M134.747 629.305L150.969 641.234" stroke="black" stroke-width="5.37607" stroke-linejoin="round"/>
<path d="M153.698 627.665L169.92 639.594" stroke="black" stroke-width="5.37607" stroke-linejoin="round"/>
<path d="M189.68 580.974L187.92 560.139L204.141 572.068L205.902 592.903L189.68 580.974Z" stroke="black" stroke-width="5.37607" stroke-linecap="square" stroke-linejoin="round"/>
<path d="M132.561 585.801L189.661 580.974L205.886 592.903L148.785 597.73L132.561 585.801Z" stroke="black" stroke-width="5.37607" stroke-linecap="square" stroke-linejoin="round"/>
<path d="M171.705 582.376L187.929 594.302" stroke="black" stroke-width="5.37607" stroke-linejoin="round"/>
<path d="M150.981 584.272L167.206 596.201" stroke="black" stroke-width="5.37607" stroke-linejoin="round"/>
<path d="M149.579 607.049L134.484 608.325L132.561 585.797L148.785 597.73L149.579 607.049Z" stroke="black" stroke-width="5.37607" stroke-linecap="square" stroke-linejoin="round"/>
<path d="M428.033 119.93C415.011 142.488 422.74 171.334 445.295 184.359L467.081 196.937C489.642 209.959 518.488 202.233 531.51 179.675C544.535 157.113 536.806 128.268 514.248 115.243L492.462 102.665C469.904 89.6428 441.058 97.3721 428.033 119.927V119.93Z" fill="#94E986"/>
<path d="M452.262 143.514C452.262 145.696 452.692 147.857 453.527 149.874C454.362 151.89 455.586 153.722 457.13 155.266C458.673 156.809 460.505 158.033 462.521 158.868C464.538 159.704 466.699 160.133 468.882 160.133C471.064 160.133 473.225 159.704 475.242 158.868C477.258 158.033 479.09 156.809 480.634 155.266C482.177 153.722 483.401 151.89 484.236 149.874C485.071 147.857 485.501 145.696 485.501 143.514C485.501 139.106 483.75 134.878 480.634 131.762C477.517 128.645 473.289 126.894 468.882 126.894C464.474 126.894 460.246 128.645 457.13 131.762C454.013 134.878 452.262 139.106 452.262 143.514Z" fill="#EA563D"/>
<path fill-rule="evenodd" clip-rule="evenodd" d="M445.298 184.356C467.856 197.384 496.702 189.655 509.727 167.094C522.752 144.536 515.023 115.69 492.465 102.665C469.904 89.6428 441.058 97.3721 428.033 119.927C415.011 142.488 422.74 171.334 445.295 184.359L445.298 184.356ZM460.572 157.907C464.389 160.111 468.926 160.708 473.183 159.567C477.441 158.426 481.071 155.641 483.275 151.824C485.479 148.006 486.076 143.47 484.935 139.212C483.794 134.954 481.009 131.324 477.191 129.12C473.374 126.916 468.837 126.318 464.579 127.459C460.321 128.599 456.691 131.385 454.487 135.202C452.282 139.019 451.685 143.556 452.825 147.814C453.966 152.072 456.751 155.703 460.569 157.907H460.572Z" fill="#FFB9EC"/>
<path d="M428.033 119.93C415.011 142.488 422.74 171.334 445.295 184.359L467.081 196.937C489.642 209.959 518.488 202.233 531.51 179.675C544.535 157.113 536.806 128.268 514.248 115.243L492.462 102.665C469.904 89.6428 441.058 97.3721 428.033 119.927V119.93Z" stroke="black" stroke-width="5.37607" stroke-linecap="round" stroke-linejoin="round"/>
<path d="M452.262 143.514C452.262 145.696 452.692 147.857 453.527 149.874C454.362 151.89 455.586 153.722 457.13 155.266C458.673 156.809 460.505 158.033 462.521 158.868C464.538 159.704 466.699 160.133 468.882 160.133C471.064 160.133 473.225 159.704 475.242 158.868C477.258 158.033 479.09 156.809 480.634 155.266C482.177 153.722 483.401 151.89 484.236 149.874C485.071 147.857 485.501 145.696 485.501 143.514C485.501 139.106 483.75 134.878 480.634 131.762C477.517 128.645 473.289 126.894 468.882 126.894C464.474 126.894 460.246 128.645 457.13 131.762C454.013 134.878 452.262 139.106 452.262 143.514Z" stroke="black" stroke-width="5.37607" stroke-linecap="round" stroke-linejoin="round"/>
<path d="M445.298 184.356C467.856 197.384 496.702 189.655 509.727 167.094C522.752 144.536 515.023 115.69 492.465 102.665C469.904 89.6428 441.058 97.3721 428.033 119.927C415.011 142.488 422.74 171.334 445.295 184.359L445.298 184.356ZM460.572 157.907C464.389 160.111 468.926 160.708 473.183 159.567C477.441 158.426 481.071 155.641 483.275 151.824C485.479 148.006 486.076 143.47 484.935 139.212C483.794 134.954 481.009 131.324 477.191 129.12C473.374 126.916 468.837 126.318 464.579 127.459C460.321 128.599 456.691 131.385 454.487 135.202C452.282 139.019 451.685 143.556 452.825 147.814C453.966 152.072 456.751 155.703 460.569 157.907H460.572Z" stroke="black" stroke-width="5.37607" stroke-linecap="round" stroke-linejoin="round"/>
<path d="M105.847 257.864V278.069H163.577V379.1L149.079 393.738V292.7H91.3452V272.501L105.847 257.864Z" fill="#EA563D"/>
<path d="M91.3452 272.501H74.0244L88.5227 257.864H105.847L91.3452 272.501Z" fill="#EA563D"/>
<path d="M87.3062 307.804H133.627V341.244H87.3062V307.804Z" fill="#FFB9EC"/>
<path fill-rule="evenodd" clip-rule="evenodd" d="M91.3452 292.703V272.495H74.0244V393.738H149.076V292.703H91.3452ZM133.624 307.804H87.303V341.241H133.624V307.801V307.804Z" fill="#89DCFF"/>
<path d="M86.3701 355.446H95.6342" stroke="black" stroke-width="5.37607" stroke-linecap="round" stroke-linejoin="round"/>
<path d="M86.3701 367.798H95.6342" stroke="black" stroke-width="5.37607" stroke-linecap="round" stroke-linejoin="round"/>
<path d="M86.3701 380.15H95.6342" stroke="black" stroke-width="5.37607" stroke-linecap="round" stroke-linejoin="round"/>
<path d="M105.828 355.446H115.092" stroke="black" stroke-width="5.37607" stroke-linecap="round" stroke-linejoin="round"/>
<path d="M105.828 367.798H115.092" stroke="black" stroke-width="5.37607" stroke-linecap="round" stroke-linejoin="round"/>
<path d="M105.828 380.15H115.092" stroke="black" stroke-width="5.37607" stroke-linecap="round" stroke-linejoin="round"/>
<path d="M124.356 355.446H133.621" stroke="black" stroke-width="5.37607" stroke-linecap="round" stroke-linejoin="round"/>
<path d="M124.356 367.798H133.621" stroke="black" stroke-width="5.37607" stroke-linecap="round" stroke-linejoin="round"/>
<path d="M124.356 380.15H133.621" stroke="black" stroke-width="5.37607" stroke-linecap="round" stroke-linejoin="round"/>
<path d="M91.3452 272.501V292.706H149.076V393.738H74.0244V272.501H91.3452Z" stroke="black" stroke-width="5.37607" stroke-linejoin="round"/>
<path d="M105.847 257.864V278.069L91.3452 292.706V272.498L105.847 257.864Z" stroke="black" stroke-width="5.37607" stroke-linejoin="round"/>
<path d="M91.3452 272.501H74.0244L88.5227 257.864H105.847L91.3452 272.501Z" stroke="black" stroke-width="5.37607" stroke-linejoin="round"/>
<path d="M87.3062 307.804H133.627V341.244H87.3062V307.804Z" stroke="black" stroke-width="5.37607" stroke-linejoin="round"/>
<path d="M105.847 278.075H163.577L149.079 292.713H91.3452L105.847 278.075Z" stroke="black" stroke-width="5.37607" stroke-linejoin="round"/>
<path d="M163.571 278.075V379.107L149.073 393.738V292.71L163.571 278.072V278.075Z" stroke="black" stroke-width="5.37607" stroke-linejoin="round"/>
</svg>
