<svg width="934" height="279" viewBox="0 0 934 279" fill="none" xmlns="http://www.w3.org/2000/svg">
<path fill-rule="evenodd" clip-rule="evenodd" d="M225.864 64.5778C225.864 59.2649 227.974 54.1697 231.731 50.4129C235.488 46.6562 240.583 44.5457 245.896 44.5457H290.805C295.539 44.5456 300.12 46.2218 303.736 49.277C307.352 52.3322 309.769 56.5691 310.559 61.2365H323.347C326.855 61.2365 330.328 61.9274 333.569 63.2698C336.809 64.6123 339.754 66.5799 342.234 69.0603C344.714 71.5407 346.681 74.4854 348.023 77.7262C349.365 80.967 350.056 84.4404 350.055 87.948V95.6249C350.055 102.708 347.241 109.502 342.233 114.511C337.224 119.519 330.43 122.333 323.347 122.333H305.412C301.72 128.918 296.339 134.399 289.825 138.213C283.311 142.027 275.898 144.036 268.349 144.033C244.886 144.033 225.864 125.011 225.864 101.548V64.5778ZM310.834 101.548V81.2655H319.508C322.266 81.3128 324.895 82.4415 326.829 84.4086C328.763 86.3756 329.846 89.0235 329.846 91.7818C329.846 94.5401 328.763 97.188 326.829 99.1551C324.895 101.122 322.266 102.251 319.508 102.298H310.831L310.834 101.545V101.548Z" fill="#FFB9EC"/>
<path d="M273.568 127.324C273.568 125.912 273.007 124.557 272.008 123.559C271.01 122.561 269.656 122 268.244 122C266.832 122 265.478 122.561 264.479 123.559C263.481 124.557 262.92 125.912 262.92 127.324" stroke="black" stroke-width="5.37607" stroke-linecap="round" stroke-linejoin="round"/>
<path d="M273.568 103.95C273.568 103.251 273.43 102.559 273.162 101.913C272.895 101.267 272.503 100.68 272.008 100.186C271.514 99.6914 270.927 99.2993 270.281 99.0317C269.635 98.7642 268.943 98.6265 268.244 98.6265C267.545 98.6265 266.853 98.7642 266.207 99.0317C265.561 99.2993 264.974 99.6914 264.479 100.186C263.985 100.68 263.593 101.267 263.325 101.913C263.058 102.559 262.92 103.251 262.92 103.95" stroke="black" stroke-width="5.37607" stroke-linecap="round" stroke-linejoin="round"/>
<path d="M255.534 115.635C255.534 114.936 255.396 114.244 255.129 113.598C254.861 112.952 254.469 112.365 253.974 111.871C253.48 111.377 252.893 110.984 252.247 110.717C251.601 110.449 250.909 110.312 250.21 110.312C249.511 110.312 248.819 110.449 248.173 110.717C247.527 110.984 246.94 111.377 246.446 111.871C245.951 112.365 245.559 112.952 245.291 113.598C245.024 114.244 244.886 114.936 244.886 115.635" stroke="black" stroke-width="5.37607" stroke-linecap="round" stroke-linejoin="round"/>
<path d="M255.534 92.2682C255.534 91.5691 255.396 90.8768 255.129 90.2309C254.861 89.585 254.469 88.9981 253.974 88.5038C253.48 88.0094 252.893 87.6173 252.247 87.3497C251.601 87.0822 250.909 86.9445 250.21 86.9445C249.511 86.9445 248.819 87.0822 248.173 87.3497C247.527 87.6173 246.94 88.0094 246.446 88.5038C245.951 88.9981 245.559 89.585 245.291 90.2309C245.024 90.8768 244.886 91.5691 244.886 92.2682" stroke="black" stroke-width="5.37607" stroke-linecap="round" stroke-linejoin="round"/>
<path d="M291.59 115.635C291.59 114.936 291.452 114.244 291.184 113.598C290.917 112.952 290.525 112.365 290.03 111.871C289.536 111.377 288.949 110.984 288.303 110.717C287.657 110.449 286.965 110.312 286.266 110.312C285.567 110.312 284.875 110.449 284.229 110.717C283.583 110.984 282.996 111.377 282.501 111.871C282.007 112.365 281.615 112.952 281.347 113.598C281.08 114.244 280.942 114.936 280.942 115.635" stroke="black" stroke-width="5.37607" stroke-linecap="round" stroke-linejoin="round"/>
<path d="M291.59 92.2682C291.59 91.5691 291.452 90.8768 291.184 90.2309C290.917 89.585 290.525 88.9981 290.03 88.5038C289.536 88.0094 288.949 87.6173 288.303 87.3497C287.657 87.0822 286.965 86.9445 286.266 86.9445C285.567 86.9445 284.875 87.0822 284.229 87.3497C283.583 87.6173 282.996 88.0094 282.501 88.5038C282.007 88.9981 281.615 89.585 281.347 90.2309C281.08 90.8768 280.942 91.5691 280.942 92.2682" stroke="black" stroke-width="5.37607" stroke-linecap="round" stroke-linejoin="round"/>
<path d="M240.893 66.7456C240.893 69.2689 243.778 71.6889 248.911 73.4732C254.045 75.2574 261.008 76.2598 268.269 76.2598C275.529 76.2598 282.492 75.2574 287.626 73.4732C292.76 71.6889 295.644 69.2689 295.644 66.7456C295.644 64.2222 292.76 61.8022 287.626 60.018C282.492 58.2337 275.529 57.2313 268.269 57.2313C261.008 57.2313 254.045 58.2337 248.911 60.018C243.778 61.8022 240.893 64.2222 240.893 66.7456Z" fill="#E38414"/>
<path d="M225.864 64.5778C225.864 59.2649 227.974 54.1697 231.731 50.4129C235.488 46.6562 240.583 44.5457 245.896 44.5457H290.805C295.539 44.5456 300.12 46.2218 303.736 49.277C307.352 52.3322 309.769 56.5691 310.559 61.2365H323.347C326.855 61.2365 330.328 61.9274 333.569 63.2698C336.809 64.6123 339.754 66.5799 342.234 69.0603C344.714 71.5407 346.681 74.4854 348.023 77.7262C349.365 80.967 350.056 84.4404 350.055 87.948V95.6249C350.055 102.708 347.241 109.502 342.233 114.511C337.224 119.519 330.43 122.333 323.347 122.333H305.412C301.72 128.918 296.339 134.399 289.825 138.213C283.311 142.027 275.898 144.036 268.349 144.033C244.886 144.033 225.864 125.011 225.864 101.548V64.5778Z" stroke="black" stroke-width="5.37607" stroke-linecap="round"/>
<path d="M268.34 144.033C284.252 144.033 298.124 135.281 305.402 122.33L317.087 137.354C309.809 150.305 295.937 159.056 280.025 159.056C273.707 159.062 267.467 157.656 261.762 154.941C256.057 152.226 251.031 148.27 247.051 143.363L236.273 129.417C240.257 134.011 245.183 137.694 250.716 140.216C256.248 142.737 262.259 144.039 268.34 144.033Z" stroke="black" stroke-width="5.37607" stroke-linecap="round" stroke-linejoin="round"/>
<path d="M350.049 87.9449C350.058 82.3265 348.286 76.8498 344.988 72.3009L357.109 87.9449C360.131 92.3715 361.744 97.6083 361.738 102.968V110.648C361.738 114.156 361.047 117.629 359.704 120.87C358.362 124.11 356.394 127.055 353.914 129.535C351.433 132.015 348.489 133.982 345.248 135.324C342.007 136.666 338.534 137.357 335.026 137.357H317.094L305.409 122.333H323.344C326.852 122.333 330.325 121.642 333.566 120.3C336.806 118.958 339.751 116.99 342.231 114.509C344.711 112.029 346.678 109.084 348.02 105.844C349.362 102.603 350.053 99.1294 350.052 95.6218V87.9449H350.049Z" stroke="black" stroke-width="5.37607" stroke-linecap="round" stroke-linejoin="round"/>
<path d="M271.737 143.9L283.36 158.939" stroke="black" stroke-width="5.37607" stroke-linecap="round"/>
<path d="M292.328 136.615L303.97 151.682" stroke="black" stroke-width="5.37607" stroke-linecap="round"/>
<path d="M333.377 120.357L345.019 135.414" stroke="black" stroke-width="5.37607" stroke-linecap="round"/>
<path d="M348.891 103.428L360.548 118.516" stroke="black" stroke-width="5.37607" stroke-linecap="round"/>
<path d="M240.893 66.7456C240.893 69.2689 243.778 71.6889 248.911 73.4732C254.045 75.2574 261.008 76.2598 268.269 76.2598C275.529 76.2598 282.492 75.2574 287.626 73.4732C292.76 71.6889 295.644 69.2689 295.644 66.7456C295.644 64.2222 292.76 61.8022 287.626 60.018C282.492 58.2337 275.529 57.2313 268.269 57.2313C261.008 57.2313 254.045 58.2337 248.911 60.018C243.778 61.8022 240.893 64.2222 240.893 66.7456Z" stroke="black" stroke-width="5.37607"/>
<path d="M310.84 81.2655V101.545L310.834 102.298H319.512C320.892 102.298 322.26 102.026 323.535 101.498C324.811 100.969 325.97 100.195 326.947 99.2184C327.923 98.242 328.698 97.0829 329.226 95.8072C329.754 94.5315 330.026 93.1642 330.026 91.7834C330.026 90.4025 329.754 89.0352 329.226 87.7595C328.698 86.4838 327.923 85.3247 326.947 84.3483C325.97 83.3719 324.811 82.5974 323.535 82.069C322.26 81.5406 320.892 81.2686 319.512 81.2686H310.84V81.2655Z" stroke="black" stroke-width="5.37607" stroke-linecap="round"/>
<path fill-rule="evenodd" clip-rule="evenodd" d="M615.92 59.4061L516.164 32.676L496.864 104.698L512.663 108.929L528.047 93.6154L575.152 106.239L580.822 127.195L596.623 131.425L615.924 59.4061H615.92Z" fill="#FFB9EC"/>
<path d="M532.976 22.1736L632.738 48.8975L615.923 59.4061L516.164 32.6791L532.979 22.1705L532.976 22.1736Z" fill="#94E986"/>
<path d="M512.644 108.944L528.044 93.6184L575.152 106.239L580.825 127.213L512.644 108.944Z" fill="#94E986"/>
<path d="M524.622 64.7267C524.154 66.4078 524.023 68.165 524.238 69.8969C524.452 71.6288 525.008 73.3009 525.873 74.8167C526.738 76.3324 527.895 77.6617 529.277 78.7277C530.658 79.7936 532.238 80.5751 533.923 81.0269C535.609 81.4787 537.367 81.5919 539.097 81.3599C540.827 81.128 542.493 80.5555 544 79.6755C545.507 78.7955 546.825 77.6255 547.877 76.2331C548.929 74.8408 549.695 73.2537 550.13 71.5636C550.598 69.8826 550.729 68.1253 550.514 66.3934C550.3 64.6616 549.744 62.9894 548.879 61.4737C548.014 59.9579 546.857 58.6286 545.476 57.5627C544.094 56.4967 542.515 55.7153 540.829 55.2634C539.143 54.8116 537.385 54.6984 535.655 54.9304C533.925 55.1624 532.259 55.7349 530.752 56.6149C529.245 57.4949 527.927 58.6649 526.875 60.0572C525.823 61.4496 525.057 63.0366 524.622 64.7267Z" fill="#89DCFF"/>
<path d="M567.07 76.1093C566.602 77.7903 566.471 79.5476 566.686 81.2795C566.9 83.0114 567.456 84.6835 568.321 86.1993C569.186 87.715 570.343 89.0443 571.725 90.1102C573.106 91.1762 574.686 91.9577 576.371 92.4095C578.057 92.8613 579.815 92.9745 581.545 92.7425C583.275 92.5106 584.941 91.938 586.448 91.058C587.955 90.1781 589.273 89.0081 590.325 87.6157C591.377 86.2234 592.143 84.6363 592.578 82.9462C593.046 81.2652 593.177 79.5079 592.962 77.776C592.748 76.0441 592.192 74.372 591.327 72.8562C590.462 71.3405 589.305 70.0112 587.924 68.9453C586.542 67.8793 584.963 67.0978 583.277 66.646C581.591 66.1942 579.833 66.081 578.103 66.313C576.373 66.5449 574.707 67.1175 573.2 67.9974C571.693 68.8774 570.375 70.0474 569.323 71.4398C568.271 72.8321 567.505 74.4192 567.07 76.1093Z" fill="#89DCFF"/>
<path d="M535.168 81.1736C538.393 81.724 541.707 81.0577 544.469 79.3037C547.23 77.5498 549.243 74.8332 550.115 71.6803C550.988 68.5273 550.659 65.1627 549.193 62.2383C547.727 59.3139 545.227 57.038 542.178 55.8517L581.81 66.4745C578.598 65.9861 575.319 66.6988 572.6 68.4763C569.88 70.2538 567.912 72.9714 567.07 76.1092C565.181 83.1561 569.575 90.5921 576.656 92.3461L535.168 81.1736Z" fill="#94E986"/>
<path d="M632.738 48.8944L613.437 120.917L596.623 131.425L615.923 59.403L632.735 48.8944H632.738Z" fill="#94E986"/>
<path d="M516.164 32.6729L615.923 59.406L596.623 131.428L496.867 104.698L516.164 32.6729Z" stroke="black" stroke-width="5.37607" stroke-linejoin="round"/>
<path d="M532.976 22.1736L632.738 48.8975L615.923 59.4061L516.164 32.6791L532.979 22.1705L532.976 22.1736Z" stroke="black" stroke-width="5.37607" stroke-linejoin="round"/>
<path d="M576.653 92.343L535.153 81.2261" stroke="black" stroke-width="5.37607" stroke-linecap="round" stroke-linejoin="round"/>
<path d="M512.644 108.944L528.044 93.6184L575.152 106.239L580.825 127.213L512.644 108.944Z" stroke="black" stroke-width="5.37607" stroke-linecap="round" stroke-linejoin="round"/>
<path d="M524.622 64.7267C524.154 66.4078 524.023 68.165 524.238 69.8969C524.452 71.6288 525.008 73.3009 525.873 74.8167C526.738 76.3324 527.895 77.6617 529.277 78.7277C530.658 79.7936 532.238 80.5751 533.923 81.0269C535.609 81.4787 537.367 81.5919 539.097 81.3599C540.827 81.128 542.493 80.5555 544 79.6755C545.507 78.7955 546.825 77.6255 547.877 76.2331C548.929 74.8408 549.695 73.2537 550.13 71.5636C550.598 69.8826 550.729 68.1253 550.514 66.3934C550.3 64.6616 549.744 62.9894 548.879 61.4737C548.014 59.9579 546.857 58.6286 545.476 57.5627C544.094 56.4967 542.515 55.7153 540.829 55.2634C539.143 54.8116 537.385 54.6984 535.655 54.9304C533.925 55.1624 532.259 55.7349 530.752 56.6149C529.245 57.4949 527.927 58.6649 526.875 60.0572C525.823 61.4496 525.057 63.0366 524.622 64.7267Z" stroke="black" stroke-width="5.37607" stroke-linejoin="round"/>
<path d="M567.07 76.1093C566.602 77.7903 566.471 79.5476 566.686 81.2795C566.9 83.0114 567.456 84.6835 568.321 86.1993C569.186 87.715 570.343 89.0443 571.725 90.1102C573.106 91.1762 574.686 91.9577 576.371 92.4095C578.057 92.8613 579.815 92.9745 581.545 92.7425C583.275 92.5106 584.941 91.938 586.448 91.058C587.955 90.1781 589.273 89.0081 590.325 87.6157C591.377 86.2234 592.143 84.6363 592.578 82.9462C593.046 81.2652 593.177 79.5079 592.962 77.776C592.748 76.0441 592.192 74.372 591.327 72.8562C590.462 71.3405 589.305 70.0112 587.924 68.9453C586.542 67.8793 584.963 67.0978 583.277 66.646C581.591 66.1942 579.833 66.081 578.103 66.313C576.373 66.5449 574.707 67.1175 573.2 67.9974C571.693 68.8774 570.375 70.0474 569.323 71.4398C568.271 72.8321 567.505 74.4192 567.07 76.1093Z" stroke="black" stroke-width="5.37607" stroke-linejoin="round"/>
<path d="M632.738 48.8944L613.437 120.917L596.623 131.425L615.923 59.403L632.735 48.8944H632.738Z" stroke="black" stroke-width="5.37607" stroke-linejoin="round"/>
<path d="M583.468 66.9162L541.968 55.7961" stroke="black" stroke-width="5.37607" stroke-linecap="round" stroke-linejoin="round"/>
<path fill-rule="evenodd" clip-rule="evenodd" d="M75.8406 43.7741L112.557 51.0742C115.801 51.7188 118.886 52.996 121.636 54.8329C124.385 56.6697 126.747 59.0302 128.584 61.7797C130.422 64.5291 131.7 67.6135 132.345 70.8569C132.99 74.1002 132.991 77.4389 132.346 80.6823L118.554 150.04C117.253 156.59 113.402 162.354 107.85 166.065C102.298 169.776 95.4993 171.13 88.9494 169.828L52.2295 162.528C48.986 161.883 45.9012 160.606 43.1514 158.769C40.4015 156.932 38.0404 154.572 36.2029 151.822C34.3653 149.073 33.0874 145.988 32.442 142.745C31.7966 139.502 31.7964 136.163 32.4414 132.92L33.2968 128.624L54.1317 132.762L53.2764 137.061C53.1751 137.568 53.1749 138.09 53.2757 138.598C53.3764 139.105 53.5762 139.588 53.8635 140.018C54.1509 140.448 54.5202 140.817 54.9504 141.105C55.3806 141.392 55.8631 141.592 56.3706 141.693L93.0904 148.993C94.1149 149.196 95.1784 148.985 96.0469 148.405C96.9155 147.824 97.5182 146.923 97.7225 145.899L102.339 122.677L61.7561 114.611C58.5129 113.966 55.4284 112.688 52.6789 110.851C49.9294 109.014 47.5686 106.654 45.7314 103.904C43.8942 101.155 42.6165 98.0705 41.9713 94.8274C41.3261 91.5842 41.326 88.2457 41.971 85.0025L46.2325 63.5623C46.8771 60.3184 48.1544 57.2334 49.9915 54.4833C51.8285 51.7332 54.1893 49.3719 56.9391 47.5343C59.6888 45.6968 62.7737 44.4189 66.0174 43.7737C69.2611 43.1285 72.6001 43.1287 75.8437 43.7741H75.8406ZM106.48 101.845L111.514 76.5413C111.615 76.0337 111.615 75.5112 111.514 75.0036C111.413 74.496 111.213 74.0133 110.925 73.5831C110.638 73.1529 110.268 72.7836 109.837 72.4964C109.407 72.2092 108.924 72.0096 108.416 71.9092L71.6996 64.6091C71.1922 64.5079 70.6699 64.5077 70.1625 64.6084C69.6551 64.7092 69.1725 64.9089 68.7423 65.1963C68.3122 65.4837 67.9428 65.853 67.6555 66.2831C67.3681 66.7133 67.1683 67.1959 67.0675 67.7033L62.806 89.1436C62.7048 89.6509 62.7046 90.1732 62.8054 90.6806C62.9061 91.188 63.1059 91.6706 63.3932 92.1008C63.6806 92.531 64.0499 92.9003 64.4801 93.1877C64.9102 93.475 65.3928 93.6748 65.9002 93.7756L106.48 101.845Z" fill="#89DCFF"/>
<path d="M16.8311 129.72L17.6865 125.422L33.3089 128.624L32.4535 132.923C31.2262 139.099 32.3571 145.51 35.6232 150.894C38.8894 156.277 44.0539 160.242 50.0986 162.006L36.6162 159.325C30.0668 158.023 24.3031 154.172 20.5928 148.62C16.8824 143.068 15.5293 136.27 16.8311 129.72Z" fill="#FFB9EC"/>
<path d="M75.8529 43.7741C69.303 42.4724 62.5042 43.8259 56.9522 47.5369C51.4002 51.2478 47.5497 57.0123 46.2479 63.5623L41.9833 85.0056C40.7559 91.1816 41.8868 97.5933 45.153 102.977C48.4192 108.36 53.5837 112.325 59.6283 114.089L46.146 111.408C42.9027 110.763 39.8183 109.486 37.0688 107.649C34.3193 105.812 31.9585 103.451 30.1213 100.702C28.2841 97.9526 27.0064 94.8683 26.3612 91.6251C25.716 88.3819 25.7159 85.0434 26.3609 81.8002L30.6224 60.36C31.2674 57.1167 32.5448 54.0323 34.3818 51.2828C36.2188 48.5333 38.5794 46.1725 41.3288 44.3353C44.0781 42.498 47.1625 41.2204 50.4056 40.5752C53.6488 39.9299 56.9873 39.9299 60.2305 40.5749L75.856 43.7772L75.8529 43.7741Z" fill="#FFB9EC"/>
<path d="M90.8794 98.6391L95.9098 73.3358C96.0842 72.4583 95.9547 71.5476 95.5428 70.7535C95.1308 69.9594 94.4609 69.329 93.6432 68.9662L108.435 71.9091C110.572 72.3321 111.955 74.4042 111.532 76.5411L106.499 101.845L90.8794 98.6391Z" fill="#94E986"/>
<path d="M82.1185 142.696L86.7196 119.567L102.357 122.68L97.7409 145.902C97.6401 146.409 97.4403 146.892 97.1529 147.322C96.8655 147.752 96.4962 148.121 96.066 148.409C95.6359 148.696 95.1533 148.896 94.6459 148.996C94.1384 149.097 93.6161 149.097 93.1088 148.996L77.4895 145.79C77.9968 145.892 78.5191 145.892 79.0266 145.791C79.534 145.69 80.0166 145.491 80.4467 145.203C80.8769 144.916 81.2463 144.547 81.5336 144.116C81.821 143.686 82.0208 143.204 82.1216 142.696H82.1185Z" fill="#94E986"/>
<path d="M75.8406 43.7741L112.557 51.0742C115.801 51.7188 118.886 52.996 121.636 54.8329C124.385 56.6697 126.747 59.0302 128.584 61.7797C130.422 64.5291 131.7 67.6135 132.345 70.8569C132.99 74.1002 132.991 77.4389 132.346 80.6823L118.554 150.04C117.253 156.59 113.402 162.354 107.85 166.065C102.298 169.776 95.4993 171.13 88.9494 169.828L52.2295 162.528C48.986 161.883 45.9012 160.606 43.1514 158.769C40.4015 156.932 38.0404 154.572 36.2029 151.822C34.3653 149.073 33.0874 145.988 32.442 142.745C31.7966 139.502 31.7964 136.163 32.4414 132.92L33.2968 128.624L54.1317 132.762L53.2764 137.061C53.1751 137.568 53.1749 138.09 53.2757 138.598C53.3764 139.105 53.5762 139.588 53.8635 140.018C54.1509 140.448 54.5202 140.817 54.9504 141.105C55.3806 141.392 55.8631 141.592 56.3706 141.693L93.0904 148.993C94.1149 149.196 95.1784 148.985 96.0469 148.405C96.9155 147.824 97.5182 146.923 97.7225 145.899L102.339 122.677L61.7561 114.611C58.5129 113.966 55.4284 112.688 52.6789 110.851C49.9294 109.014 47.5686 106.654 45.7314 103.904C43.8942 101.155 42.6165 98.0705 41.9713 94.8274C41.3261 91.5842 41.326 88.2457 41.971 85.0025L46.2325 63.5623C46.8771 60.3184 48.1544 57.2334 49.9915 54.4833C51.8285 51.7332 54.1893 49.3719 56.9391 47.5343C59.6888 45.6968 62.7737 44.4189 66.0174 43.7737C69.2611 43.1285 72.6001 43.1287 75.8437 43.7741H75.8406ZM106.48 101.845L111.514 76.5413C111.615 76.0337 111.615 75.5112 111.514 75.0036C111.413 74.496 111.213 74.0133 110.925 73.5831C110.638 73.1529 110.268 72.7836 109.837 72.4964C109.407 72.2092 108.924 72.0096 108.416 71.9092L71.6996 64.6091C71.1922 64.5079 70.6699 64.5077 70.1625 64.6084C69.6551 64.7092 69.1725 64.9089 68.7423 65.1963C68.3122 65.4837 67.9428 65.853 67.6555 66.2831C67.3681 66.7133 67.1683 67.1959 67.0675 67.7033L62.806 89.1436C62.7048 89.6509 62.7046 90.1732 62.8054 90.6806C62.9061 91.188 63.1059 91.6706 63.3932 92.1008C63.6806 92.531 64.0499 92.9003 64.4801 93.1877C64.9102 93.475 65.3928 93.6748 65.9002 93.7756L106.48 101.845Z" stroke="black" stroke-width="5.37607" stroke-linecap="square" stroke-linejoin="round"/>
<path d="M16.8311 129.72L17.6865 125.422L33.3089 128.624L32.4535 132.923C31.2262 139.099 32.3571 145.51 35.6232 150.894C38.8894 156.277 44.0539 160.242 50.0986 162.006L36.6162 159.325C30.0668 158.023 24.3031 154.172 20.5928 148.62C16.8824 143.068 15.5293 136.27 16.8311 129.72Z" stroke="black" stroke-width="5.37607" stroke-linecap="square" stroke-linejoin="round"/>
<path d="M75.8529 43.7741C69.303 42.4724 62.5042 43.8259 56.9522 47.5369C51.4002 51.2478 47.5497 57.0123 46.2479 63.5623L41.9833 85.0056C40.7559 91.1816 41.8868 97.5933 45.153 102.977C48.4192 108.36 53.5837 112.325 59.6283 114.089L46.146 111.408C42.9027 110.763 39.8183 109.486 37.0688 107.649C34.3193 105.812 31.9585 103.451 30.1213 100.702C28.2841 97.9526 27.0064 94.8683 26.3612 91.6251C25.716 88.3819 25.7159 85.0434 26.3609 81.8002L30.6224 60.36C31.2674 57.1167 32.5448 54.0323 34.3818 51.2828C36.2188 48.5333 38.5794 46.1725 41.3288 44.3353C44.0781 42.498 47.1625 41.2204 50.4056 40.5752C53.6488 39.9299 56.9873 39.9299 60.2305 40.5749L75.856 43.7772L75.8529 43.7741Z" stroke="black" stroke-width="5.37607" stroke-linecap="square" stroke-linejoin="round"/>
<path d="M90.8794 98.6391L95.9098 73.3358C96.0842 72.4583 95.9547 71.5476 95.5428 70.7535C95.1308 69.9594 94.4609 69.329 93.6432 68.9662L108.435 71.9091C110.572 72.3321 111.955 74.4042 111.532 76.5411L106.499 101.845L90.8794 98.6391Z" stroke="black" stroke-width="5.37607" stroke-linecap="square" stroke-linejoin="round"/>
<path d="M82.1185 142.696L86.7196 119.567L102.357 122.68L97.7409 145.902C97.6401 146.409 97.4403 146.892 97.1529 147.322C96.8655 147.752 96.4962 148.121 96.066 148.409C95.6359 148.696 95.1533 148.896 94.6459 148.996C94.1384 149.097 93.6161 149.097 93.1088 148.996L77.4895 145.79C77.9968 145.892 78.5191 145.892 79.0266 145.791C79.534 145.69 80.0166 145.491 80.4467 145.203C80.8769 144.916 81.2463 144.547 81.5336 144.116C81.821 143.686 82.0208 143.204 82.1216 142.696H82.1185Z" stroke="black" stroke-width="5.37607" stroke-linecap="square" stroke-linejoin="round"/>
<g clip-path="url(#clip0_23_105)">
<path d="M117.102 272C115.84 272 114.773 271.086 114.468 269.862C113.494 265.961 111.63 261.812 108.875 257.417C105.611 252.139 100.958 247.243 94.9167 242.729C89.662 238.758 84.4072 236.049 79.1526 234.604C77.908 234.262 77 233.159 77 231.868C77 230.603 77.8731 229.512 79.0899 229.164C84.2418 227.693 89.2049 225.305 93.9792 222C99.4653 218.181 104.049 213.597 107.729 208.25C110.985 203.487 113.22 198.776 114.435 194.117C114.753 192.896 115.827 192 117.088 192C118.364 192 119.446 192.916 119.756 194.153C120.457 196.946 121.552 199.805 123.042 202.729C124.917 206.34 127.312 209.812 130.229 213.146C133.215 216.41 136.549 219.361 140.229 222C145.039 225.409 149.928 227.804 154.898 229.186C156.117 229.524 157 230.61 157 231.875C157 233.159 156.09 234.254 154.852 234.593C151.702 235.457 148.459 236.85 145.125 238.771C141.097 241.132 137.347 243.944 133.875 247.208C130.403 250.403 127.556 253.771 125.333 257.312C122.573 261.717 120.707 265.898 119.735 269.856C119.433 271.083 118.365 272 117.102 272Z" fill="black"/>
</g>
<g clip-path="url(#clip1_23_105)">
<path d="M789.127 137C787.55 137 786.217 135.858 785.835 134.328C784.618 129.452 782.287 124.266 778.844 118.771C774.764 112.174 768.948 106.054 761.396 100.411C754.827 95.447 748.259 92.0615 741.691 90.2555C740.135 89.828 739 88.4485 739 86.8351C739 85.2533 740.091 83.8897 741.612 83.4554C748.052 81.6167 754.256 78.6315 760.224 74.5C767.082 69.7257 772.811 63.9965 777.411 57.3125C781.481 51.3583 784.275 45.4694 785.793 39.646C786.191 38.1205 787.534 37 789.111 37C790.705 37 792.057 38.1453 792.445 39.6916C793.321 43.1827 794.69 46.756 796.552 50.4115C798.896 54.9254 801.89 59.2656 805.536 63.4323C809.269 67.5122 813.436 71.2014 818.036 74.5C824.048 78.7615 830.16 81.7555 836.372 83.482C837.896 83.9054 839 85.2622 839 86.8437C839 88.449 837.862 89.817 836.314 90.2415C832.377 91.321 828.324 93.062 824.157 95.4635C819.122 98.415 814.434 101.93 810.093 106.01C805.753 110.003 802.195 114.214 799.417 118.641C795.967 124.147 793.633 129.373 792.418 134.32C792.041 135.854 790.706 137 789.127 137Z" fill="black"/>
</g>
<g clip-path="url(#clip2_23_105)">
<path d="M159.038 213C158.565 213 158.165 212.657 158.05 212.198C157.685 210.735 156.986 209.18 155.953 207.531C154.729 205.552 152.984 203.716 150.719 202.023C148.748 200.534 146.778 199.518 144.807 198.977C144.341 198.848 144 198.435 144 197.951C144 197.476 144.327 197.067 144.784 196.937C146.716 196.385 148.577 195.489 150.367 194.25C152.424 192.818 154.143 191.099 155.523 189.094C156.744 187.307 157.583 185.541 158.038 183.794C158.157 183.336 158.56 183 159.033 183C159.511 183 159.917 183.344 160.034 183.807C160.296 184.855 160.707 185.927 161.266 187.023C161.969 188.378 162.867 189.68 163.961 190.93C165.081 192.154 166.331 193.26 167.711 194.25C169.515 195.528 171.348 196.427 173.212 196.945C173.669 197.072 174 197.479 174 197.953C174 198.435 173.659 198.845 173.194 198.972C172.013 199.296 170.797 199.819 169.547 200.539C168.036 201.425 166.63 202.479 165.328 203.703C164.026 204.901 162.958 206.164 162.125 207.492C161.09 209.144 160.39 210.712 160.026 212.196C159.912 212.656 159.512 213 159.038 213Z" fill="black"/>
</g>
<g clip-path="url(#clip3_23_105)">
<path d="M182.038 245C181.565 245 181.165 244.657 181.05 244.198C180.685 242.735 179.986 241.18 178.953 239.531C177.729 237.552 175.984 235.716 173.719 234.023C171.748 232.534 169.778 231.518 167.807 230.977C167.341 230.848 167 230.435 167 229.951C167 229.476 167.327 229.067 167.784 228.937C169.716 228.385 171.577 227.489 173.367 226.25C175.424 224.818 177.143 223.099 178.523 221.094C179.744 219.307 180.583 217.541 181.038 215.794C181.157 215.336 181.56 215 182.033 215C182.511 215 182.917 215.344 183.034 215.807C183.296 216.855 183.707 217.927 184.266 219.023C184.969 220.378 185.867 221.68 186.961 222.93C188.081 224.154 189.331 225.26 190.711 226.25C192.515 227.528 194.348 228.427 196.212 228.945C196.669 229.072 197 229.479 197 229.953C197 230.435 196.659 230.845 196.194 230.972C195.013 231.296 193.797 231.819 192.547 232.539C191.036 233.425 189.63 234.479 188.328 235.703C187.026 236.901 185.958 238.164 185.125 239.492C184.09 241.144 183.39 242.712 183.026 244.196C182.912 244.656 182.512 245 182.038 245Z" fill="black"/>
</g>
<g clip-path="url(#clip4_23_105)">
<path d="M839.063 74C838.275 74 837.608 73.429 837.417 72.664C836.809 70.2258 835.644 67.6328 833.922 64.8855C831.882 61.5868 828.974 58.527 825.198 55.7057C821.914 53.2235 818.63 51.5308 815.345 50.6278C814.568 50.414 814 49.7242 814 48.9175C814 48.1266 814.546 47.4449 815.306 47.2277C818.526 46.3084 821.628 44.8158 824.612 42.75C828.041 40.3628 830.905 37.4983 833.206 34.1562C835.241 31.1791 836.638 28.2347 837.397 25.323C837.595 24.5602 838.267 24 839.055 24C839.852 24 840.528 24.5726 840.722 25.3458C841.16 27.0913 841.845 28.878 842.776 30.7057C843.948 32.9627 845.445 35.1328 847.268 37.2162C849.134 39.2561 851.218 41.1007 853.518 42.75C856.524 44.8808 859.58 46.3778 862.686 47.241C863.448 47.4527 864 48.1311 864 48.9219C864 49.7245 863.431 50.4085 862.657 50.6208C860.688 51.1605 858.662 52.031 856.578 53.2318C854.061 54.7075 851.717 56.4652 849.547 58.5052C847.377 60.5017 845.597 62.6068 844.208 64.8203C842.483 67.5733 841.317 70.1863 840.709 72.6598C840.521 73.427 839.853 74 839.063 74Z" fill="black"/>
</g>
<path d="M406.306 183.804H452.627V217.244H406.306V183.804Z" fill="#FFB9EC"/>
<path fill-rule="evenodd" clip-rule="evenodd" d="M410.345 168.703V148.495H393.024V269.738H468.076V168.703H410.345ZM452.623 183.804H406.303V217.241H452.623V183.801V183.804Z" fill="#89DCFF"/>
<path d="M424.847 154.075H482.577L468.079 168.713H410.345L424.847 154.075Z" stroke="black" stroke-width="5.37607" stroke-linejoin="round"/>
<path d="M443.965 154.075L429.466 168.713" stroke="black" stroke-width="5.37607" stroke-linejoin="round"/>
<path d="M463.08 154.075L448.578 168.713" stroke="black" stroke-width="5.37607" stroke-linejoin="round"/>
<path d="M482.571 173.916L468.073 188.553" stroke="black" stroke-width="5.37607" stroke-linejoin="round"/>
<path d="M482.571 194.482L468.073 209.12" stroke="black" stroke-width="5.37607" stroke-linejoin="round"/>
<path d="M482.571 215.052L468.073 229.689" stroke="black" stroke-width="5.37607" stroke-linejoin="round"/>
<path d="M482.571 235.618L468.073 250.255" stroke="black" stroke-width="5.37607" stroke-linejoin="round"/>
<path d="M405.37 231.446H414.634" stroke="black" stroke-width="5.37607" stroke-linecap="round" stroke-linejoin="round"/>
<path d="M405.37 243.798H414.634" stroke="black" stroke-width="5.37607" stroke-linecap="round" stroke-linejoin="round"/>
<path d="M405.37 256.15H414.634" stroke="black" stroke-width="5.37607" stroke-linecap="round" stroke-linejoin="round"/>
<path d="M424.828 231.446H434.092" stroke="black" stroke-width="5.37607" stroke-linecap="round" stroke-linejoin="round"/>
<path d="M424.828 243.798H434.092" stroke="black" stroke-width="5.37607" stroke-linecap="round" stroke-linejoin="round"/>
<path d="M424.828 256.15H434.092" stroke="black" stroke-width="5.37607" stroke-linecap="round" stroke-linejoin="round"/>
<path d="M443.356 231.446H452.62" stroke="black" stroke-width="5.37607" stroke-linecap="round" stroke-linejoin="round"/>
<path d="M443.356 243.798H452.62" stroke="black" stroke-width="5.37607" stroke-linecap="round" stroke-linejoin="round"/>
<path d="M443.356 256.15H452.62" stroke="black" stroke-width="5.37607" stroke-linecap="round" stroke-linejoin="round"/>
<path d="M410.345 148.501V168.706H468.076V269.738H393.024V148.501H410.345Z" stroke="black" stroke-width="5.37607" stroke-linejoin="round"/>
<path d="M424.847 133.864V154.069L410.345 168.706V148.498L424.847 133.864Z" stroke="black" stroke-width="5.37607" stroke-linejoin="round"/>
<path d="M410.345 148.501H393.024L407.523 133.864H424.846L410.345 148.501Z" stroke="black" stroke-width="5.37607" stroke-linejoin="round"/>
<path d="M406.306 183.804H452.627V217.244H406.306V183.804Z" stroke="black" stroke-width="5.37607" stroke-linejoin="round"/>
<path d="M482.571 154.075V255.107L468.073 269.738V168.71L482.571 154.072V154.075Z" stroke="black" stroke-width="5.37607" stroke-linejoin="round"/>
<path fill-rule="evenodd" clip-rule="evenodd" d="M699.76 160.362L649.938 239.184L599.708 213.281L613.845 185.866L638.963 198.817L673.688 143.878L699.763 160.362H699.76Z" fill="#94E986"/>
<path d="M718.236 157.879L692.164 141.398L673.694 143.875L699.769 160.358L718.239 157.879H718.236Z" fill="#FFB9AA"/>
<path d="M649.932 239.187L699.757 160.359L718.227 157.882L668.401 236.71L649.932 239.187Z" fill="#FFB9AA"/>
<path d="M613.842 185.863L638.957 198.817L644.682 189.763L632.314 183.386L613.842 185.863Z" fill="#FFCE51"/>
<path d="M699.76 160.362L649.938 239.184L599.708 213.281L613.845 185.866L638.963 198.817L673.688 143.878L699.763 160.362H699.76Z" stroke="black" stroke-width="5.37607" stroke-linejoin="round"/>
<path d="M718.236 157.879L692.164 141.398L673.694 143.875L699.769 160.358L718.239 157.879H718.236Z" stroke="black" stroke-width="5.37607" stroke-linejoin="round"/>
<path d="M649.932 239.187L699.757 160.359L718.227 157.882L668.401 236.71L649.932 239.187Z" stroke="black" stroke-width="5.37607" stroke-linejoin="round"/>
<path d="M613.842 185.863L638.957 198.817L644.682 189.763L632.314 183.386L613.842 185.863Z" stroke="black" stroke-width="5.37607" stroke-linejoin="round"/>
<path d="M895.645 235.412C872.723 248.959 842.775 243.546 826.183 221.877C808.266 198.479 812.703 164.986 836.105 147.069C859.509 129.152 892.999 133.596 910.919 156.994C929.11 180.753 923.215 220.873 924.731 249.048L912.978 258.047L895.648 235.412H895.645Z" fill="#89DCFF"/>
<path d="M869.323 242.897C846.403 256.444 816.456 251.034 799.861 229.365C781.947 205.967 786.387 172.474 809.785 154.558C814.595 150.866 820 148.022 825.766 146.149L851.622 138.821C846.034 140.694 840.796 143.481 836.12 147.069C812.719 164.986 808.279 198.479 826.195 221.877C836.861 235.807 853.049 243.021 869.338 242.795L869.323 242.897Z" fill="#FFB9EC"/>
<path d="M895.642 235.412L912.975 258.047L886.64 265.532L869.31 242.897L869.313 242.795C878.584 242.676 887.661 240.13 895.642 235.412Z" fill="#94E986"/>
<path d="M895.645 235.412C872.723 248.959 842.775 243.546 826.183 221.877C808.266 198.479 812.703 164.986 836.105 147.069C859.509 129.152 892.999 133.596 910.919 156.994C929.11 180.753 923.215 220.873 924.731 249.048L912.978 258.047L895.648 235.412H895.645Z" stroke="black" stroke-width="5.37607" stroke-linecap="square" stroke-linejoin="round"/>
<path d="M869.323 242.897C846.403 256.444 816.456 251.034 799.861 229.365C781.947 205.967 786.387 172.474 809.785 154.558C814.595 150.866 820 148.022 825.766 146.149L851.622 138.821C846.034 140.694 840.796 143.481 836.12 147.069C812.719 164.986 808.279 198.479 826.195 221.877C836.861 235.807 853.049 243.021 869.338 242.795L869.323 242.897Z" stroke="black" stroke-width="5.37607" stroke-linecap="square" stroke-linejoin="round"/>
<path d="M895.639 235.412L912.972 258.047L886.637 265.532L869.31 242.795C878.581 242.676 887.658 240.13 895.639 235.412Z" stroke="black" stroke-width="5.37607" stroke-linecap="square" stroke-linejoin="round"/>
<defs>
<clipPath id="clip0_23_105">
<rect width="80" height="80" fill="white" transform="translate(77 192)"/>
</clipPath>
<clipPath id="clip1_23_105">
<rect width="100" height="100" fill="white" transform="translate(739 37)"/>
</clipPath>
<clipPath id="clip2_23_105">
<rect width="30" height="30" fill="white" transform="translate(144 183)"/>
</clipPath>
<clipPath id="clip3_23_105">
<rect width="30" height="30" fill="white" transform="translate(167 215)"/>
</clipPath>
<clipPath id="clip4_23_105">
<rect width="50" height="50" fill="white" transform="translate(814 24)"/>
</clipPath>
</defs>
</svg>
