<svg width="497" height="888" viewBox="0 0 497 888" fill="none" xmlns="http://www.w3.org/2000/svg">
<path fill-rule="evenodd" clip-rule="evenodd" d="M49.8638 39.5778C49.8638 34.2649 51.9743 29.1697 55.731 25.4129C59.4878 21.6562 64.583 19.5457 69.8959 19.5457H114.805C119.539 19.5456 124.12 21.2218 127.736 24.277C131.352 27.3322 133.769 31.5691 134.559 36.2365H147.347C150.855 36.2365 154.328 36.9274 157.569 38.2698C160.809 39.6123 163.754 41.5799 166.234 44.0603C168.714 46.5407 170.681 49.4854 172.023 52.7262C173.365 55.967 174.056 59.4404 174.055 62.948V70.6249C174.055 77.7084 171.241 84.5018 166.233 89.5106C161.224 94.5194 154.43 97.3333 147.347 97.3333H129.412C125.72 103.918 120.339 109.399 113.825 113.213C107.311 117.027 99.8977 119.036 92.349 119.033C68.8861 119.033 49.8638 100.011 49.8638 76.5477V39.5778ZM134.834 76.5477V56.2655H143.508C146.266 56.3128 148.895 57.4415 150.829 59.4086C152.763 61.3756 153.846 64.0235 153.846 66.7818C153.846 69.5401 152.763 72.188 150.829 74.1551C148.895 76.1221 146.266 77.2509 143.508 77.2981H134.831L134.834 76.5446V76.5477Z" fill="#FFB9EC"/>
<path d="M97.5677 102.324C97.5677 100.912 97.0068 99.5575 96.0084 98.5591C95.01 97.5607 93.6559 96.9998 92.2439 96.9998C90.832 96.9998 89.4779 97.5607 88.4795 98.5591C87.4811 99.5575 86.9202 100.912 86.9202 102.324" stroke="black" stroke-width="5.37607" stroke-linecap="round" stroke-linejoin="round"/>
<path d="M97.5677 78.9502C97.5677 78.2511 97.43 77.5588 97.1625 76.9129C96.8949 76.267 96.5028 75.6801 96.0084 75.1858C95.5141 74.6914 94.9272 74.2993 94.2813 74.0317C93.6354 73.7642 92.9431 73.6265 92.2439 73.6265C91.5448 73.6265 90.8525 73.7642 90.2066 74.0317C89.5607 74.2993 88.9738 74.6914 88.4795 75.1858C87.9851 75.6801 87.593 76.267 87.3254 76.9129C87.0579 77.5588 86.9202 78.2511 86.9202 78.9502" stroke="black" stroke-width="5.37607" stroke-linecap="round" stroke-linejoin="round"/>
<path d="M79.5338 90.6354C79.5338 89.9363 79.3961 89.244 79.1285 88.5981C78.861 87.9522 78.4688 87.3653 77.9745 86.8709C77.4801 86.3766 76.8932 85.9844 76.2473 85.7169C75.6014 85.4494 74.9091 85.3116 74.21 85.3116C73.5109 85.3116 72.8186 85.4494 72.1727 85.7169C71.5268 85.9844 70.9399 86.3766 70.4455 86.8709C69.9512 87.3653 69.559 87.9522 69.2915 88.5981C69.0239 89.244 68.8862 89.9363 68.8862 90.6354" stroke="black" stroke-width="5.37607" stroke-linecap="round" stroke-linejoin="round"/>
<path d="M79.5338 67.2682C79.5338 66.5691 79.3961 65.8768 79.1285 65.2309C78.861 64.585 78.4688 63.9981 77.9745 63.5038C77.4801 63.0094 76.8932 62.6173 76.2473 62.3497C75.6014 62.0822 74.9091 61.9445 74.21 61.9445C73.5109 61.9445 72.8186 62.0822 72.1727 62.3497C71.5268 62.6173 70.9399 63.0094 70.4455 63.5038C69.9512 63.9981 69.559 64.585 69.2915 65.2309C69.0239 65.8768 68.8862 66.5691 68.8862 67.2682" stroke="black" stroke-width="5.37607" stroke-linecap="round" stroke-linejoin="round"/>
<path d="M115.59 90.6354C115.59 89.9363 115.452 89.244 115.184 88.5981C114.917 87.9522 114.525 87.3653 114.03 86.8709C113.536 86.3766 112.949 85.9844 112.303 85.7169C111.657 85.4494 110.965 85.3116 110.266 85.3116C109.567 85.3116 108.875 85.4494 108.229 85.7169C107.583 85.9844 106.996 86.3766 106.501 86.8709C106.007 87.3653 105.615 87.9522 105.347 88.5981C105.08 89.244 104.942 89.9363 104.942 90.6354" stroke="black" stroke-width="5.37607" stroke-linecap="round" stroke-linejoin="round"/>
<path d="M115.59 67.2682C115.59 66.5691 115.452 65.8768 115.184 65.2309C114.917 64.585 114.525 63.9981 114.03 63.5038C113.536 63.0094 112.949 62.6173 112.303 62.3497C111.657 62.0822 110.965 61.9445 110.266 61.9445C109.567 61.9445 108.875 62.0822 108.229 62.3497C107.583 62.6173 106.996 63.0094 106.501 63.5038C106.007 63.9981 105.615 64.585 105.347 65.2309C105.08 65.8768 104.942 66.5691 104.942 67.2682" stroke="black" stroke-width="5.37607" stroke-linecap="round" stroke-linejoin="round"/>
<path d="M64.8933 41.7456C64.8933 44.2689 67.7775 46.6889 72.9114 48.4732C78.0453 50.2574 85.0083 51.2598 92.2688 51.2598C99.5292 51.2598 106.492 50.2574 111.626 48.4732C116.76 46.6889 119.644 44.2689 119.644 41.7456C119.644 39.2222 116.76 36.8022 111.626 35.018C106.492 33.2337 99.5292 32.2313 92.2688 32.2313C85.0083 32.2313 78.0453 33.2337 72.9114 35.018C67.7775 36.8022 64.8933 39.2222 64.8933 41.7456Z" fill="#E38414"/>
<path d="M49.8638 39.5778C49.8638 34.2649 51.9743 29.1697 55.731 25.4129C59.4878 21.6562 64.583 19.5457 69.8959 19.5457H114.805C119.539 19.5456 124.12 21.2218 127.736 24.277C131.352 27.3322 133.769 31.5691 134.559 36.2365H147.347C150.855 36.2365 154.328 36.9274 157.569 38.2698C160.809 39.6123 163.754 41.5799 166.234 44.0603C168.714 46.5407 170.681 49.4854 172.023 52.7262C173.365 55.967 174.056 59.4404 174.055 62.948V70.6249C174.055 77.7084 171.241 84.5018 166.233 89.5106C161.224 94.5194 154.43 97.3333 147.347 97.3333H129.412C125.72 103.918 120.339 109.399 113.825 113.213C107.311 117.027 99.8977 119.036 92.349 119.033C68.8861 119.033 49.8638 100.011 49.8638 76.5477V39.5778Z" stroke="black" stroke-width="5.37607" stroke-linecap="round"/>
<path d="M92.3396 119.033C108.252 119.033 122.124 110.281 129.402 97.3302L141.087 112.354C133.809 125.305 119.937 134.056 104.025 134.056C97.7066 134.062 91.4669 132.656 85.7618 129.941C80.0568 127.226 75.0306 123.27 71.0507 118.363L60.2734 104.417C64.2572 109.011 69.1828 112.694 74.7156 115.216C80.2485 117.737 86.2591 119.039 92.3396 119.033Z" stroke="black" stroke-width="5.37607" stroke-linecap="round" stroke-linejoin="round"/>
<path d="M174.049 62.9449C174.058 57.3265 172.286 51.8498 168.988 47.3009L181.109 62.9449C184.131 67.3715 185.744 72.6083 185.738 77.9682V85.6481C185.738 89.1558 185.047 92.6291 183.704 95.8697C182.362 99.1104 180.394 102.055 177.914 104.535C175.433 107.015 172.489 108.982 169.248 110.324C166.007 111.666 162.534 112.357 159.026 112.357H141.094L129.409 97.3333H147.344C150.852 97.3333 154.325 96.6423 157.566 95.2999C160.806 93.9575 163.751 91.9899 166.231 89.5095C168.711 87.029 170.678 84.0844 172.02 80.8436C173.362 77.6028 174.053 74.1294 174.052 70.6218V62.9449H174.049Z" stroke="black" stroke-width="5.37607" stroke-linecap="round" stroke-linejoin="round"/>
<path d="M95.7366 118.9L107.36 133.939" stroke="black" stroke-width="5.37607" stroke-linecap="round"/>
<path d="M116.328 111.615L127.97 126.682" stroke="black" stroke-width="5.37607" stroke-linecap="round"/>
<path d="M157.377 95.3569L169.019 110.414" stroke="black" stroke-width="5.37607" stroke-linecap="round"/>
<path d="M172.891 78.4283L184.548 93.5165" stroke="black" stroke-width="5.37607" stroke-linecap="round"/>
<path d="M64.8933 41.7456C64.8933 44.2689 67.7775 46.6889 72.9114 48.4732C78.0453 50.2574 85.0083 51.2598 92.2688 51.2598C99.5292 51.2598 106.492 50.2574 111.626 48.4732C116.76 46.6889 119.644 44.2689 119.644 41.7456C119.644 39.2222 116.76 36.8022 111.626 35.018C106.492 33.2337 99.5292 32.2313 92.2688 32.2313C85.0083 32.2313 78.0453 33.2337 72.9114 35.018C67.7775 36.8022 64.8933 39.2222 64.8933 41.7456Z" stroke="black" stroke-width="5.37607"/>
<path d="M134.84 56.2655V76.5446L134.834 77.2981H143.512C144.892 77.2981 146.26 77.0262 147.535 76.4977C148.811 75.9693 149.97 75.1948 150.947 74.2184C151.923 73.242 152.698 72.0829 153.226 70.8072C153.754 69.5315 154.026 68.1642 154.026 66.7834C154.026 65.4025 153.754 64.0352 153.226 62.7595C152.698 61.4838 151.923 60.3247 150.947 59.3483C149.97 58.3719 148.811 57.5974 147.535 57.069C146.26 56.5406 144.892 56.2686 143.512 56.2686H134.84V56.2655Z" stroke="black" stroke-width="5.37607" stroke-linecap="round"/>
<path fill-rule="evenodd" clip-rule="evenodd" d="M402.92 91.4061L303.164 64.676L283.864 136.698L299.663 140.929L315.047 125.615L362.152 138.239L367.822 159.195L383.623 163.425L402.924 91.4061H402.92Z" fill="#FFB9EC"/>
<path d="M319.976 54.1736L419.738 80.8975L402.923 91.4061L303.164 64.6791L319.979 54.1705L319.976 54.1736Z" fill="#94E986"/>
<path d="M299.644 140.944L315.044 125.618L362.152 138.239L367.825 159.213L299.644 140.944Z" fill="#94E986"/>
<path d="M311.622 96.7267C311.154 98.4078 311.023 100.165 311.238 101.897C311.452 103.629 312.008 105.301 312.873 106.817C313.738 108.332 314.895 109.662 316.277 110.728C317.658 111.794 319.238 112.575 320.923 113.027C322.609 113.479 324.367 113.592 326.097 113.36C327.827 113.128 329.493 112.555 331 111.675C332.507 110.795 333.825 109.625 334.877 108.233C335.929 106.841 336.695 105.254 337.13 103.564C337.598 101.883 337.729 100.125 337.514 98.3934C337.3 96.6616 336.744 94.9894 335.879 93.4737C335.014 91.9579 333.857 90.6286 332.476 89.5627C331.094 88.4967 329.515 87.7153 327.829 87.2634C326.143 86.8116 324.385 86.6984 322.655 86.9304C320.925 87.1624 319.259 87.7349 317.752 88.6149C316.245 89.4949 314.927 90.6649 313.875 92.0572C312.823 93.4496 312.057 95.0366 311.622 96.7267Z" fill="#89DCFF"/>
<path d="M354.07 108.109C353.602 109.79 353.471 111.548 353.686 113.279C353.9 115.011 354.456 116.684 355.321 118.199C356.186 119.715 357.343 121.044 358.725 122.11C360.106 123.176 361.686 123.958 363.371 124.409C365.057 124.861 366.815 124.974 368.545 124.743C370.275 124.511 371.941 123.938 373.448 123.058C374.955 122.178 376.273 121.008 377.325 119.616C378.377 118.223 379.143 116.636 379.578 114.946C380.046 113.265 380.177 111.508 379.962 109.776C379.748 108.044 379.192 106.372 378.327 104.856C377.462 103.34 376.305 102.011 374.924 100.945C373.542 99.8793 371.963 99.0978 370.277 98.646C368.591 98.1942 366.833 98.081 365.103 98.313C363.373 98.5449 361.707 99.1175 360.2 99.9974C358.693 100.877 357.375 102.047 356.323 103.44C355.271 104.832 354.505 106.419 354.07 108.109Z" fill="#89DCFF"/>
<path d="M322.168 113.174C325.393 113.724 328.707 113.058 331.469 111.304C334.23 109.55 336.243 106.833 337.115 103.68C337.988 100.527 337.659 97.1627 336.193 94.2383C334.727 91.3139 332.227 89.038 329.178 87.8517L368.81 98.4745C365.598 97.9861 362.319 98.6988 359.6 100.476C356.88 102.254 354.912 104.971 354.07 108.109C352.181 115.156 356.575 122.592 363.656 124.346L322.168 113.174Z" fill="#94E986"/>
<path d="M419.738 80.8944L400.437 152.917L383.623 163.425L402.923 91.403L419.735 80.8944H419.738Z" fill="#94E986"/>
<path d="M303.164 64.6729L402.923 91.406L383.623 163.428L283.867 136.698L303.164 64.6729Z" stroke="black" stroke-width="5.37607" stroke-linejoin="round"/>
<path d="M319.976 54.1736L419.738 80.8975L402.923 91.4061L303.164 64.6791L319.979 54.1705L319.976 54.1736Z" stroke="black" stroke-width="5.37607" stroke-linejoin="round"/>
<path d="M363.653 124.343L322.153 113.226" stroke="black" stroke-width="5.37607" stroke-linecap="round" stroke-linejoin="round"/>
<path d="M299.644 140.944L315.044 125.618L362.152 138.239L367.825 159.213L299.644 140.944Z" stroke="black" stroke-width="5.37607" stroke-linecap="round" stroke-linejoin="round"/>
<path d="M311.622 96.7267C311.154 98.4078 311.023 100.165 311.238 101.897C311.452 103.629 312.008 105.301 312.873 106.817C313.738 108.332 314.895 109.662 316.277 110.728C317.658 111.794 319.238 112.575 320.923 113.027C322.609 113.479 324.367 113.592 326.097 113.36C327.827 113.128 329.493 112.555 331 111.675C332.507 110.795 333.825 109.625 334.877 108.233C335.929 106.841 336.695 105.254 337.13 103.564C337.598 101.883 337.729 100.125 337.514 98.3934C337.3 96.6616 336.744 94.9894 335.879 93.4737C335.014 91.9579 333.857 90.6286 332.476 89.5627C331.094 88.4967 329.515 87.7153 327.829 87.2634C326.143 86.8116 324.385 86.6984 322.655 86.9304C320.925 87.1624 319.259 87.7349 317.752 88.6149C316.245 89.4949 314.927 90.6649 313.875 92.0572C312.823 93.4496 312.057 95.0366 311.622 96.7267Z" stroke="black" stroke-width="5.37607" stroke-linejoin="round"/>
<path d="M354.07 108.109C353.602 109.79 353.471 111.548 353.686 113.279C353.9 115.011 354.456 116.684 355.321 118.199C356.186 119.715 357.343 121.044 358.725 122.11C360.106 123.176 361.686 123.958 363.371 124.409C365.057 124.861 366.815 124.974 368.545 124.743C370.275 124.511 371.941 123.938 373.448 123.058C374.955 122.178 376.273 121.008 377.325 119.616C378.377 118.223 379.143 116.636 379.578 114.946C380.046 113.265 380.177 111.508 379.962 109.776C379.748 108.044 379.192 106.372 378.327 104.856C377.462 103.34 376.305 102.011 374.924 100.945C373.542 99.8793 371.963 99.0978 370.277 98.646C368.591 98.1942 366.833 98.081 365.103 98.313C363.373 98.5449 361.707 99.1175 360.2 99.9974C358.693 100.877 357.375 102.047 356.323 103.44C355.271 104.832 354.505 106.419 354.07 108.109Z" stroke="black" stroke-width="5.37607" stroke-linejoin="round"/>
<path d="M419.738 80.8944L400.437 152.917L383.623 163.425L402.923 91.403L419.735 80.8944H419.738Z" stroke="black" stroke-width="5.37607" stroke-linejoin="round"/>
<path d="M370.468 98.9162L328.968 87.7961" stroke="black" stroke-width="5.37607" stroke-linecap="round" stroke-linejoin="round"/>
<path fill-rule="evenodd" clip-rule="evenodd" d="M75.8406 700.774L112.557 708.074C115.801 708.719 118.886 709.996 121.636 711.833C124.385 713.67 126.747 716.03 128.584 718.78C130.422 721.529 131.7 724.613 132.345 727.857C132.99 731.1 132.991 734.439 132.346 737.682L118.554 807.04C117.253 813.59 113.402 819.354 107.85 823.065C102.298 826.776 95.4993 828.129 88.9494 826.828L52.2295 819.528C48.986 818.883 45.9012 817.606 43.1514 815.769C40.4015 813.932 38.0404 811.572 36.2029 808.822C34.3653 806.073 33.0874 802.988 32.442 799.745C31.7966 796.502 31.7964 793.163 32.4414 789.92L33.2968 785.624L54.1317 789.762L53.2764 794.061C53.1751 794.568 53.1749 795.09 53.2757 795.598C53.3764 796.105 53.5762 796.588 53.8635 797.018C54.1509 797.448 54.5202 797.817 54.9504 798.105C55.3806 798.392 55.8631 798.592 56.3706 798.693L93.0904 805.993C94.1149 806.196 95.1784 805.985 96.0469 805.404C96.9155 804.824 97.5182 803.923 97.7225 802.899L102.339 779.676L61.7561 771.611C58.5129 770.966 55.4284 769.688 52.6789 767.851C49.9294 766.014 47.5686 763.654 45.7314 760.904C43.8942 758.155 42.6165 755.07 41.9713 751.827C41.3261 748.584 41.326 745.246 41.971 742.002L46.2325 720.562C46.8771 717.318 48.1544 714.233 49.9915 711.483C51.8285 708.733 54.1893 706.372 56.9391 704.534C59.6888 702.697 62.7737 701.419 66.0174 700.774C69.2611 700.128 72.6001 700.129 75.8437 700.774H75.8406ZM106.48 758.845L111.514 733.541C111.615 733.034 111.615 732.511 111.514 732.004C111.413 731.496 111.213 731.013 110.925 730.583C110.638 730.153 110.268 729.784 109.837 729.496C109.407 729.209 108.924 729.01 108.416 728.909L71.6996 721.609C71.1922 721.508 70.6699 721.508 70.1625 721.608C69.6551 721.709 69.1725 721.909 68.7423 722.196C68.3122 722.484 67.9428 722.853 67.6555 723.283C67.3681 723.713 67.1683 724.196 67.0675 724.703L62.806 746.143C62.7048 746.651 62.7046 747.173 62.8054 747.681C62.9061 748.188 63.1059 748.671 63.3932 749.101C63.6806 749.531 64.0499 749.9 64.4801 750.188C64.9102 750.475 65.3928 750.675 65.9002 750.776L106.48 758.845Z" fill="#89DCFF"/>
<path d="M16.8311 786.72L17.6865 782.422L33.3089 785.624L32.4535 789.923C31.2262 796.099 32.3571 802.51 35.6232 807.894C38.8894 813.277 44.0539 817.242 50.0986 819.006L36.6162 816.325C30.0668 815.023 24.3031 811.172 20.5928 805.62C16.8824 800.068 15.5293 793.27 16.8311 786.72Z" fill="#FFB9EC"/>
<path d="M75.8529 700.774C69.303 699.472 62.5042 700.826 56.9522 704.537C51.4002 708.248 47.5497 714.012 46.2479 720.562L41.9833 742.006C40.7559 748.182 41.8868 754.593 45.153 759.977C48.4192 765.36 53.5837 769.325 59.6283 771.089L46.146 768.408C42.9027 767.763 39.8183 766.486 37.0688 764.649C34.3193 762.812 31.9585 760.451 30.1213 757.702C28.2841 754.953 27.0064 751.868 26.3612 748.625C25.716 745.382 25.7159 742.043 26.3609 738.8L30.6224 717.36C31.2674 714.117 32.5448 711.032 34.3818 708.283C36.2188 705.533 38.5794 703.172 41.3288 701.335C44.0781 699.498 47.1625 698.22 50.4056 697.575C53.6488 696.93 56.9873 696.93 60.2305 697.575L75.856 700.777L75.8529 700.774Z" fill="#FFB9EC"/>
<path d="M90.8794 755.639L95.9098 730.336C96.0842 729.458 95.9547 728.548 95.5428 727.754C95.1308 726.959 94.4609 726.329 93.6432 725.966L108.435 728.909C110.572 729.332 111.955 731.404 111.532 733.541L106.499 758.845L90.8794 755.639Z" fill="#94E986"/>
<path d="M82.1185 799.696L86.7196 776.567L102.357 779.68L97.7409 802.902C97.6401 803.409 97.4403 803.892 97.1529 804.322C96.8655 804.752 96.4962 805.121 96.066 805.409C95.6359 805.696 95.1533 805.896 94.6459 805.997C94.1384 806.097 93.6161 806.097 93.1088 805.996L77.4895 802.79C77.9968 802.892 78.5191 802.892 79.0266 802.791C79.534 802.69 80.0166 802.491 80.4467 802.203C80.8769 801.916 81.2463 801.547 81.5336 801.116C81.821 800.686 82.0208 800.204 82.1216 799.696H82.1185Z" fill="#94E986"/>
<path d="M75.8406 700.774L112.557 708.074C115.801 708.719 118.886 709.996 121.636 711.833C124.385 713.67 126.747 716.03 128.584 718.78C130.422 721.529 131.7 724.613 132.345 727.857C132.99 731.1 132.991 734.439 132.346 737.682L118.554 807.04C117.253 813.59 113.402 819.354 107.85 823.065C102.298 826.776 95.4993 828.129 88.9494 826.828L52.2295 819.528C48.986 818.883 45.9012 817.606 43.1514 815.769C40.4015 813.932 38.0404 811.572 36.2029 808.822C34.3653 806.073 33.0874 802.988 32.442 799.745C31.7966 796.502 31.7964 793.163 32.4414 789.92L33.2968 785.624L54.1317 789.762L53.2764 794.061C53.1751 794.568 53.1749 795.09 53.2757 795.598C53.3764 796.105 53.5762 796.588 53.8635 797.018C54.1509 797.448 54.5202 797.817 54.9504 798.105C55.3806 798.392 55.8631 798.592 56.3706 798.693L93.0904 805.993C94.1149 806.196 95.1784 805.985 96.0469 805.404C96.9155 804.824 97.5182 803.923 97.7225 802.899L102.339 779.676L61.7561 771.611C58.5129 770.966 55.4284 769.688 52.6789 767.851C49.9294 766.014 47.5686 763.654 45.7314 760.904C43.8942 758.155 42.6165 755.07 41.9713 751.827C41.3261 748.584 41.326 745.246 41.971 742.002L46.2325 720.562C46.8771 717.318 48.1544 714.233 49.9915 711.483C51.8285 708.733 54.1893 706.372 56.9391 704.534C59.6888 702.697 62.7737 701.419 66.0174 700.774C69.2611 700.128 72.6001 700.129 75.8437 700.774H75.8406ZM106.48 758.845L111.514 733.541C111.615 733.034 111.615 732.511 111.514 732.004C111.413 731.496 111.213 731.013 110.925 730.583C110.638 730.153 110.268 729.784 109.837 729.496C109.407 729.209 108.924 729.01 108.416 728.909L71.6996 721.609C71.1922 721.508 70.6699 721.508 70.1625 721.608C69.6551 721.709 69.1725 721.909 68.7423 722.196C68.3122 722.484 67.9428 722.853 67.6555 723.283C67.3681 723.713 67.1683 724.196 67.0675 724.703L62.806 746.143C62.7048 746.651 62.7046 747.173 62.8054 747.681C62.9061 748.188 63.1059 748.671 63.3932 749.101C63.6806 749.531 64.0499 749.9 64.4801 750.188C64.9102 750.475 65.3928 750.675 65.9002 750.776L106.48 758.845Z" stroke="black" stroke-width="5.37607" stroke-linecap="square" stroke-linejoin="round"/>
<path d="M16.8311 786.72L17.6865 782.422L33.3089 785.624L32.4535 789.923C31.2262 796.099 32.3571 802.51 35.6232 807.894C38.8894 813.277 44.0539 817.242 50.0986 819.006L36.6162 816.325C30.0668 815.023 24.3031 811.172 20.5928 805.62C16.8824 800.068 15.5293 793.27 16.8311 786.72Z" stroke="black" stroke-width="5.37607" stroke-linecap="square" stroke-linejoin="round"/>
<path d="M75.8529 700.774C69.303 699.472 62.5042 700.826 56.9522 704.537C51.4002 708.248 47.5497 714.012 46.2479 720.562L41.9833 742.006C40.7559 748.182 41.8868 754.593 45.153 759.977C48.4192 765.36 53.5837 769.325 59.6283 771.089L46.146 768.408C42.9027 767.763 39.8183 766.486 37.0688 764.649C34.3193 762.812 31.9585 760.451 30.1213 757.702C28.2841 754.953 27.0064 751.868 26.3612 748.625C25.716 745.382 25.7159 742.043 26.3609 738.8L30.6224 717.36C31.2674 714.117 32.5448 711.032 34.3818 708.283C36.2188 705.533 38.5794 703.172 41.3288 701.335C44.0781 699.498 47.1625 698.22 50.4056 697.575C53.6488 696.93 56.9873 696.93 60.2305 697.575L75.856 700.777L75.8529 700.774Z" stroke="black" stroke-width="5.37607" stroke-linecap="square" stroke-linejoin="round"/>
<path d="M90.8794 755.639L95.9098 730.336C96.0842 729.458 95.9547 728.548 95.5428 727.754C95.1308 726.959 94.4609 726.329 93.6432 725.966L108.435 728.909C110.572 729.332 111.955 731.404 111.532 733.541L106.499 758.845L90.8794 755.639Z" stroke="black" stroke-width="5.37607" stroke-linecap="square" stroke-linejoin="round"/>
<path d="M82.1185 799.696L86.7196 776.567L102.357 779.68L97.7409 802.902C97.6401 803.409 97.4403 803.892 97.1529 804.322C96.8655 804.752 96.4962 805.121 96.066 805.409C95.6359 805.696 95.1533 805.896 94.6459 805.997C94.1384 806.097 93.6161 806.097 93.1088 805.996L77.4895 802.79C77.9968 802.892 78.5191 802.892 79.0266 802.791C79.534 802.69 80.0166 802.491 80.4467 802.203C80.8769 801.916 81.2463 801.547 81.5336 801.116C81.821 800.686 82.0208 800.204 82.1216 799.696H82.1185Z" stroke="black" stroke-width="5.37607" stroke-linecap="square" stroke-linejoin="round"/>
<g clip-path="url(#clip0_18_163)">
<path d="M94.127 478C92.5499 478 91.2168 476.858 90.8349 475.328C89.6176 470.452 87.2872 465.266 83.8438 459.771C79.7639 453.174 73.9479 447.054 66.3958 441.411C59.8274 436.447 53.259 433.062 46.6907 431.256C45.135 430.828 44 429.448 44 427.835C44 426.253 45.0914 424.89 46.6124 424.455C53.0523 422.617 59.2561 419.632 65.2239 415.5C72.0816 410.726 77.8107 404.997 82.4114 398.312C86.4814 392.358 89.2754 386.469 90.7932 380.646C91.1908 379.12 92.5338 378 94.1105 378C95.7045 378 97.057 379.145 97.445 380.692C98.321 384.183 99.69 387.756 101.552 391.411C103.896 395.925 106.89 400.266 110.536 404.432C114.269 408.512 118.436 412.201 123.036 415.5C129.048 419.762 135.16 422.756 141.372 424.482C142.896 424.905 144 426.262 144 427.844C144 429.449 142.862 430.817 141.314 431.242C137.377 432.321 133.324 434.062 129.157 436.464C124.122 439.415 119.434 442.93 115.093 447.01C110.753 451.003 107.195 455.214 104.417 459.641C100.967 465.147 98.6335 470.373 97.4185 475.32C97.0415 476.854 95.7065 478 94.127 478Z" fill="black"/>
</g>
<g clip-path="url(#clip1_18_163)">
<path d="M447.127 827C445.55 827 444.217 825.858 443.835 824.328C442.618 819.452 440.287 814.266 436.844 808.771C432.764 802.174 426.948 796.054 419.396 790.411C412.827 785.447 406.259 782.062 399.691 780.256C398.135 779.828 397 778.448 397 776.835C397 775.253 398.091 773.89 399.612 773.455C406.052 771.617 412.256 768.632 418.224 764.5C425.082 759.726 430.811 753.997 435.411 747.312C439.481 741.358 442.275 735.469 443.793 729.646C444.191 728.12 445.534 727 447.111 727C448.705 727 450.057 728.145 450.445 729.692C451.321 733.183 452.69 736.756 454.552 740.411C456.896 744.925 459.89 749.266 463.536 753.432C467.269 757.512 471.436 761.201 476.036 764.5C482.048 768.762 488.16 771.756 494.372 773.482C495.896 773.905 497 775.262 497 776.844C497 778.449 495.862 779.817 494.314 780.242C490.377 781.321 486.324 783.062 482.157 785.464C477.122 788.415 472.434 791.93 468.093 796.01C463.753 800.003 460.195 804.214 457.417 808.641C453.967 814.147 451.633 819.373 450.418 824.32C450.041 825.854 448.706 827 447.127 827Z" fill="black"/>
</g>
<g clip-path="url(#clip2_18_163)">
<path d="M149.063 387C148.275 387 147.608 386.429 147.417 385.664C146.809 383.226 145.644 380.633 143.922 377.886C141.882 374.587 138.974 371.527 135.198 368.706C131.914 366.223 128.63 364.531 125.345 363.628C124.568 363.414 124 362.724 124 361.918C124 361.127 124.546 360.445 125.306 360.228C128.526 359.308 131.628 357.816 134.612 355.75C138.041 353.363 140.905 350.498 143.206 347.156C145.241 344.179 146.638 341.235 147.397 338.323C147.595 337.56 148.267 337 149.055 337C149.852 337 150.528 337.573 150.722 338.346C151.16 340.091 151.845 341.878 152.776 343.706C153.948 345.963 155.445 348.133 157.268 350.216C159.134 352.256 161.218 354.101 163.518 355.75C166.524 357.881 169.58 359.378 172.686 360.241C173.448 360.453 174 361.131 174 361.922C174 362.725 173.431 363.409 172.657 363.621C170.688 364.161 168.662 365.031 166.578 366.232C164.061 367.708 161.717 369.465 159.547 371.505C157.377 373.502 155.597 375.607 154.208 377.82C152.483 380.573 151.317 383.186 150.709 385.66C150.521 386.427 149.853 387 149.063 387Z" fill="black"/>
</g>
<g clip-path="url(#clip3_18_163)">
<path d="M472.063 726C471.275 726 470.608 725.429 470.417 724.664C469.809 722.226 468.644 719.633 466.922 716.886C464.882 713.587 461.974 710.527 458.198 707.706C454.914 705.223 451.63 703.531 448.345 702.628C447.568 702.414 447 701.724 447 700.918C447 700.127 447.546 699.445 448.306 699.228C451.526 698.308 454.628 696.816 457.612 694.75C461.041 692.363 463.905 689.498 466.206 686.156C468.241 683.179 469.638 680.235 470.397 677.323C470.595 676.56 471.267 676 472.055 676C472.852 676 473.528 676.573 473.722 677.346C474.16 679.091 474.845 680.878 475.776 682.706C476.948 684.963 478.445 687.133 480.268 689.216C482.134 691.256 484.218 693.101 486.518 694.75C489.524 696.881 492.58 698.378 495.686 699.241C496.448 699.453 497 700.131 497 700.922C497 701.725 496.431 702.409 495.657 702.621C493.688 703.161 491.662 704.031 489.578 705.232C487.061 706.708 484.717 708.465 482.547 710.505C480.377 712.502 478.597 714.607 477.208 716.82C475.483 719.573 474.317 722.186 473.709 724.66C473.521 725.427 472.853 726 472.063 726Z" fill="black"/>
</g>
<path d="M226.306 555.804H272.627V589.244H226.306V555.804Z" fill="#FFB9EC"/>
<path fill-rule="evenodd" clip-rule="evenodd" d="M230.345 540.703V520.495H213.024V641.738H288.076V540.703H230.345ZM272.623 555.804H226.303V589.241H272.623V555.801V555.804Z" fill="#89DCFF"/>
<path d="M244.847 526.075H302.577L288.079 540.713H230.345L244.847 526.075Z" stroke="black" stroke-width="5.37607" stroke-linejoin="round"/>
<path d="M263.965 526.075L249.466 540.713" stroke="black" stroke-width="5.37607" stroke-linejoin="round"/>
<path d="M283.08 526.075L268.578 540.713" stroke="black" stroke-width="5.37607" stroke-linejoin="round"/>
<path d="M302.571 545.916L288.073 560.553" stroke="black" stroke-width="5.37607" stroke-linejoin="round"/>
<path d="M302.571 566.482L288.073 581.12" stroke="black" stroke-width="5.37607" stroke-linejoin="round"/>
<path d="M302.571 587.052L288.073 601.689" stroke="black" stroke-width="5.37607" stroke-linejoin="round"/>
<path d="M302.571 607.618L288.073 622.255" stroke="black" stroke-width="5.37607" stroke-linejoin="round"/>
<path d="M225.37 603.446H234.634" stroke="black" stroke-width="5.37607" stroke-linecap="round" stroke-linejoin="round"/>
<path d="M225.37 615.798H234.634" stroke="black" stroke-width="5.37607" stroke-linecap="round" stroke-linejoin="round"/>
<path d="M225.37 628.15H234.634" stroke="black" stroke-width="5.37607" stroke-linecap="round" stroke-linejoin="round"/>
<path d="M244.828 603.446H254.092" stroke="black" stroke-width="5.37607" stroke-linecap="round" stroke-linejoin="round"/>
<path d="M244.828 615.798H254.092" stroke="black" stroke-width="5.37607" stroke-linecap="round" stroke-linejoin="round"/>
<path d="M244.828 628.15H254.092" stroke="black" stroke-width="5.37607" stroke-linecap="round" stroke-linejoin="round"/>
<path d="M263.356 603.446H272.62" stroke="black" stroke-width="5.37607" stroke-linecap="round" stroke-linejoin="round"/>
<path d="M263.356 615.798H272.62" stroke="black" stroke-width="5.37607" stroke-linecap="round" stroke-linejoin="round"/>
<path d="M263.356 628.15H272.62" stroke="black" stroke-width="5.37607" stroke-linecap="round" stroke-linejoin="round"/>
<path d="M230.345 520.501V540.706H288.076V641.738H213.024V520.501H230.345Z" stroke="black" stroke-width="5.37607" stroke-linejoin="round"/>
<path d="M244.847 505.864V526.069L230.345 540.706V520.498L244.847 505.864Z" stroke="black" stroke-width="5.37607" stroke-linejoin="round"/>
<path d="M230.345 520.501H213.024L227.523 505.864H244.846L230.345 520.501Z" stroke="black" stroke-width="5.37607" stroke-linejoin="round"/>
<path d="M226.306 555.804H272.627V589.244H226.306V555.804Z" stroke="black" stroke-width="5.37607" stroke-linejoin="round"/>
<path d="M302.571 526.075V627.107L288.073 641.738V540.71L302.571 526.072V526.075Z" stroke="black" stroke-width="5.37607" stroke-linejoin="round"/>
<line x1="112.5" y1="345.005" x2="112.5" y2="154.995" stroke="black" stroke-dasharray="4 4"/>
<line x1="123.5" y1="358" x2="123.5" y2="214" stroke="black" stroke-dasharray="4 4"/>
<line x1="342.5" y1="539" x2="342.5" y2="218" stroke="black" stroke-dasharray="4 4"/>
<path fill-rule="evenodd" clip-rule="evenodd" d="M384.76 305.362L334.938 384.184L284.708 358.281L298.845 330.866L323.963 343.817L358.688 288.878L384.763 305.362H384.76Z" fill="#94E986"/>
<path d="M403.236 302.879L377.164 286.398L358.694 288.875L384.769 305.358L403.239 302.879H403.236Z" fill="#FFB9AA"/>
<path d="M334.932 384.187L384.757 305.359L403.227 302.882L353.401 381.71L334.932 384.187Z" fill="#FFB9AA"/>
<path d="M298.842 330.863L323.957 343.817L329.682 334.763L317.314 328.386L298.842 330.863Z" fill="#FFCE51"/>
<path d="M384.76 305.362L334.938 384.184L284.708 358.281L298.845 330.866L323.963 343.817L358.688 288.878L384.763 305.362H384.76Z" stroke="black" stroke-width="5.37607" stroke-linejoin="round"/>
<path d="M403.236 302.879L377.164 286.398L358.694 288.875L384.769 305.358L403.239 302.879H403.236Z" stroke="black" stroke-width="5.37607" stroke-linejoin="round"/>
<path d="M334.932 384.187L384.757 305.359L403.227 302.882L353.401 381.71L334.932 384.187Z" stroke="black" stroke-width="5.37607" stroke-linejoin="round"/>
<path d="M298.842 330.863L323.957 343.817L329.682 334.763L317.314 328.386L298.842 330.863Z" stroke="black" stroke-width="5.37607" stroke-linejoin="round"/>
<path d="M320.645 845.412C297.723 858.959 267.775 853.546 251.183 831.877C233.266 808.479 237.703 774.986 261.105 757.069C284.509 739.152 317.999 743.596 335.919 766.994C354.11 790.753 348.215 830.873 349.731 859.048L337.978 868.047L320.648 845.412H320.645Z" fill="#89DCFF"/>
<path d="M294.323 852.897C271.403 866.444 241.456 861.034 224.861 839.365C206.947 815.967 211.387 782.474 234.785 764.558C239.595 760.866 245 758.022 250.766 756.149L276.622 748.821C271.034 750.694 265.796 753.481 261.12 757.069C237.719 774.986 233.279 808.479 251.195 831.877C261.861 845.807 278.049 853.021 294.338 852.795L294.323 852.897Z" fill="#FFB9EC"/>
<path d="M320.642 845.412L337.975 868.047L311.64 875.532L294.31 852.897L294.313 852.795C303.584 852.676 312.661 850.13 320.642 845.412Z" fill="#94E986"/>
<path d="M320.645 845.412C297.723 858.959 267.775 853.546 251.183 831.877C233.266 808.479 237.703 774.986 261.105 757.069C284.509 739.152 317.999 743.596 335.919 766.994C354.11 790.753 348.215 830.873 349.731 859.048L337.978 868.047L320.648 845.412H320.645Z" stroke="black" stroke-width="5.37607" stroke-linecap="square" stroke-linejoin="round"/>
<path d="M294.323 852.897C271.403 866.444 241.456 861.034 224.861 839.365C206.947 815.967 211.387 782.474 234.785 764.558C239.595 760.866 245 758.022 250.766 756.149L276.622 748.821C271.034 750.694 265.796 753.481 261.12 757.069C237.719 774.986 233.279 808.479 251.195 831.877C261.861 845.807 278.049 853.021 294.338 852.795L294.323 852.897Z" stroke="black" stroke-width="5.37607" stroke-linecap="square" stroke-linejoin="round"/>
<path d="M320.639 845.412L337.972 868.047L311.637 875.532L294.31 852.795C303.581 852.676 312.658 850.13 320.639 845.412Z" stroke="black" stroke-width="5.37607" stroke-linecap="square" stroke-linejoin="round"/>
<defs>
<clipPath id="clip0_18_163">
<rect width="100" height="100" fill="white" transform="translate(44 378)"/>
</clipPath>
<clipPath id="clip1_18_163">
<rect width="100" height="100" fill="white" transform="translate(397 727)"/>
</clipPath>
<clipPath id="clip2_18_163">
<rect width="50" height="50" fill="white" transform="translate(124 337)"/>
</clipPath>
<clipPath id="clip3_18_163">
<rect width="50" height="50" fill="white" transform="translate(447 676)"/>
</clipPath>
</defs>
</svg>
