<svg width="1325" height="640" viewBox="0 0 1325 640" fill="none" xmlns="http://www.w3.org/2000/svg">
<g clip-path="url(#clip0_25_108)">
<path d="M47.5 469.5C47.5 469.5 148.14 299.077 251.5 236C472.252 101.283 677.012 452.729 906.5 333.5C1025.67 271.584 1221.5 -3.50001 1221.5 -3.50001" stroke="black" stroke-dasharray="4 4"/>
<path d="M286.404 271.472V271.664L278.34 279.824H240.42V223.472H240.708L249.924 212.048H295.62V229.232L290.724 235.28L295.62 239.984V259.952L286.404 271.472ZM256.164 263.888V259.28H270.66V263.888H256.164ZM277.668 245.168H256.164V239.408H284.676V225.296H242.148V278H277.668L284.676 270.992V252.272L277.668 245.168ZM345.279 279.248V279.824H299.103V223.472H299.487L308.703 212.048H354.303V236.24L348.351 243.728H354.303V267.92L345.279 279.248ZM329.343 256.88V263.888H314.943V258.704H325.791V244.688H314.943V239.408H329.343V246.416H343.455V225.296H300.927V278H343.455V256.88H329.343ZM404.058 279.248V279.824H357.882V223.472H358.362L367.482 212.048H413.178V236.24L407.13 243.728H413.178V267.92L404.058 279.248ZM388.122 256.88V263.888H373.818V239.408H388.122V246.416H402.234V225.296H359.706V278H402.234V256.88H388.122ZM444.796 260.432L445.564 259.472L444.7 260.528L444.796 260.432ZM445.372 250.736H445.564V243.44C445.372 243.248 444.956 242.864 444.316 242.288C443.74 241.712 443.356 241.328 443.164 241.136H442.684V248.144L445.372 250.736ZM463.228 267.824V268.112L451.612 279.824H427.612L415.996 268.112V235.088L417.436 233.552L425.5 223.472L437.02 211.952H460.924L472.348 223.472V256.4L463.228 267.824ZM450.94 225.2H428.284L417.724 235.76V267.44L428.284 278H450.94L461.404 267.44V235.76L450.94 225.2ZM431.74 260.336V242.768L435.388 239.312H443.836L447.292 242.768V260.336L443.836 263.888H435.388L431.74 260.336ZM512.599 223.472L521.719 212.048H538.327V267.92L529.303 279.248V279.824H511.543V269.168L511.255 269.84L502.711 280.4L501.943 281.936L497.431 273.2L492.439 279.248V279.824H474.871V223.472H475.159L484.375 212.048H500.887L509.527 228.752C510.039 227.92 510.487 227.056 510.871 226.16C511.319 225.264 511.767 224.368 512.215 223.472H512.599ZM513.367 225.296L502.039 247.376L490.615 225.296H476.599V278H490.615V256.016L501.943 278H502.039L513.367 256.016V278H527.479V225.296H513.367ZM587.435 279.248V279.824H541.259V223.472H541.643L550.859 212.048H596.459V236.24L590.507 243.728H596.459V267.92L587.435 279.248ZM571.499 256.88V263.888H557.099V258.704H567.947V244.688H557.099V239.408H571.499V246.416H585.611V225.296H543.083V278H585.611V256.88H571.499ZM681.499 279.248V279.824H663.835V274.448H651.739L647.899 279.248V279.824H630.331V256.784H630.619L636.475 249.68V223.376H636.763L646.075 211.952H686.395V245.36H690.523V267.92L681.499 279.248ZM652.219 258.608V239.312H661.435V258.608H652.219ZM675.547 258.608V225.2H638.299V255.056L635.611 258.608H632.059V278H646.171V272.624H665.563V278H679.675V258.608H675.547ZM723.971 223.376L733.091 211.952H773.219V229.232L764.099 240.56V241.136H761.315V267.92L752.291 279.248V279.824H734.627V241.136H723.491V223.376H723.971ZM725.315 225.2V239.312H736.451V278H750.467V239.312H762.275V225.2H725.315ZM827.936 279.248V279.824H810.272V274.448H798.176L794.336 279.248V279.824H776.768V256.784H777.056L782.912 249.68V223.376H783.2L792.512 211.952H832.832V245.36H836.96V267.92L827.936 279.248ZM798.656 258.608V239.312H807.872V258.608H798.656ZM821.984 258.608V225.2H784.736V255.056L782.048 258.608H778.496V278H792.608V272.624H812V278H826.112V258.608H821.984ZM858.068 279.248V279.824H840.5V223.472H840.788L850.004 212.048H884.084L892.148 220.016V242.192L883.028 253.52V253.904L874.868 262.064H867.188V267.92L858.068 279.248ZM856.244 246.128V239.408H867.188V246.128H856.244ZM874.196 225.296H842.228V278H856.244V260.24H874.196L881.3 253.232V232.304L874.196 225.296ZM912.35 279.248V279.824H894.782V223.472H895.07L904.286 212.048H938.366L946.43 220.016V242.192L937.31 253.52V253.904L929.15 262.064H921.47V267.92L912.35 279.248ZM910.526 246.128V239.408H921.47V246.128H910.526ZM928.478 225.296H896.51V278H910.526V260.24H928.478L935.582 253.232V232.304L928.478 225.296ZM949.639 223.376L958.759 211.952H976.039V267.92L966.919 279.248V279.824H949.255V223.376H949.639ZM950.983 225.2V278H965.095V225.2H950.983ZM1008.73 223.472L1017.95 212.048H1034.55V267.92L1025.43 279.248V279.824H1007.87V262.928L1004.89 267.92L996.633 278.192L995.769 279.824H978.873V223.472H979.257L988.473 212.048H1005.66V228.656L1008.44 223.472H1008.73ZM1009.59 225.296L994.809 252.368V225.296H980.697V278H994.809L1009.59 252.56V278H1023.61V225.296H1009.59ZM439.428 375.248V375.824H421.86V319.472H422.148L431.364 308.048H465.444L473.508 316.016V338.192L464.388 349.52V349.904L456.228 358.064H448.548V363.92L439.428 375.248ZM437.604 342.128V335.408H448.548V342.128H437.604ZM455.556 321.296H423.588V374H437.604V356.24H455.556L462.66 349.232V328.304L455.556 321.296ZM494.573 374.96L494.189 375.824H475.085L482.765 356.624L476.045 349.904V327.632L477.389 326.192L485.645 316.016L493.613 308.048H531.245V363.92L522.221 375.248V375.824H504.461V361.232L503.405 363.92L494.573 374.96ZM491.885 342.128V335.408H506.285V342.128H491.885ZM484.877 321.296L477.869 328.304V349.232L484.877 356.24L477.869 374H492.941L499.949 356.24H506.285V374H520.397V321.296H484.877ZM562.499 356.432L563.267 355.472L562.403 356.528L562.499 356.432ZM563.075 346.736H563.267V339.44C563.075 339.248 562.659 338.864 562.019 338.288C561.443 337.712 561.059 337.328 560.867 337.136H560.387V344.144L563.075 346.736ZM580.931 363.824V364.112L569.315 375.824H545.315L533.699 364.112V331.088L535.139 329.552L543.203 319.472L554.723 307.952H578.627L590.051 319.472V352.4L580.931 363.824ZM568.643 321.2H545.987L535.427 331.76V363.44L545.987 374H568.643L579.107 363.44V331.76L568.643 321.2ZM549.443 356.336V338.768L553.091 335.312H561.539L564.995 338.768V356.336L561.539 359.888H553.091L549.443 356.336ZM623.39 319.376L632.51 307.952H649.694V338L634.142 363.92L626.078 374.096L625.022 375.824H608.03L592.286 349.808V319.376H592.67L601.886 307.952H619.07V333.296C619.838 334.576 620.51 335.76 621.086 336.848C621.662 337.872 622.27 338.896 622.91 339.92V319.376H623.39ZM624.734 321.2V345.392L616.478 359.12L608.222 345.392V321.2H594.11V349.328L608.99 374H623.966L638.846 349.328V321.2H624.734ZM652.967 319.376L662.087 307.952H679.367V363.92L670.247 375.248V375.824H652.583V319.376H652.967ZM654.311 321.2V374H668.423V321.2H654.311ZM727.609 363.824V364.112L715.993 375.824H682.201V319.376H682.681L691.801 307.952H725.209L736.633 319.472V352.4L727.609 363.824ZM708.217 359.888H698.137V335.312H708.217L711.673 338.768V356.336L708.217 359.888ZM715.321 321.2H684.025V374H715.321L725.785 363.44V331.76L715.321 321.2ZM785.763 375.248V375.824H739.587V319.472H739.971L749.187 308.048H794.787V332.24L788.835 339.728H794.787V363.92L785.763 375.248ZM769.827 352.88V359.888H755.427V354.704H766.275V340.688H755.427V335.408H769.827V342.416H783.939V321.296H741.411V374H783.939V352.88H769.827ZM816.51 374.96L816.126 375.824H797.022L804.702 356.624L797.982 349.904V327.632L799.326 326.192L807.582 316.016L815.55 308.048H853.182V363.92L844.158 375.248V375.824H826.398V361.232L825.342 363.92L816.51 374.96ZM813.822 342.128V335.408H828.222V342.128H813.822ZM806.814 321.296L799.806 328.304V349.232L806.814 356.24L799.806 374H814.878L821.886 356.24H828.222V374H842.334V321.296H806.814Z" fill="black"/>
<path fill-rule="evenodd" clip-rule="evenodd" d="M46.8387 466.738L124.914 460.139L126.674 480.974L69.576 485.797L71.4967 508.325L107.194 505.308C120.844 504.153 132.754 514.337 133.903 527.924L136.102 553.926C137.25 567.516 127.214 579.547 113.565 580.699L77.8643 583.719C64.2151 584.871 52.3046 574.69 51.1527 561.102L50.4826 553.16L71.3176 551.4L71.9908 559.342C72.1761 561.528 74.0629 563.057 76.1041 562.884L111.805 559.867C112.307 559.82 112.794 559.674 113.239 559.438C113.685 559.203 114.079 558.882 114.401 558.493C114.722 558.105 114.963 557.657 115.111 557.175C115.259 556.694 115.311 556.188 115.263 555.686L113.071 529.685C113.033 529.182 112.897 528.691 112.67 528.241C112.443 527.791 112.129 527.39 111.747 527.061C111.364 526.732 110.921 526.481 110.442 526.324C109.963 526.166 109.458 526.105 108.955 526.143L52.2644 530.932L46.8387 466.738Z" fill="#94E986"/>
<path d="M46.8387 466.738L124.914 460.139L126.674 480.974L69.576 485.797L71.4967 508.325L107.194 505.308C120.844 504.153 132.754 514.337 133.903 527.924L136.102 553.926C137.25 567.516 127.214 579.547 113.565 580.699L77.8643 583.719C64.2151 584.871 52.3046 574.69 51.1527 561.102L50.4826 553.16L71.3176 551.4L71.9908 559.342C72.1761 561.528 74.0629 563.057 76.1041 562.884L111.805 559.867C112.307 559.82 112.794 559.674 113.239 559.438C113.685 559.203 114.079 558.882 114.401 558.493C114.722 558.105 114.963 557.657 115.111 557.175C115.259 556.694 115.311 556.188 115.263 555.686L113.071 529.685C113.033 529.182 112.897 528.691 112.67 528.241C112.443 527.791 112.129 527.39 111.747 527.061C111.364 526.732 110.921 526.481 110.442 526.324C109.963 526.166 109.458 526.105 108.955 526.143L52.2644 530.932L46.8387 466.738Z" stroke="black" stroke-width="5.37607" stroke-linecap="square" stroke-linejoin="round"/>
<path d="M112.694 472.019L57.9249 477.04L61.9733 519.513L105.521 515.226C116.19 514.325 123.496 521.455 124.395 532.075L126.112 552.663C127.007 563.286 119.562 571.154 108.896 572.056L80.9895 574.415C72.1886 575.159 64.3419 572.056 62.7793 563.894" stroke="black" stroke-width="5.37607" stroke-linecap="square" stroke-linejoin="round"/>
<path d="M124.904 510.817C127.472 512.92 129.591 515.518 131.134 518.457C132.678 521.395 133.615 524.614 133.891 527.921L136.089 553.923C137.238 567.513 127.205 579.544 113.556 580.696L77.8552 583.716C72.256 584.2 66.6606 582.746 62.0043 579.6L79.2386 592.177C83.6911 594.879 88.8879 596.094 94.0766 595.645L129.777 592.628C143.427 591.476 153.463 579.442 152.314 565.855L150.115 539.85C149.84 536.542 148.903 533.323 147.359 530.384C145.815 527.445 143.697 524.847 141.129 522.743L124.904 510.817Z" stroke="black" stroke-width="5.37607" stroke-linecap="round" stroke-linejoin="round"/>
<path d="M134.193 531.204L150.415 543.133" stroke="black" stroke-width="5.37607" stroke-linejoin="round"/>
<path d="M135.567 548.17L151.792 560.099" stroke="black" stroke-width="5.37607" stroke-linejoin="round"/>
<path d="M134.434 565.135L150.656 577.067" stroke="black" stroke-width="5.37607" stroke-linejoin="round"/>
<path d="M125.278 576.564L141.5 588.493" stroke="black" stroke-width="5.37607" stroke-linejoin="round"/>
<path d="M107.219 581.205L123.444 593.135" stroke="black" stroke-width="5.37607" stroke-linejoin="round"/>
<path d="M86.6436 582.99L102.865 594.919" stroke="black" stroke-width="5.37607" stroke-linejoin="round"/>
<path d="M113.859 539.026L68.4861 542.861L52.2646 530.932L108.955 526.14C110.993 525.97 112.883 527.498 113.068 529.685L113.856 539.026H113.859Z" stroke="black" stroke-width="5.37607" stroke-linecap="square" stroke-linejoin="round"/>
<path d="M71.7469 529.305L87.9684 541.234" stroke="black" stroke-width="5.37607" stroke-linejoin="round"/>
<path d="M90.6981 527.665L106.92 539.594" stroke="black" stroke-width="5.37607" stroke-linejoin="round"/>
<path d="M126.68 480.974L124.92 460.139L141.141 472.068L142.902 492.903L126.68 480.974Z" stroke="black" stroke-width="5.37607" stroke-linecap="square" stroke-linejoin="round"/>
<path d="M69.5607 485.801L126.662 480.974L142.886 492.903L85.7852 497.73L69.5607 485.801Z" stroke="black" stroke-width="5.37607" stroke-linecap="square" stroke-linejoin="round"/>
<path d="M108.705 482.376L124.929 494.302" stroke="black" stroke-width="5.37607" stroke-linejoin="round"/>
<path d="M87.9808 484.272L104.205 496.201" stroke="black" stroke-width="5.37607" stroke-linejoin="round"/>
<path d="M86.5788 507.049L71.4845 508.325L69.5607 485.797L85.7852 497.73L86.5788 507.049Z" stroke="black" stroke-width="5.37607" stroke-linecap="square" stroke-linejoin="round"/>
<path d="M1191.01 198.738H1150.15V76.4824H1191.01V198.738Z" fill="#89DCFF"/>
<path d="M1191.01 198.738H1150.15V76.4824H1191.01V198.738Z" stroke="black" stroke-width="5.37607" stroke-linejoin="round"/>
<path d="M1170.58 62.8641H1211.44L1191.01 76.4824H1150.15L1170.58 62.8641Z" stroke="black" stroke-width="5.37607" stroke-linejoin="round"/>
<path d="M1211.43 62.8641V185.12L1191.01 198.738V76.4824L1211.43 62.8641Z" stroke="black" stroke-width="5.37607" stroke-linejoin="round"/>
<path d="M1170.74 76.4824L1191 62.8641" stroke="black" stroke-width="5.37607" stroke-linecap="round" stroke-linejoin="round"/>
<path d="M1191.01 99.5068L1211.36 86.2128" stroke="black" stroke-width="5.37607" stroke-linecap="round" stroke-linejoin="round"/>
<path d="M1191.01 124.798L1211.36 111.504" stroke="black" stroke-width="5.37607" stroke-linecap="round" stroke-linejoin="round"/>
<path d="M1191.01 150.098L1211.36 136.801" stroke="black" stroke-width="5.37607" stroke-linecap="round" stroke-linejoin="round"/>
<path d="M1191.01 175.392L1211.36 162.095" stroke="black" stroke-width="5.37607" stroke-linecap="round" stroke-linejoin="round"/>
<path d="M1170.59 187.065V88.4825" stroke="black" stroke-width="5.37607" stroke-linecap="round" stroke-linejoin="round"/>
<path fill-rule="evenodd" clip-rule="evenodd" d="M38.8638 54.5778C38.8638 49.2649 40.9743 44.1697 44.731 40.4129C48.4878 36.6562 53.583 34.5457 58.8959 34.5457H103.805C108.539 34.5456 113.12 36.2218 116.736 39.277C120.352 42.3322 122.769 46.5691 123.559 51.2365H136.347C139.855 51.2365 143.328 51.9274 146.569 53.2698C149.809 54.6123 152.754 56.5799 155.234 59.0603C157.714 61.5407 159.681 64.4854 161.023 67.7262C162.365 70.967 163.056 74.4404 163.055 77.948V85.6249C163.055 92.7084 160.241 99.5018 155.233 104.511C150.224 109.519 143.43 112.333 136.347 112.333H118.412C114.72 118.918 109.339 124.399 102.825 128.213C96.3108 132.027 88.8977 134.036 81.349 134.033C57.8861 134.033 38.8638 115.011 38.8638 91.5477V54.5778ZM123.834 91.5477V71.2655H132.508C135.266 71.3128 137.895 72.4415 139.829 74.4086C141.763 76.3756 142.846 79.0235 142.846 81.7818C142.846 84.5401 141.763 87.188 139.829 89.1551C137.895 91.1221 135.266 92.2509 132.508 92.2981H123.831L123.834 91.5446V91.5477Z" fill="#FFB9EC"/>
<path d="M86.5678 117.324C86.5678 115.912 86.0069 114.558 85.0085 113.559C84.0101 112.561 82.656 112 81.2441 112C79.8321 112 78.478 112.561 77.4796 113.559C76.4812 114.558 75.9203 115.912 75.9203 117.324" stroke="black" stroke-width="5.37607" stroke-linecap="round" stroke-linejoin="round"/>
<path d="M86.5678 93.9502C86.5678 93.2511 86.4301 92.5588 86.1626 91.9129C85.895 91.267 85.5029 90.6801 85.0085 90.1858C84.5142 89.6914 83.9273 89.2993 83.2814 89.0317C82.6355 88.7642 81.9432 88.6265 81.2441 88.6265C80.5449 88.6265 79.8527 88.7642 79.2067 89.0317C78.5608 89.2993 77.9739 89.6914 77.4796 90.1858C76.9852 90.6801 76.5931 91.267 76.3255 91.9129C76.058 92.5588 75.9203 93.2511 75.9203 93.9502" stroke="black" stroke-width="5.37607" stroke-linecap="round" stroke-linejoin="round"/>
<path d="M68.5338 105.635C68.5338 104.936 68.3961 104.244 68.1285 103.598C67.861 102.952 67.4688 102.365 66.9745 101.871C66.4801 101.377 65.8932 100.984 65.2473 100.717C64.6014 100.449 63.9091 100.312 63.21 100.312C62.5109 100.312 61.8186 100.449 61.1727 100.717C60.5268 100.984 59.9399 101.377 59.4455 101.871C58.9512 102.365 58.559 102.952 58.2915 103.598C58.0239 104.244 57.8862 104.936 57.8862 105.635" stroke="black" stroke-width="5.37607" stroke-linecap="round" stroke-linejoin="round"/>
<path d="M68.5338 82.2682C68.5338 81.569 68.3961 80.8768 68.1285 80.2309C67.861 79.5849 67.4688 78.9981 66.9745 78.5037C66.4801 78.0093 65.8932 77.6172 65.2473 77.3496C64.6014 77.0821 63.9091 76.9444 63.21 76.9444C62.5109 76.9444 61.8186 77.0821 61.1727 77.3496C60.5268 77.6172 59.9399 78.0093 59.4455 78.5037C58.9512 78.9981 58.559 79.5849 58.2915 80.2309C58.0239 80.8768 57.8862 81.569 57.8862 82.2682" stroke="black" stroke-width="5.37607" stroke-linecap="round" stroke-linejoin="round"/>
<path d="M104.59 105.635C104.59 104.936 104.452 104.244 104.185 103.598C103.917 102.952 103.525 102.365 103.031 101.871C102.536 101.377 101.949 100.984 101.303 100.717C100.657 100.449 99.9652 100.312 99.266 100.312C98.5669 100.312 97.8746 100.449 97.2287 100.717C96.5828 100.984 95.9959 101.377 95.5016 101.871C95.0072 102.365 94.6151 102.952 94.3475 103.598C94.08 104.244 93.9423 104.936 93.9423 105.635" stroke="black" stroke-width="5.37607" stroke-linecap="round" stroke-linejoin="round"/>
<path d="M104.59 82.2682C104.59 81.569 104.452 80.8768 104.185 80.2309C103.917 79.5849 103.525 78.9981 103.031 78.5037C102.536 78.0093 101.949 77.6172 101.303 77.3496C100.657 77.0821 99.9652 76.9444 99.266 76.9444C98.5669 76.9444 97.8746 77.0821 97.2287 77.3496C96.5828 77.6172 95.9959 78.0093 95.5016 78.5037C95.0072 78.9981 94.6151 79.5849 94.3475 80.2309C94.08 80.8768 93.9423 81.569 93.9423 82.2682" stroke="black" stroke-width="5.37607" stroke-linecap="round" stroke-linejoin="round"/>
<path d="M53.8932 56.7456C53.8932 59.2689 56.7774 61.6889 61.9113 63.4732C67.0452 65.2574 74.0082 66.2598 81.2686 66.2598C88.5291 66.2598 95.4921 65.2574 100.626 63.4732C105.76 61.6889 108.644 59.2689 108.644 56.7456C108.644 54.2222 105.76 51.8022 100.626 50.018C95.4921 48.2337 88.5291 47.2313 81.2686 47.2313C74.0082 47.2313 67.0452 48.2337 61.9113 50.018C56.7774 51.8022 53.8932 54.2222 53.8932 56.7456Z" fill="#E38414"/>
<path d="M38.8638 54.5778C38.8638 49.2649 40.9743 44.1697 44.731 40.4129C48.4878 36.6562 53.583 34.5457 58.8959 34.5457H103.805C108.539 34.5456 113.12 36.2218 116.736 39.277C120.352 42.3322 122.769 46.5691 123.559 51.2365H136.347C139.855 51.2365 143.328 51.9274 146.569 53.2698C149.809 54.6123 152.754 56.5799 155.234 59.0603C157.714 61.5407 159.681 64.4854 161.023 67.7262C162.365 70.967 163.056 74.4404 163.055 77.948V85.6249C163.055 92.7084 160.241 99.5018 155.233 104.511C150.224 109.519 143.43 112.333 136.347 112.333H118.412C114.72 118.918 109.339 124.399 102.825 128.213C96.3108 132.027 88.8977 134.036 81.349 134.033C57.8861 134.033 38.8638 115.011 38.8638 91.5477V54.5778Z" stroke="black" stroke-width="5.37607" stroke-linecap="round"/>
<path d="M81.3397 134.033C97.2524 134.033 111.124 125.281 118.402 112.33L130.088 127.354C122.809 140.305 108.938 149.056 93.0249 149.056C86.7067 149.062 80.467 147.656 74.762 144.941C69.0569 142.226 64.0307 138.27 60.0508 133.363L49.2736 119.417C53.2574 124.011 58.1829 127.694 63.7157 130.216C69.2486 132.737 75.2593 134.039 81.3397 134.033Z" stroke="black" stroke-width="5.37607" stroke-linecap="round" stroke-linejoin="round"/>
<path d="M163.049 77.9449C163.058 72.3265 161.286 66.8499 157.988 62.3009L170.109 77.9449C173.131 82.3716 174.744 87.6083 174.738 92.9682V100.648C174.738 104.156 174.047 107.629 172.704 110.87C171.362 114.11 169.394 117.055 166.914 119.535C164.433 122.015 161.489 123.982 158.248 125.324C155.007 126.666 151.534 127.357 148.026 127.357H130.094L118.409 112.333H136.344C139.852 112.333 143.325 111.642 146.566 110.3C149.806 108.958 152.751 106.99 155.231 104.509C157.711 102.029 159.678 99.0844 161.02 95.8436C162.362 92.6028 163.053 89.1295 163.052 85.6218V77.9449H163.049Z" stroke="black" stroke-width="5.37607" stroke-linecap="round" stroke-linejoin="round"/>
<path d="M84.7366 133.9L96.3599 148.939" stroke="black" stroke-width="5.37607" stroke-linecap="round"/>
<path d="M105.328 126.615L116.97 141.682" stroke="black" stroke-width="5.37607" stroke-linecap="round"/>
<path d="M146.377 110.357L158.019 125.414" stroke="black" stroke-width="5.37607" stroke-linecap="round"/>
<path d="M161.891 93.4284L173.548 108.517" stroke="black" stroke-width="5.37607" stroke-linecap="round"/>
<path d="M53.8932 56.7456C53.8932 59.2689 56.7774 61.6889 61.9113 63.4732C67.0452 65.2574 74.0082 66.2598 81.2686 66.2598C88.5291 66.2598 95.4921 65.2574 100.626 63.4732C105.76 61.6889 108.644 59.2689 108.644 56.7456C108.644 54.2222 105.76 51.8022 100.626 50.018C95.4921 48.2337 88.5291 47.2313 81.2686 47.2313C74.0082 47.2313 67.0452 48.2337 61.9113 50.018C56.7774 51.8022 53.8932 54.2222 53.8932 56.7456Z" stroke="black" stroke-width="5.37607"/>
<path d="M123.84 71.2655V91.5446L123.834 92.2981H132.512C133.892 92.2981 135.26 92.0262 136.535 91.4977C137.811 90.9693 138.97 90.1948 139.947 89.2184C140.923 88.242 141.698 87.0829 142.226 85.8072C142.754 84.5315 143.026 83.1642 143.026 81.7834C143.026 80.4025 142.754 79.0352 142.226 77.7595C141.698 76.4838 140.923 75.3247 139.947 74.3483C138.97 73.3719 137.811 72.5974 136.535 72.069C135.26 71.5406 133.892 71.2686 132.512 71.2686H123.84V71.2655Z" stroke="black" stroke-width="5.37607" stroke-linecap="round"/>
<path d="M866.033 152.93C853.011 175.488 860.74 204.334 883.295 217.359L905.081 229.937C927.642 242.959 956.488 235.233 969.51 212.675C982.535 190.113 974.806 161.268 952.248 148.243L930.462 135.665C907.904 122.643 879.058 130.372 866.033 152.927V152.93Z" fill="#94E986"/>
<path d="M890.262 176.514C890.262 178.696 890.692 180.857 891.527 182.874C892.362 184.89 893.587 186.722 895.13 188.266C896.673 189.809 898.505 191.033 900.522 191.868C902.538 192.704 904.699 193.133 906.882 193.133C909.064 193.133 911.226 192.704 913.242 191.868C915.258 191.033 917.09 189.809 918.634 188.266C920.177 186.722 921.401 184.89 922.236 182.874C923.072 180.857 923.502 178.696 923.502 176.514C923.502 172.106 921.751 167.878 918.634 164.762C915.517 161.645 911.29 159.894 906.882 159.894C902.474 159.894 898.247 161.645 895.13 164.762C892.013 167.878 890.262 172.106 890.262 176.514Z" fill="#EA563D"/>
<path fill-rule="evenodd" clip-rule="evenodd" d="M883.298 217.356C905.856 230.384 934.702 222.655 947.727 200.094C960.752 177.536 953.023 148.69 930.465 135.665C907.904 122.643 879.058 130.372 866.033 152.927C853.011 175.488 860.74 204.334 883.295 217.359L883.298 217.356ZM898.572 190.907C902.389 193.111 906.926 193.708 911.183 192.567C915.441 191.426 919.071 188.641 921.275 184.824C923.479 181.006 924.076 176.47 922.935 172.212C921.794 167.954 919.009 164.324 915.191 162.12C911.374 159.916 906.837 159.318 902.579 160.459C898.321 161.599 894.691 164.385 892.487 168.202C890.282 172.019 889.685 176.556 890.825 180.814C891.966 185.072 894.751 188.703 898.569 190.907H898.572Z" fill="#FFB9EC"/>
<path d="M866.033 152.93C853.011 175.488 860.74 204.334 883.295 217.359L905.081 229.937C927.642 242.959 956.488 235.233 969.51 212.675C982.535 190.113 974.806 161.268 952.248 148.243L930.462 135.665C907.904 122.643 879.058 130.372 866.033 152.927V152.93Z" stroke="black" stroke-width="5.37607" stroke-linecap="round" stroke-linejoin="round"/>
<path d="M890.262 176.514C890.262 178.696 890.692 180.857 891.527 182.874C892.362 184.89 893.587 186.722 895.13 188.266C896.673 189.809 898.505 191.033 900.522 191.868C902.538 192.704 904.699 193.133 906.882 193.133C909.064 193.133 911.226 192.704 913.242 191.868C915.258 191.033 917.09 189.809 918.634 188.266C920.177 186.722 921.401 184.89 922.236 182.874C923.072 180.857 923.502 178.696 923.502 176.514C923.502 172.106 921.751 167.878 918.634 164.762C915.517 161.645 911.29 159.894 906.882 159.894C902.474 159.894 898.247 161.645 895.13 164.762C892.013 167.878 890.262 172.106 890.262 176.514Z" stroke="black" stroke-width="5.37607" stroke-linecap="round" stroke-linejoin="round"/>
<path d="M883.298 217.356C905.856 230.384 934.702 222.655 947.727 200.094C960.752 177.536 953.023 148.69 930.465 135.665C907.904 122.643 879.058 130.372 866.033 152.927C853.011 175.488 860.74 204.334 883.295 217.359L883.298 217.356ZM898.572 190.907C902.389 193.111 906.926 193.708 911.183 192.567C915.441 191.426 919.071 188.641 921.275 184.824C923.479 181.006 924.076 176.47 922.935 172.212C921.794 167.954 919.009 164.324 915.191 162.12C911.374 159.916 906.837 159.318 902.579 160.459C898.321 161.599 894.691 164.385 892.487 168.202C890.282 172.019 889.685 176.556 890.825 180.814C891.966 185.072 894.751 188.703 898.569 190.907H898.572Z" stroke="black" stroke-width="5.37607" stroke-linecap="round" stroke-linejoin="round"/>
<path d="M979.602 513.063L1002.24 536.346L1032.8 525.328L1017.65 554.056L1037.57 579.705L1005.57 574.178L987.329 601.05L982.697 568.907L951.501 559.865L980.64 545.524L979.602 513.063Z" fill="#FFB9EC"/>
<path d="M1037.57 579.702L1057.21 580.082L1037.29 554.433L1052.44 525.705L1032.8 525.325L1017.65 554.053L1037.57 579.705V579.702Z" fill="#FFCE51"/>
<path d="M1006.97 601.427L987.329 601.05L1005.57 574.178L1023.38 577.254L1006.97 601.427Z" fill="#EA563D"/>
<path d="M979.602 513.063L1002.24 536.343L1016.51 531.195L999.245 513.439L979.602 513.063Z" fill="#FFCE51"/>
<path d="M979.602 513.063L1002.24 536.346L1032.8 525.328L1017.65 554.056L1037.57 579.705L1005.57 574.178L987.329 601.05L982.697 568.907L951.501 559.865L980.64 545.524L979.602 513.063Z" stroke="black" stroke-width="5.37607" stroke-linejoin="round"/>
<path d="M1037.57 579.702L1057.21 580.082L1037.29 554.433L1052.44 525.705L1032.8 525.325L1017.65 554.053L1037.57 579.705V579.702Z" stroke="black" stroke-width="5.37607" stroke-linejoin="round"/>
<path d="M1006.97 601.427L987.329 601.05L1005.57 574.178L1023.38 577.254L1006.97 601.427Z" stroke="black" stroke-width="5.37607" stroke-linejoin="round"/>
<path d="M979.602 513.063L1002.24 536.343L1016.51 531.195L999.245 513.439L979.602 513.063Z" stroke="black" stroke-width="5.37607" stroke-linejoin="round"/>
<path d="M1152.79 520.413L1152.6 522.186C1152.29 524.976 1152.58 527.8 1153.46 530.466C1154.35 533.132 1155.79 535.576 1157.7 537.632L1179.41 560.981C1182.28 564.062 1187.44 562.358 1187.9 558.177C1188.23 555.212 1189.61 552.463 1191.8 550.432C1193.98 548.401 1196.82 547.221 1199.8 547.109C1202.78 546.998 1205.63 545.819 1207.81 543.787C1210 541.756 1211.38 539.007 1211.71 536.042C1212.04 533.077 1213.42 530.329 1215.6 528.298C1217.79 526.267 1220.63 525.089 1223.61 524.977C1226.59 524.865 1229.43 523.686 1231.62 521.654C1233.8 519.623 1235.19 516.875 1235.51 513.91C1235.84 510.944 1237.22 508.195 1239.41 506.164C1241.59 504.132 1244.44 502.954 1247.42 502.842C1251.62 502.688 1253.7 497.663 1250.83 494.582L1229.12 471.233C1227.21 469.177 1224.88 467.556 1222.29 466.483C1219.69 465.41 1216.9 464.909 1214.09 465.014L1212.31 465.082C1209.33 465.193 1206.49 466.372 1204.3 468.403C1202.12 470.435 1200.73 473.184 1200.41 476.149C1200.08 479.113 1198.69 481.861 1196.51 483.892C1194.33 485.923 1191.48 487.101 1188.5 487.214C1185.52 487.325 1182.68 488.504 1180.5 490.535C1178.31 492.567 1176.93 495.316 1176.6 498.281C1176.27 501.247 1174.89 503.995 1172.7 506.027C1170.52 508.058 1167.68 509.237 1164.7 509.349C1161.71 509.461 1158.87 510.639 1156.69 512.67C1154.51 514.701 1153.12 517.449 1152.79 520.413Z" fill="#FFB9AA"/>
<path d="M1152.79 520.413L1152.6 522.186C1152.29 524.976 1152.58 527.8 1153.46 530.466C1154.35 533.132 1155.79 535.576 1157.7 537.632L1179.41 560.981C1182.28 564.062 1187.44 562.358 1187.9 558.177C1188.23 555.212 1189.61 552.463 1191.8 550.432C1193.98 548.401 1196.82 547.221 1199.8 547.109C1202.78 546.998 1205.63 545.819 1207.81 543.787C1210 541.756 1211.38 539.007 1211.71 536.042C1212.04 533.077 1213.42 530.329 1215.6 528.298C1217.79 526.267 1220.63 525.089 1223.61 524.977C1226.59 524.865 1229.43 523.686 1231.62 521.654C1233.8 519.623 1235.19 516.875 1235.51 513.91C1235.84 510.944 1237.22 508.195 1239.41 506.164C1241.59 504.132 1244.44 502.954 1247.42 502.842C1251.62 502.688 1253.7 497.663 1250.83 494.582L1229.12 471.233C1227.21 469.177 1224.88 467.556 1222.29 466.483C1219.69 465.41 1216.9 464.909 1214.09 465.014L1212.31 465.082C1209.33 465.193 1206.49 466.372 1204.3 468.403C1202.12 470.435 1200.73 473.184 1200.41 476.149C1200.08 479.113 1198.69 481.861 1196.51 483.892C1194.33 485.923 1191.48 487.101 1188.5 487.214C1185.52 487.325 1182.68 488.504 1180.5 490.535C1178.31 492.567 1176.93 495.316 1176.6 498.281C1176.27 501.247 1174.89 503.995 1172.7 506.027C1170.52 508.058 1167.68 509.237 1164.7 509.349C1161.71 509.461 1158.87 510.639 1156.69 512.67C1154.51 514.701 1153.12 517.449 1152.79 520.413Z" stroke="black" stroke-width="5.37607" stroke-linecap="square" stroke-linejoin="round"/>
<path d="M1168.11 548.98C1166.2 546.923 1164.76 544.478 1163.88 541.811C1163 539.144 1162.7 536.319 1163.02 533.528L1163.21 531.755C1163.54 528.787 1164.93 526.036 1167.12 524.002C1169.3 521.969 1172.15 520.787 1175.13 520.672C1178.12 520.558 1180.96 519.376 1183.15 517.343C1185.34 515.309 1186.72 512.558 1187.05 509.589C1187.38 506.621 1188.77 503.87 1190.96 501.836C1193.15 499.803 1195.99 498.621 1198.98 498.507C1201.96 498.392 1204.8 497.21 1206.99 495.177C1209.18 493.143 1210.56 490.392 1210.9 487.424C1211.23 484.456 1212.61 481.705 1214.8 479.671C1216.99 477.638 1219.83 476.456 1222.82 476.341L1224.6 476.273C1227.41 476.165 1230.2 476.664 1232.8 477.736C1235.39 478.807 1237.73 480.427 1239.64 482.483" stroke="black" stroke-width="5.37607" stroke-linecap="square" stroke-linejoin="round"/>
<path d="M1179.98 561.141C1178.08 559.096 1176.64 556.665 1175.77 554.013C1174.89 551.361 1174.6 548.552 1174.92 545.778L1175.11 544.015C1175.45 541.061 1176.83 538.324 1179 536.3C1181.18 534.276 1184.01 533.099 1186.98 532.981C1189.95 532.864 1192.78 531.686 1194.96 529.662C1197.14 527.638 1198.52 524.902 1198.85 521.948C1199.18 518.995 1200.56 516.259 1202.74 514.235C1204.92 512.212 1207.75 511.035 1210.72 510.917C1213.69 510.8 1216.52 509.622 1218.69 507.598C1220.87 505.574 1222.25 502.837 1222.58 499.884C1222.92 496.931 1224.3 494.194 1226.47 492.17C1228.65 490.147 1231.48 488.969 1234.45 488.85L1236.22 488.782C1239.01 488.672 1241.79 489.165 1244.37 490.229C1246.95 491.293 1249.27 492.902 1251.18 494.946" stroke="black" stroke-width="5.37607" stroke-linejoin="round"/>
<path d="M1130.32 520.981L1130.12 522.754C1129.81 525.544 1130.11 528.369 1130.99 531.034C1131.87 533.7 1133.31 536.144 1135.23 538.2L1156.94 561.549C1157.38 562.035 1157.91 562.425 1158.51 562.696C1159.11 562.967 1159.76 563.112 1160.42 563.124L1182.32 562.515C1181.21 562.359 1180.18 561.817 1179.42 560.984L1157.71 537.632C1155.8 535.576 1154.35 533.132 1153.47 530.467C1152.59 527.802 1152.29 524.979 1152.6 522.189L1152.8 520.416C1153.13 517.451 1154.51 514.702 1156.69 512.67C1158.88 510.639 1161.72 509.46 1164.7 509.349C1167.68 509.237 1170.52 508.059 1172.71 506.028C1174.89 503.997 1176.28 501.249 1176.61 498.284C1176.93 495.319 1178.32 492.571 1180.5 490.539C1182.69 488.508 1185.53 487.329 1188.51 487.217C1191.49 487.105 1194.33 485.926 1196.52 483.895C1198.7 481.863 1200.08 479.115 1200.41 476.149C1200.74 473.185 1202.12 470.437 1204.31 468.406C1206.49 466.375 1209.33 465.197 1212.31 465.085L1189.83 465.65C1186.85 465.761 1184.01 466.94 1181.82 468.972C1179.64 471.003 1178.26 473.752 1177.93 476.717C1177.6 479.682 1176.22 482.429 1174.03 484.46C1171.85 486.491 1169.01 487.67 1166.03 487.782C1163.05 487.893 1160.2 489.072 1158.02 491.104C1155.83 493.135 1154.45 495.884 1154.12 498.849C1153.79 501.814 1152.41 504.563 1150.23 506.594C1148.04 508.625 1145.2 509.805 1142.22 509.917C1139.24 510.028 1136.4 511.207 1134.21 513.237C1132.03 515.268 1130.65 518.016 1130.32 520.981Z" stroke="black" stroke-width="5.37607" stroke-linecap="square" stroke-linejoin="round"/>
<path d="M1200.38 476.254L1177.96 476.819" stroke="black" stroke-width="5.37607" stroke-linecap="round" stroke-linejoin="round"/>
<path d="M1191.54 486.72L1168.76 487.291" stroke="black" stroke-width="5.37607" stroke-linecap="round" stroke-linejoin="round"/>
<path d="M1176.25 499.998L1153.79 500.563" stroke="black" stroke-width="5.37607" stroke-linecap="round" stroke-linejoin="round"/>
<path d="M1152.7 527.466L1130.28 528.031" stroke="black" stroke-width="5.37607" stroke-linecap="round" stroke-linejoin="round"/>
<path d="M1160.43 540.578L1137.95 541.143" stroke="black" stroke-width="5.37607" stroke-linecap="round" stroke-linejoin="round"/>
<path d="M1170.7 551.621L1148.22 552.186" stroke="black" stroke-width="5.37607" stroke-linecap="round" stroke-linejoin="round"/>
<path d="M1156.69 512.656L1134.19 513.224" stroke="black" stroke-width="5.37607" stroke-linecap="round" stroke-linejoin="round"/>
<path d="M278.645 209.412C255.723 222.959 225.775 217.546 209.183 195.877C191.266 172.479 195.703 138.986 219.105 121.069C242.509 103.152 275.999 107.596 293.919 130.994C312.11 154.753 306.215 194.873 307.731 223.048L295.978 232.047L278.648 209.412H278.645Z" fill="#89DCFF"/>
<path d="M252.323 216.897C229.403 230.444 199.456 225.034 182.861 203.365C164.947 179.967 169.387 146.474 192.785 128.558C197.595 124.866 203 122.022 208.766 120.149L234.622 112.821C229.034 114.694 223.796 117.481 219.12 121.069C195.719 138.986 191.279 172.479 209.195 195.877C219.861 209.807 236.049 217.021 252.338 216.795L252.323 216.897Z" fill="#FFB9EC"/>
<path d="M278.642 209.412L295.975 232.047L269.64 239.532L252.31 216.897L252.313 216.795C261.584 216.676 270.661 214.13 278.642 209.412Z" fill="#94E986"/>
<path d="M278.645 209.412C255.723 222.959 225.775 217.546 209.183 195.877C191.266 172.479 195.703 138.986 219.105 121.069C242.509 103.152 275.999 107.596 293.919 130.994C312.11 154.753 306.215 194.873 307.731 223.048L295.978 232.047L278.648 209.412H278.645Z" stroke="black" stroke-width="5.37607" stroke-linecap="square" stroke-linejoin="round"/>
<path d="M252.323 216.897C229.403 230.444 199.456 225.034 182.861 203.365C164.947 179.967 169.387 146.474 192.785 128.558C197.595 124.866 203 122.022 208.766 120.149L234.622 112.821C229.034 114.694 223.796 117.481 219.12 121.069C195.719 138.986 191.279 172.479 209.195 195.877C219.861 209.807 236.049 217.021 252.338 216.795L252.323 216.897Z" stroke="black" stroke-width="5.37607" stroke-linecap="square" stroke-linejoin="round"/>
<path d="M278.639 209.412L295.972 232.047L269.637 239.532L252.31 216.795C261.581 216.676 270.658 214.13 278.639 209.412Z" stroke="black" stroke-width="5.37607" stroke-linecap="square" stroke-linejoin="round"/>
<path d="M1149.31 302.804H1195.63V336.244H1149.31V302.804Z" fill="#FFB9EC"/>
<path fill-rule="evenodd" clip-rule="evenodd" d="M1153.34 287.703V267.495H1136.02V388.738H1211.08V287.703H1153.34ZM1195.62 302.804H1149.3V336.241H1195.62V302.801V302.804Z" fill="#89DCFF"/>
<path d="M1167.85 273.075H1225.58L1211.08 287.713H1153.35L1167.85 273.075Z" stroke="black" stroke-width="5.37607" stroke-linejoin="round"/>
<path d="M1186.96 273.075L1172.47 287.713" stroke="black" stroke-width="5.37607" stroke-linejoin="round"/>
<path d="M1206.08 273.075L1191.58 287.713" stroke="black" stroke-width="5.37607" stroke-linejoin="round"/>
<path d="M1225.57 292.916L1211.07 307.553" stroke="black" stroke-width="5.37607" stroke-linejoin="round"/>
<path d="M1225.57 313.482L1211.07 328.12" stroke="black" stroke-width="5.37607" stroke-linejoin="round"/>
<path d="M1225.57 334.052L1211.07 348.689" stroke="black" stroke-width="5.37607" stroke-linejoin="round"/>
<path d="M1225.57 354.618L1211.07 369.255" stroke="black" stroke-width="5.37607" stroke-linejoin="round"/>
<path d="M1148.37 350.446H1157.63" stroke="black" stroke-width="5.37607" stroke-linecap="round" stroke-linejoin="round"/>
<path d="M1148.37 362.798H1157.63" stroke="black" stroke-width="5.37607" stroke-linecap="round" stroke-linejoin="round"/>
<path d="M1148.37 375.15H1157.63" stroke="black" stroke-width="5.37607" stroke-linecap="round" stroke-linejoin="round"/>
<path d="M1167.83 350.446H1177.09" stroke="black" stroke-width="5.37607" stroke-linecap="round" stroke-linejoin="round"/>
<path d="M1167.83 362.798H1177.09" stroke="black" stroke-width="5.37607" stroke-linecap="round" stroke-linejoin="round"/>
<path d="M1167.83 375.15H1177.09" stroke="black" stroke-width="5.37607" stroke-linecap="round" stroke-linejoin="round"/>
<path d="M1186.36 350.446H1195.62" stroke="black" stroke-width="5.37607" stroke-linecap="round" stroke-linejoin="round"/>
<path d="M1186.36 362.798H1195.62" stroke="black" stroke-width="5.37607" stroke-linecap="round" stroke-linejoin="round"/>
<path d="M1186.36 375.15H1195.62" stroke="black" stroke-width="5.37607" stroke-linecap="round" stroke-linejoin="round"/>
<path d="M1153.34 267.501V287.706H1211.08V388.738H1136.02V267.501H1153.34Z" stroke="black" stroke-width="5.37607" stroke-linejoin="round"/>
<path d="M1167.85 252.864V273.069L1153.35 287.706V267.498L1167.85 252.864Z" stroke="black" stroke-width="5.37607" stroke-linejoin="round"/>
<path d="M1153.34 267.501H1136.02L1150.52 252.864H1167.85L1153.34 267.501Z" stroke="black" stroke-width="5.37607" stroke-linejoin="round"/>
<path d="M1149.31 302.804H1195.63V336.244H1149.31V302.804Z" stroke="black" stroke-width="5.37607" stroke-linejoin="round"/>
<path d="M1225.57 273.075V374.107L1211.07 388.738V287.71L1225.57 273.072V273.075Z" stroke="black" stroke-width="5.37607" stroke-linejoin="round"/>
<path d="M137.329 315.614C143.292 286.438 173.484 292.83 182.266 297.938C191.484 303.296 196.474 303.296 205.692 297.938C214.478 292.83 244.666 286.438 250.629 315.614C255.4 338.953 243.743 369.636 236.999 383.977C232.104 394.387 226.203 398.883 212.081 398.883C203.991 398.883 200.368 392.923 193.979 392.923C187.59 392.923 183.971 398.883 175.877 398.883C161.759 398.883 155.857 394.387 150.96 383.977C144.215 369.636 132.558 338.953 137.329 315.614Z" fill="#FFB9EC"/>
<path d="M191.731 416.055C187.448 416.055 184.416 414.385 181.562 412.813C179.03 411.411 176.637 410.092 173.629 410.092C170.624 410.092 168.231 411.411 165.696 412.81C162.843 414.385 159.813 416.055 155.527 416.055C141.408 416.055 135.507 411.559 130.61 401.146C123.865 386.808 112.211 356.129 116.979 332.786C118.535 325.181 121.735 319.996 125.771 316.571L144.568 300.841C141.263 304.228 138.676 309.008 137.326 315.614C132.555 338.953 144.212 369.636 150.957 383.977C155.851 394.387 161.752 398.883 175.874 398.883C180.157 398.883 183.19 397.212 186.043 395.64C188.575 394.241 190.968 392.923 193.976 392.923C196.981 392.923 199.374 394.241 201.909 395.64C204.76 397.212 207.792 398.883 212.078 398.883C220.101 398.883 225.471 397.431 229.51 394.266L209.191 411.42C205.146 414.598 199.772 416.055 191.731 416.055Z" fill="#2685F5"/>
<path d="M137.329 315.614C143.292 286.438 173.484 292.83 182.266 297.938C191.484 303.296 196.474 303.296 205.692 297.938C214.478 292.83 244.666 286.438 250.629 315.614C255.4 338.953 243.743 369.636 236.999 383.977C232.104 394.387 226.203 398.883 212.081 398.883C203.991 398.883 200.368 392.923 193.979 392.923C187.59 392.923 183.971 398.883 175.877 398.883C161.759 398.883 155.857 394.387 150.96 383.977C144.215 369.636 132.558 338.953 137.329 315.614Z" stroke="black" stroke-width="5.37607" stroke-linecap="round" stroke-linejoin="round"/>
<path d="M191.731 416.055C187.448 416.055 184.416 414.385 181.562 412.813C179.03 411.411 176.637 410.092 173.629 410.092C170.624 410.092 168.231 411.411 165.696 412.81C162.843 414.385 159.813 416.055 155.527 416.055C141.408 416.055 135.507 411.559 130.61 401.146C123.865 386.808 112.211 356.129 116.979 332.786C118.535 325.181 121.735 319.996 125.771 316.571L144.568 300.841C141.263 304.228 138.676 309.008 137.326 315.614C132.555 338.953 144.212 369.636 150.957 383.977C155.851 394.387 161.752 398.883 175.874 398.883C180.157 398.883 183.19 397.212 186.043 395.64C188.575 394.241 190.968 392.923 193.976 392.923C196.981 392.923 199.374 394.241 201.909 395.64C204.76 397.212 207.792 398.883 212.078 398.883C220.101 398.883 225.471 397.431 229.51 394.266L209.191 411.42C205.146 414.598 199.772 416.055 191.731 416.055Z" stroke="black" stroke-width="5.37607" stroke-linecap="round" stroke-linejoin="round"/>
<path d="M526.706 89.6699C527.417 88.766 527.942 87.731 528.252 86.624C528.563 85.517 528.652 84.3596 528.516 83.2181C528.379 82.0765 528.019 80.9731 527.455 79.9708C526.892 78.9685 526.137 78.0869 525.233 77.3764C524.329 76.6659 523.294 76.1404 522.187 75.83C521.08 75.5195 519.923 75.4301 518.781 75.5669C517.64 75.7036 516.536 76.0639 515.534 76.6271C514.532 77.1904 513.65 77.9455 512.94 78.8494L518.498 71.7778C519.901 69.9496 520.527 67.6418 520.24 65.3552C519.952 63.0685 518.775 60.9874 516.963 59.5634C515.15 58.1395 512.85 57.4875 510.56 57.7491C508.27 58.0106 506.176 59.1645 504.732 60.9604L499.173 68.0289C499.902 67.1271 500.445 66.0894 500.77 64.976C501.095 63.8626 501.195 62.6959 501.065 61.5434C500.935 60.3909 500.577 59.2758 500.013 58.2627C499.448 57.2496 498.688 56.3588 497.776 55.6421C496.865 54.9253 495.819 54.3968 494.702 54.0873C493.584 53.7778 492.416 53.6935 491.265 53.8392C490.115 53.9849 489.005 54.3578 487.999 54.9362C486.994 55.5146 486.114 56.287 485.41 57.2084L457.2 92.6653L457.071 72.4386C457.056 70.0212 456.112 67.7021 454.435 65.961C452.757 64.22 450.475 63.1903 448.06 63.085C445.817 62.9782 443.612 63.6868 441.851 65.0798C440.09 66.4727 438.893 68.456 438.481 70.663C436.122 83.4413 429.859 107.235 429.195 122.866C428.738 133.579 430.078 149.414 442.912 160.284C467.147 180.81 489.986 166.522 506.137 145.128L533.704 109.254C534.413 108.342 534.935 107.298 535.241 106.184C535.547 105.069 535.631 103.905 535.487 102.758C535.343 101.611 534.975 100.504 534.403 99.4995C533.832 98.495 533.068 97.6129 532.155 96.9036C531.242 96.1944 530.199 95.6718 529.084 95.3658C527.97 95.0597 526.806 94.9762 525.659 95.1201C524.512 95.2639 523.405 95.6321 522.4 96.2039C521.396 96.7756 520.514 97.5396 519.804 98.4523L526.706 89.673V89.6699Z" fill="#FFB9AA"/>
<path d="M526.706 89.6699C527.417 88.766 527.942 87.731 528.252 86.624C528.563 85.517 528.652 84.3596 528.516 83.2181C528.379 82.0765 528.019 80.9731 527.455 79.9708C526.892 78.9685 526.137 78.0869 525.233 77.3764C524.329 76.6659 523.294 76.1404 522.187 75.83C521.08 75.5195 519.923 75.4301 518.781 75.5669C517.64 75.7036 516.536 76.0639 515.534 76.6271C514.532 77.1904 513.65 77.9455 512.94 78.8494L518.498 71.7778C519.901 69.9496 520.527 67.6418 520.24 65.3552C519.952 63.0685 518.775 60.9874 516.963 59.5634C515.15 58.1395 512.85 57.4875 510.56 57.7491C508.27 58.0106 506.176 59.1645 504.732 60.9604L499.173 68.0289C499.902 67.1271 500.445 66.0894 500.77 64.976C501.095 63.8626 501.195 62.6959 501.065 61.5434C500.935 60.3909 500.577 59.2758 500.013 58.2627C499.448 57.2496 498.688 56.3588 497.776 55.6421C496.865 54.9253 495.819 54.3968 494.702 54.0873C493.584 53.7778 492.416 53.6935 491.265 53.8392C490.115 53.9849 489.005 54.3578 487.999 54.9362C486.994 55.5146 486.114 56.287 485.41 57.2084L457.2 92.6653L457.071 72.4386C457.056 70.0212 456.112 67.7021 454.435 65.961C452.757 64.22 450.475 63.1903 448.06 63.085C445.817 62.9782 443.612 63.6868 441.851 65.0798C440.09 66.4727 438.893 68.456 438.481 70.663C436.122 83.4413 429.859 107.235 429.195 122.866C428.738 133.579 430.078 149.414 442.912 160.284C467.147 180.81 489.986 166.522 506.137 145.128L533.704 109.254C534.413 108.342 534.935 107.298 535.241 106.184C535.547 105.069 535.631 103.905 535.487 102.758C535.343 101.611 534.975 100.504 534.403 99.4995C533.832 98.495 533.068 97.6129 532.155 96.9036C531.242 96.1944 530.199 95.6718 529.084 95.3658C527.97 95.0597 526.806 94.9762 525.659 95.1201C524.512 95.2639 523.405 95.6321 522.4 96.2039C521.396 96.7756 520.514 97.5396 519.804 98.4523L526.706 89.673V89.6699Z" stroke="black" stroke-width="5.37607" stroke-linecap="round" stroke-linejoin="round"/>
<path d="M535.501 103.1C535.702 105.302 535.063 107.499 533.713 109.251L506.146 145.125C489.995 166.516 467.156 180.807 442.921 160.281C435.631 154.105 432.052 146.323 430.399 138.788L433.602 159.376C435.353 166.568 438.932 173.902 445.874 179.785C470.108 200.311 492.951 186.023 509.098 164.629L536.665 128.755C538.178 126.788 538.731 124.386 538.394 122.11L535.501 103.1Z" stroke="black" stroke-width="5.37607" stroke-linecap="round" stroke-linejoin="round"/>
<path d="M523.776 122.156L526.749 141.688" stroke="black" stroke-width="5.37607" stroke-linecap="round" stroke-linejoin="round"/>
<path d="M511.47 138.229L514.428 157.638" stroke="black" stroke-width="5.37607" stroke-linecap="round" stroke-linejoin="round"/>
<path d="M497.926 154.648L500.899 174.174" stroke="black" stroke-width="5.37607" stroke-linecap="round" stroke-linejoin="round"/>
<path d="M482.958 166.068L485.929 185.597" stroke="black" stroke-width="5.37607" stroke-linecap="round" stroke-linejoin="round"/>
<path d="M464.958 170.166L467.938 189.738" stroke="black" stroke-width="5.37607" stroke-linecap="round" stroke-linejoin="round"/>
<path d="M447.094 163.681L449.842 182.814" stroke="black" stroke-width="5.37607" stroke-linecap="round" stroke-linejoin="round"/>
<path d="M499.179 68.0289L474.617 99.2799" stroke="black" stroke-width="5.37607" stroke-linecap="round" stroke-linejoin="round"/>
<path d="M491.743 105.823L512.946 78.8525" stroke="black" stroke-width="5.37607" stroke-linecap="round" stroke-linejoin="round"/>
<path d="M526.709 89.6699L502.144 120.921" stroke="black" stroke-width="5.37607" stroke-linecap="round" stroke-linejoin="round"/>
<path d="M432.54 99.987C435.136 104.092 438.939 107.294 443.426 109.153C447.914 111.012 452.866 111.438 457.605 110.372C463.692 109.005 470.072 110.109 475.345 113.443C480.617 116.776 484.352 122.066 485.728 128.15C486.765 132.737 489.152 136.909 492.58 140.128C496.009 143.347 500.323 145.466 504.966 146.212" stroke="black" stroke-width="5.37607" stroke-linecap="round" stroke-linejoin="round"/>
<path d="M491.175 160.766C487.146 159.661 483.492 157.481 480.607 154.459C477.721 151.438 475.711 147.688 474.793 143.612C473.448 137.651 469.789 132.469 464.623 129.205C459.457 125.941 453.206 124.863 447.245 126.208C444.159 126.908 440.961 126.964 437.853 126.372C434.744 125.779 431.792 124.551 429.18 122.764" stroke="black" stroke-width="5.37607" stroke-linecap="round" stroke-linejoin="round"/>
<path d="M469.265 170.082C466.691 167.179 464.896 163.669 464.047 159.883C462.701 153.922 459.043 148.741 453.878 145.477C448.712 142.213 442.462 141.135 436.501 142.478C434.865 142.849 433.228 143.034 431.622 143.05" stroke="black" stroke-width="5.37607" stroke-linecap="round" stroke-linejoin="round"/>
<path d="M363.769 463.328L311.976 499.106L307.026 555.688L430.047 566.449L434.997 509.87L390.205 465.64L363.772 463.324L363.769 463.328Z" fill="white"/>
<path d="M311.979 499.072L363.771 463.29L408.563 507.52L403.613 564.099L307.029 555.651L311.979 499.072Z" fill="#FFB9AA"/>
<path d="M363.769 463.328L311.976 499.106L307.026 555.688L430.047 566.449L434.997 509.87L390.205 465.64L363.772 463.324L363.769 463.328Z" stroke="black" stroke-width="5.37607" stroke-linecap="round" stroke-linejoin="round"/>
<path d="M311.979 499.072L363.771 463.29L408.563 507.52L403.613 564.099L307.029 555.651L311.979 499.072Z" stroke="black" stroke-width="5.37607" stroke-linecap="round" stroke-linejoin="round"/>
<path d="M408.561 507.52L435 509.836M378.613 477.952L405.046 480.265M393.451 492.58L419.887 494.893M404.849 549.993L431.282 552.309M406.084 535.844L432.524 538.157M407.325 521.691L433.759 524.007" stroke="black" stroke-width="5.37607" stroke-linecap="round" stroke-linejoin="round"/>
<path d="M311.336 556.033C314.733 517.411 341.368 486.417 376.25 475.618M329.794 557.645C332.832 523.134 359.074 496.231 391.795 490.969M348.251 559.26C350.947 528.704 377.893 506.106 408.455 508.774M366.708 560.876C368.515 540.513 386.471 525.456 406.84 527.234M385.165 562.487C385.605 557.602 387.963 553.091 391.723 549.942C395.483 546.793 400.339 545.263 405.225 545.689" stroke="black" stroke-width="5.37607" stroke-linecap="round" stroke-linejoin="round"/>
<path d="M625.392 511.4V550.405L646.196 571.209H724.21V493.196L703.405 472.392H664.521V511.4H625.392Z" fill="white"/>
<path d="M625.392 511.527V550.532H703.405V472.519H664.521V511.527H625.392Z" fill="#FFCE51"/>
<path d="M703.409 472.519L724.21 493.323V571.333L703.409 550.529V472.519Z" fill="#FFB9EC"/>
<path d="M625.392 550.409L646.196 571.21H724.21L703.405 550.409H625.392Z" fill="#EA563D"/>
<path d="M625.392 511.4V550.405L646.196 571.209H724.21V493.196L703.405 472.392H664.521V511.4H625.392Z" stroke="black" stroke-width="5.37607" stroke-linecap="round" stroke-linejoin="round"/>
<path d="M625.392 511.527V550.532H703.405V472.519H664.521V511.527H625.392Z" stroke="black" stroke-width="5.37607" stroke-linecap="round" stroke-linejoin="round"/>
<path d="M703.409 472.519L724.21 493.323V571.333L703.409 550.529V472.519Z" stroke="black" stroke-width="5.37607" stroke-linecap="round" stroke-linejoin="round"/>
<path d="M625.392 550.409L646.196 571.21H724.21L703.405 550.409H625.392Z" stroke="black" stroke-width="5.37607" stroke-linecap="round" stroke-linejoin="round"/>
</g>
<defs>
<clipPath id="clip0_25_108">
<rect width="1325" height="640" fill="white"/>
</clipPath>
</defs>
</svg>
