<svg width="1325" height="640" viewBox="0 0 1325 640" fill="none" xmlns="http://www.w3.org/2000/svg">
<path d="M154.212 227.5C153.987 227.5 153.75 227.7 153.987 228.113C155.712 231.415 157.135 234.867 158.237 238.425C158.35 238.775 158.925 238.825 158.787 238.188C157.95 234.516 156.523 231.004 154.562 227.788C154.45 227.613 154.337 227.5 154.212 227.5Z" fill="black"/>
<path d="M143.975 221.637C146.875 223.312 153.712 227.212 153.9 227.325C153.945 227.348 153.997 227.353 154.046 227.339C154.095 227.325 154.136 227.293 154.162 227.25C154.162 227.15 156.012 223.362 156.9 221.462C159.475 221.462 161.987 221.375 164.562 221.312C166.966 224.339 169.155 227.53 171.112 230.862C171.147 230.927 171.206 230.975 171.277 230.996C171.347 231.017 171.423 231.01 171.487 230.975C171.552 230.94 171.6 230.881 171.621 230.811C171.642 230.74 171.635 230.664 171.6 230.6C169.853 227.303 167.807 224.173 165.487 221.25C173.075 221.087 180.35 221.062 184.8 214.762C191.562 205.15 183.612 191.15 169.962 192.7C170.92 191.282 171.535 189.662 171.761 187.967C171.986 186.271 171.815 184.547 171.262 182.928C170.708 181.31 169.787 179.842 168.57 178.64C167.354 177.438 165.875 176.534 164.25 176C162.377 175.28 160.334 175.123 158.372 175.549C156.411 175.976 154.618 176.967 153.212 178.4C152.887 173.775 150.262 169.5 145.812 166.3C138.712 161.25 128.237 159.687 119.1 162.375C111 164.8 103.012 171.175 103.5 180C99.8739 177.587 95.5734 176.391 91.2221 176.587C86.8709 176.782 82.695 178.359 79.2999 181.087C77.2724 182.691 75.7687 184.863 74.9806 187.325C74.1925 189.788 74.1557 192.429 74.8749 194.912C67.7624 192.275 59.6374 194.825 55.8499 200.937C54.4358 203.245 53.7945 205.944 54.0193 208.642C54.2441 211.339 55.3233 213.895 57.0999 215.937C61.3124 220.512 68.3499 221.137 74.6874 221.362C92.5249 221.987 126.612 221.825 143.975 221.637ZM56.7499 201.5C60.0999 196.025 67.7249 192.9 75.6749 196C75.7084 196.009 75.7439 196.01 75.7777 196.002C75.8115 195.994 75.8426 195.977 75.8679 195.953C75.8931 195.929 75.9117 195.898 75.9217 195.865C75.9317 195.832 75.9328 195.796 75.9249 195.762L75.8124 195.412C75.0776 192.997 75.0916 190.415 75.8524 188.008C76.6133 185.6 78.0854 183.479 80.0749 181.925C83.4228 179.308 87.5104 177.814 91.7564 177.655C96.0023 177.495 100.19 178.679 103.725 181.037C103.987 181.225 104.075 181.337 104.225 181.262C104.375 181.187 104.325 181 104.3 180.712C103.725 172.175 111.275 165.787 119.412 163.412C133.162 159.4 149.412 165.425 152.125 176.5C152.375 177.54 152.514 178.605 152.537 179.675C152.537 179.837 152.725 179.937 152.875 179.775C154.651 177.738 157.152 176.475 159.845 176.254C162.539 176.032 165.212 176.871 167.297 178.591C169.381 180.311 170.713 182.776 171.007 185.462C171.302 188.149 170.537 190.844 168.875 192.975L168.637 193.312C168.615 193.342 168.601 193.377 168.599 193.415C168.597 193.452 168.605 193.489 168.624 193.521C168.643 193.553 168.671 193.579 168.704 193.595C168.738 193.612 168.776 193.618 168.812 193.612C181.975 191.875 190.525 204.787 183.875 214.262C179.55 220.425 172.2 220.287 164.812 220.512C163.265 218.594 161.595 216.777 159.812 215.075C160.775 212.887 161.612 210.937 162.312 209.112C162.331 209.067 162.332 209.017 162.316 208.971C162.3 208.925 162.268 208.886 162.225 208.862C155.975 206.012 149.987 203.5 144.462 201.362C144.422 201.344 144.377 201.342 144.335 201.356C144.294 201.37 144.259 201.399 144.237 201.437C141.235 206.416 138.486 211.544 136 216.8C135.984 216.842 135.982 216.888 135.996 216.932C136.01 216.975 136.037 217.012 136.075 217.037C137.837 218.087 139.962 219.337 142.525 220.787C126.425 220.987 92.5249 221.187 74.6374 220.587C69.6374 220.4 61.9874 220.125 57.6874 215.3C56.1213 213.38 55.1899 211.021 55.022 208.549C54.854 206.077 55.4578 203.614 56.7499 201.5ZM159.575 215.587C161.122 217.12 162.566 218.753 163.9 220.475L157.25 220.625C158.075 218.912 158.85 217.225 159.575 215.587ZM159.75 209.875L153.237 223.625L138.5 215.5C140.712 211.4 143.037 207.125 145.162 203.7C150.7 205.887 157.8 208.937 159.75 209.875ZM187.075 320.887C184.1 320.537 180.825 324.012 178.4 327.512C181.603 319.41 183.2 310.762 183.1 302.05C183 298.537 182.425 292.3 179.7 289.912C175.95 286.637 171.625 292.837 169.175 297.112C170.99 291.496 171.757 285.594 171.437 279.7C171.125 275.1 169.762 267.975 165.187 267.975C161.65 267.975 158.85 272.05 157.387 274.75C156.137 271 150.712 255.85 148.287 249.95C144.325 240.425 141.525 237.687 131.85 239.725C127.75 240.637 111.45 245.362 107.262 246.562C95.8874 249.837 85.1499 252.937 80.4499 256.362C78.8711 257.396 77.6281 258.868 76.8732 260.597C76.1183 262.327 75.8843 264.239 76.1999 266.1C76.9124 271.562 87.6499 307.037 91.0249 317.75C85.2374 323.75 81.5749 333.112 80.2624 336.875C77.0249 346.187 72.9 363.975 81.5125 378.425C86.0342 385.878 93.0902 391.451 101.387 394.125C101 395.375 100.475 396.9 99.8999 398.687C99.8924 398.716 99.8915 398.747 99.8974 398.776C99.9032 398.806 99.9156 398.833 99.9336 398.857C99.9516 398.881 99.9748 398.901 100.001 398.915C100.028 398.929 100.057 398.936 100.087 398.937H100.562C100.602 398.934 100.64 398.92 100.671 398.895C100.702 398.871 100.725 398.837 100.737 398.8C101.375 396.875 101.925 395.175 102.337 393.937C102.351 393.888 102.354 393.837 102.347 393.786C102.341 393.736 102.324 393.687 102.299 393.643C102.273 393.599 102.239 393.56 102.198 393.529C102.158 393.498 102.112 393.475 102.062 393.462C93.9162 390.947 86.9827 385.518 82.5874 378.212C76.3374 367.562 75.7625 352.237 81.2 337.2C86.9375 321.412 94.3749 313.95 98.4999 315C102.062 315.875 103.25 322.75 101.775 333.875C100.997 339.453 99.6911 344.944 97.8749 350.275C97.8466 350.348 97.8422 350.429 97.8624 350.505C97.8826 350.582 97.9263 350.65 97.9874 350.7C99.2374 351.712 101.4 353.2 102.862 354.25C104.41 358.8 106.295 363.229 108.5 367.5C110.525 371.075 112.7 373.312 117.325 373.412C121.612 373.525 129.462 371.35 133.575 370.2C131.023 372.975 128.995 376.189 127.587 379.687C126.212 383.375 125.675 388.787 128.7 391.9C128.773 391.973 128.872 392.014 128.975 392.014C129.078 392.014 129.177 391.973 129.25 391.9C129.323 391.827 129.364 391.728 129.364 391.625C129.364 391.522 129.323 391.423 129.25 391.35C126.675 388.437 127.337 383.437 128.687 380.1C130.277 376.405 132.381 372.954 134.937 369.85C148.325 366.1 165 360.162 167.437 359.15C171.587 357.45 175.162 355.687 176.825 351.462C178.95 346.05 175.575 337.475 175.175 334.437C177.337 330.425 182.75 321.337 186.887 321.837C191.287 322.375 190.637 332.7 190.462 334.75C188.675 353.975 176.712 375.9 151.712 392.25C150.25 393.2 150.125 393.3 150.15 393.5C150.4 395.375 150.662 397.25 150.912 398.825C150.919 398.87 150.941 398.912 150.975 398.941C151.01 398.971 151.054 398.988 151.1 398.987H151.675C151.702 398.987 151.728 398.982 151.753 398.971C151.778 398.96 151.799 398.944 151.817 398.924C151.835 398.904 151.848 398.88 151.856 398.854C151.864 398.828 151.866 398.801 151.862 398.775C151.7 397.375 151.487 395.7 151.225 393.687C162.937 386.837 178.287 372.937 186.375 354.387C189.094 348.186 190.782 341.582 191.375 334.837C191.75 331.675 192.175 321.475 187.075 320.887ZM131.925 240.512C143.575 238.012 144.8 242.312 151.412 260.3C164.275 295.3 174.812 335 176.287 342.8C178.537 354.65 171.925 356.887 159.912 360.937C154.762 362.675 146.762 365.525 135.675 368.712C112.25 375.412 111.5 374.675 104 354.612C102.537 350.7 101.425 347.65 100.4 344.7C101.363 341.302 102.123 337.85 102.675 334.362C104.362 339.887 111.5 363.887 116.087 366.387C118.512 367.737 122.05 366.837 124.9 366.112C130.287 364.75 167.662 354.137 170.587 350.012C171.068 349.323 171.345 348.513 171.387 347.675C171.712 341.675 161.187 306.487 158.675 299.075L162.237 297.587C162.281 297.568 162.316 297.533 162.335 297.488C162.353 297.444 162.354 297.395 162.337 297.35C156.85 281.612 152.1 267.75 145.087 251.862C145.068 251.818 145.033 251.784 144.989 251.765C144.944 251.746 144.895 251.745 144.85 251.762C131.837 256.662 108.687 265.125 95.8499 270.512C95.4999 270.662 95.7124 270.225 101 284.475C98.1874 285.725 94.3624 287.712 92.2499 288.787C92.1811 288.825 92.1287 288.886 92.1032 288.96C92.0778 289.035 92.0811 289.115 92.1124 289.187C99.8749 306.125 102.837 313.887 111.462 329.387C111.537 329.537 111.725 329.625 112 329.525C117.65 327.562 130.462 321.337 133.25 320.025C141.912 315.975 148.25 312.062 153.875 309.1C153.917 309.071 153.951 309.032 153.973 308.985C153.995 308.939 154.004 308.888 154 308.837C154.012 308.801 154.012 308.761 154 308.725C153.387 307.1 152.137 304.037 151.175 302.15L157.925 299.325C159.775 305.575 170.787 341.7 170.425 347.6C170.39 348.289 170.165 348.955 169.775 349.525C167.125 353.275 128.337 364.412 124.5 365.375C121.862 366.025 118.587 366.862 116.425 365.662C112.775 363.65 107.6 347.375 103.825 335.5C103.475 334.387 103.125 333.325 102.8 332.3C103.65 325.512 103.7 312.775 96.9499 313.887C92.8749 299.162 84.1124 271.862 83.2749 265.625C83.0798 264.771 83.1756 263.877 83.547 263.084C83.9185 262.292 84.5443 261.646 85.3249 261.25C91.0874 257.325 129.925 245.8 135.187 245.587C137.85 245.462 138.862 246.525 140.375 249.6C141.362 251.65 141.225 251.675 141.487 251.787C141.75 251.9 142.175 251.65 141.937 251.125C141.7 250.6 141.525 250.25 141.062 249.262C139.725 246.437 138.737 244.712 135.362 244.85C132.487 244.95 118.725 248.6 116.75 249.187C110.575 250.9 89.2499 257.587 84.8749 260.587C83.9658 261.068 83.2383 261.832 82.8029 262.764C82.3675 263.696 82.248 264.744 82.4624 265.75C83.3374 272.6 94.1624 307.4 96.2999 314.112C94.538 314.75 92.9468 315.785 91.6499 317.137C90.3999 313.05 77.6624 270.237 77.0749 266C76.7286 264.291 76.9005 262.518 77.5686 260.908C78.2368 259.298 79.3707 257.924 80.8249 256.962C87.3749 252.2 128.65 241.25 131.925 240.512ZM144.325 280.512C144.287 280.544 144.257 280.584 144.237 280.63C144.217 280.676 144.209 280.725 144.212 280.775L144.337 281.737L143.987 281.112C143.887 280.95 143.775 280.95 143.6 280.987C143.048 281.154 142.465 281.187 141.898 281.085C141.331 280.983 140.796 280.748 140.337 280.4L139.812 278.75C140.601 278.82 141.393 278.676 142.106 278.333C142.819 277.99 143.426 277.46 143.862 276.8L144.887 278.25C145.006 278.637 145.016 279.049 144.917 279.441C144.818 279.833 144.613 280.191 144.325 280.475V280.512ZM143.3 283.812C142.426 283.941 141.535 283.741 140.8 283.25C140.502 282.961 140.289 282.596 140.186 282.195C140.082 281.794 140.091 281.371 140.212 280.975C141.097 281.592 142.181 281.855 143.25 281.712C143.137 282.388 143.154 283.08 143.3 283.75V283.812ZM134.825 275.212C134.783 275.26 134.725 275.291 134.662 275.3C134.508 275.298 134.355 275.261 134.217 275.192C134.078 275.122 133.957 275.023 133.862 274.9C133.71 274.754 133.597 274.572 133.533 274.371C133.47 274.17 133.458 273.956 133.5 273.75C133.612 273.525 133.862 273.562 134.1 273.675C134.299 274.194 134.542 274.696 134.825 275.175V275.212ZM138.25 265.125C141.612 265.125 144.387 269.112 144.35 272.975C143.984 272.345 143.402 271.871 142.711 271.641C142.021 271.411 141.27 271.441 140.6 271.725C140.649 271.595 140.687 271.461 140.712 271.325C140.734 271.258 140.728 271.186 140.697 271.124C140.665 271.062 140.61 271.015 140.544 270.993C140.477 270.972 140.405 270.978 140.343 271.009C140.281 271.041 140.234 271.096 140.212 271.162C140.151 271.325 140.071 271.48 139.975 271.625C139.916 271.728 139.823 271.807 139.712 271.85C139.525 271.912 139.275 271.7 139.125 271.487C138.735 270.876 138.475 270.191 138.362 269.475C138.349 269.416 138.317 269.364 138.27 269.327C138.224 269.29 138.166 269.269 138.106 269.269C138.046 269.269 137.989 269.29 137.942 269.327C137.895 269.364 137.863 269.416 137.85 269.475C137.85 270.487 138.287 271.975 139.187 272.362C137.112 273.7 136.687 275.375 137.262 276.925C132.25 272.837 133.762 265 138.25 265.087V265.125ZM141.637 273.087C141.877 273.071 142.117 273.107 142.341 273.194C142.565 273.282 142.766 273.418 142.931 273.592C143.096 273.767 143.22 273.976 143.295 274.204C143.37 274.432 143.393 274.674 143.362 274.912C143.2 276.987 140.337 278.4 139.112 276.962C137.887 275.525 139.575 273.05 141.637 273.05V273.087ZM144.275 269.337C144.318 269.196 144.406 269.074 144.525 268.987C144.95 268.775 145.237 269.512 145.262 270C145.287 270.487 145.112 270.9 144.75 270.875C144.635 270.354 144.476 269.844 144.275 269.35V269.337ZM145.462 278.35C146.712 278.487 147.437 280.2 146.325 282.25C146.134 281.56 145.687 280.97 145.075 280.6C145.289 280.273 145.433 279.906 145.5 279.521C145.567 279.136 145.554 278.742 145.462 278.362V278.35ZM134.625 283.112C132.625 281.487 130.5 281.575 129.737 280.712C129.656 280.595 129.605 280.461 129.587 280.32C129.57 280.178 129.587 280.035 129.638 279.902C129.688 279.769 129.77 279.651 129.877 279.556C129.984 279.462 130.112 279.396 130.25 279.362C131.435 278.999 132.701 278.997 133.887 279.355C135.074 279.714 136.127 280.417 136.912 281.375C137.849 282.472 138.555 283.748 138.987 285.125C139.406 286.437 139.682 287.791 139.812 289.162L137.312 290.562C137.531 289.196 137.4 287.797 136.93 286.496C136.459 285.195 135.666 284.035 134.625 283.125V283.112ZM135.037 292.937C134.981 292.98 134.944 293.044 134.935 293.114C134.925 293.185 134.944 293.256 134.987 293.312C135.031 293.369 135.094 293.406 135.165 293.415C135.235 293.424 135.306 293.405 135.362 293.362C135.663 293.141 135.935 292.885 136.175 292.6C136.525 293.175 137.087 294.037 137.425 294.537C137.337 296.887 134.275 297.85 132.7 296.562C132.587 296.025 132.325 295.1 132.1 294.425H132.85C132.911 294.411 132.966 294.378 133.006 294.329C133.045 294.28 133.067 294.219 133.067 294.156C133.067 294.093 133.045 294.032 133.006 293.983C132.966 293.934 132.911 293.901 132.85 293.887C132.125 293.96 131.392 293.868 130.708 293.617C130.024 293.366 129.406 292.962 128.9 292.437C127.412 290.762 127.487 287.65 128.225 285.525C128.35 285.514 128.475 285.514 128.6 285.525C128.673 285.541 128.749 285.53 128.814 285.495C128.88 285.46 128.931 285.403 128.958 285.333C128.986 285.264 128.987 285.187 128.963 285.117C128.938 285.047 128.889 284.987 128.825 284.95C128.709 284.891 128.588 284.845 128.462 284.812C128.911 283.796 129.295 282.752 129.612 281.687C129.675 281.362 129.612 281.362 129.775 281.487C130.825 282.212 133.887 282.225 135.625 285.162C137.162 287.75 137.25 291.012 135.037 292.95V292.937ZM129.012 281.587C128.65 282.837 128.275 283.462 127.762 284.825C127.537 284.876 127.327 284.982 127.15 285.132C126.974 285.282 126.837 285.473 126.75 285.687C126.71 285.76 126.701 285.846 126.724 285.926C126.748 286.005 126.802 286.072 126.875 286.112C126.948 286.152 127.034 286.161 127.113 286.138C127.193 286.114 127.26 286.06 127.3 285.987C127.33 285.928 127.368 285.874 127.412 285.825C126.924 287.397 126.859 289.07 127.225 290.675C127.397 291.431 127.753 292.134 128.261 292.72C128.769 293.307 129.413 293.759 130.137 294.037L127.962 294.962C125.712 292.675 123.7 288.275 124.212 284.962C124.65 282.35 126.912 280.4 128.275 280.287C128.975 280.225 129.162 280.975 129.012 281.6V281.587ZM118.837 287.837C119.244 288.984 119.849 290.05 120.625 290.987C120.225 293.487 117.962 294.512 115.5 293.225C115.274 291.967 114.852 290.752 114.25 289.625C114.229 289.587 114.2 289.555 114.166 289.529C114.131 289.503 114.092 289.485 114.05 289.475C113.412 289.362 111.225 288.587 109.725 283.75C107.85 277.675 112.7 278.462 113.975 276.45C115.15 277.85 117.562 277.95 118.537 280.762C119.327 282.967 119.432 285.359 118.837 287.625C118.816 287.69 118.816 287.76 118.837 287.825V287.837ZM115.312 293.687C117.9 295.262 120.825 294.075 121.175 291.187L122.425 291.1C122.384 291.992 122.097 292.856 121.595 293.595C121.094 294.334 120.397 294.92 119.583 295.288C118.769 295.655 117.869 295.79 116.983 295.678C116.097 295.565 115.259 295.209 114.562 294.65C114.83 294.338 115.08 294.013 115.312 293.675V293.687ZM145.312 277.75L144.212 276.25C144.922 274.787 145.154 273.139 144.875 271.537C145.55 271.537 145.937 270.662 145.887 270C145.812 268.875 145.062 268.037 144.225 268.475L143.937 267.65C144.75 267 144.775 265.5 143.737 265.225C143.955 264.926 144.074 264.566 144.076 264.197C144.079 263.827 143.965 263.466 143.75 263.164C143.536 262.863 143.232 262.637 142.882 262.517C142.532 262.398 142.154 262.392 141.8 262.5C141.769 262.061 141.59 261.645 141.293 261.321C140.996 260.996 140.597 260.782 140.163 260.712C139.728 260.643 139.283 260.722 138.9 260.938C138.516 261.153 138.217 261.492 138.05 261.9C137.87 261.704 137.641 261.561 137.386 261.486C137.132 261.411 136.862 261.407 136.605 261.473C136.348 261.54 136.114 261.676 135.928 261.865C135.742 262.055 135.611 262.292 135.55 262.55C134.062 261.1 131.462 262.825 132.125 264.975C129.762 264.862 129.05 268.55 131.212 269.537C131.003 269.814 130.882 270.149 130.865 270.496C130.848 270.843 130.937 271.187 131.12 271.483C131.302 271.779 131.57 272.013 131.887 272.155C132.205 272.296 132.558 272.338 132.9 272.275L133.35 273.125C132.1 273.675 133.212 276.075 134.6 275.95C134.767 275.925 134.925 275.861 135.062 275.762C135.977 277.198 137.387 278.247 139.025 278.712L139.575 280.425C138.975 280.8 138.4 281.2 137.837 281.675C134.725 277.525 129.412 278.087 128.912 279.975C128.595 279.848 128.251 279.801 127.911 279.838C127.571 279.875 127.245 279.995 126.962 280.187C126.11 280.665 125.367 281.317 124.783 282.101C124.2 282.885 123.788 283.783 123.575 284.737C122.227 283.536 121.379 281.872 121.2 280.075C120.962 276.937 120.45 273.512 117.362 272.762C116.774 272.653 116.169 272.667 115.587 272.803C115.004 272.938 114.455 273.193 113.975 273.55C112.76 272.992 111.387 272.881 110.097 273.236C108.808 273.59 107.685 274.387 106.925 275.487C104.862 278.075 105.2 281.162 107.962 284.925C110.1 287.85 107.55 292.85 112.1 296.025C111.6 296.475 111.075 296.95 110.512 297.537C108.712 292.975 102.55 276.75 101.112 273.062C115.2 267.25 128.262 262.5 142.6 257.25C145.737 264.212 148.475 270.762 150.962 277.25C149.051 277.219 147.141 277.382 145.262 277.737L145.312 277.75ZM110.937 298.05C112.1 296.8 113.15 296 114.15 295.037C114.915 295.726 115.864 296.177 116.881 296.334C117.899 296.491 118.94 296.347 119.877 295.921C120.814 295.495 121.606 294.805 122.156 293.935C122.707 293.065 122.991 292.054 122.975 291.025L124.612 290.9C125.314 292.683 126.349 294.316 127.662 295.712C127.724 295.751 127.796 295.772 127.869 295.772C127.942 295.772 128.013 295.751 128.075 295.712L131 294.375C131.033 294.383 131.067 294.383 131.1 294.375H131.5C131.612 294.862 131.812 295.625 132.087 296.412C128.337 298.462 126.65 301.187 127 304.725C127.001 304.755 127.01 304.785 127.026 304.811C127.041 304.837 127.063 304.859 127.089 304.875C127.114 304.891 127.144 304.9 127.174 304.903C127.204 304.905 127.235 304.899 127.262 304.887C132.187 302.85 147.487 296.687 147.9 296.537C148.037 296.537 148.075 296.4 147.975 296.287C145.562 293.337 142.537 292.637 137.862 293.937C137.55 293.4 137.05 292.625 136.612 292.062C136.733 291.873 136.841 291.677 136.937 291.475L140.412 289.725C140.479 289.689 140.533 289.634 140.568 289.567C140.604 289.5 140.619 289.425 140.612 289.35C140.434 286.777 139.646 284.283 138.312 282.075C138.75 281.737 139.2 281.425 139.65 281.125C139.187 283.625 141.3 284.762 143.762 284.35C143.802 284.341 143.84 284.324 143.874 284.3C143.907 284.277 143.935 284.246 143.956 284.211C143.977 284.176 143.991 284.137 143.996 284.096C144.002 284.055 143.999 284.014 143.987 283.975C143.797 283.313 143.741 282.62 143.825 281.937L144.55 283C144.578 283.045 144.621 283.08 144.672 283.097C144.722 283.115 144.777 283.116 144.828 283.098C144.879 283.081 144.922 283.047 144.951 283.002C144.98 282.957 144.993 282.903 144.987 282.85L144.875 281.25C145.438 281.667 145.829 282.276 145.975 282.962C145.986 283.006 146.008 283.046 146.039 283.078C146.071 283.11 146.11 283.134 146.154 283.145C146.197 283.157 146.243 283.156 146.287 283.144C146.33 283.131 146.369 283.108 146.4 283.075C147.937 281.462 147.762 278.975 146.487 278.137C148.077 277.867 149.688 277.746 151.3 277.775C153.712 284.025 155.625 289.425 157.15 294.025C147.15 297.925 115.987 310.375 115.987 310.375C114.175 306.225 112.487 302.1 110.862 298.025L110.937 298.05ZM114.012 316.8C114.032 316.844 114.067 316.878 114.111 316.897C114.155 316.916 114.205 316.917 114.25 316.9C124.075 313.412 139.462 307.15 150.712 302.487C151.3 304.087 152.825 307.637 153.325 308.737C145.7 312.637 134.337 318.862 112.075 328.862C101.762 308.75 100.05 303.75 92.8749 289.225C92.8749 289.225 100.187 285.662 101.262 285.112C105.262 295.712 109.25 306.337 113.962 316.737L114.012 316.8ZM166.662 303.75C168.987 298.75 174.987 286.925 179.062 290.587C181.562 292.825 181.975 299.337 182.025 302.025C182.08 312.8 179.637 323.44 174.887 333.112C173.975 329.6 171.062 318.475 166.662 303.75ZM166.275 302.437C163.775 294.112 160.537 283.887 157.712 275.65C159.775 272.275 162.275 268.85 165.212 268.85C169.15 268.85 170.275 275.787 170.487 279.712C170.748 287.523 169.311 295.298 166.275 302.5V302.437ZM102.25 352.687C101.337 352 99.8624 350.912 98.6874 350.125C99.1749 348.712 99.5874 347.337 99.9374 346.012C100.737 348.225 101.462 350.362 102.25 352.687Z" fill="black"/>
<path d="M130.05 336.25L132.4 337.575C132.47 337.615 132.548 337.64 132.628 337.65C132.709 337.66 132.79 337.653 132.868 337.631C132.946 337.609 133.019 337.572 133.082 337.521C133.145 337.471 133.198 337.408 133.237 337.338L134.675 334.625L137.937 344.625C137.983 344.765 138.071 344.886 138.191 344.971C138.31 345.057 138.453 345.102 138.6 345.1C139.593 344.877 140.564 344.564 141.5 344.163C141.675 344.103 141.82 343.976 141.902 343.809C141.984 343.643 141.997 343.451 141.937 343.275L138.6 333.638L140.737 334.663C140.881 334.73 141.044 334.74 141.195 334.692C141.346 334.643 141.473 334.539 141.55 334.4L142.925 331.9C142.964 331.828 142.988 331.749 142.995 331.668C143.003 331.586 142.995 331.504 142.97 331.426C142.946 331.348 142.906 331.276 142.853 331.213C142.8 331.151 142.735 331.1 142.662 331.063L134.75 327.288C134.557 327.197 134.337 327.185 134.136 327.255C133.935 327.325 133.769 327.472 133.675 327.663L129.75 335.4C129.712 335.475 129.69 335.557 129.684 335.641C129.679 335.725 129.691 335.81 129.719 335.889C129.747 335.968 129.791 336.041 129.847 336.103C129.904 336.165 129.973 336.215 130.05 336.25Z" fill="black"/>
<path d="M127.25 355.913C127.321 356.114 127.468 356.28 127.659 356.376C127.85 356.471 128.071 356.489 128.275 356.425L157.187 347.188C157.391 347.121 157.56 346.979 157.661 346.79C157.761 346.601 157.784 346.381 157.725 346.175L154.75 336.413C154.72 336.31 154.67 336.214 154.602 336.131C154.535 336.047 154.452 335.978 154.358 335.927C154.264 335.876 154.161 335.844 154.054 335.833C153.948 335.822 153.84 335.832 153.737 335.863L151.3 336.588C151.196 336.618 151.099 336.668 151.014 336.736C150.93 336.804 150.86 336.889 150.809 336.984C150.758 337.08 150.726 337.185 150.716 337.292C150.706 337.4 150.717 337.509 150.75 337.613L152.587 343.788C152.619 343.9 152.605 344.021 152.549 344.123C152.493 344.226 152.399 344.303 152.287 344.338L130.5 351.313C130.387 351.348 130.265 351.338 130.16 351.284C130.054 351.23 129.975 351.137 129.937 351.025L127.7 344.438C127.666 344.335 127.612 344.241 127.542 344.16C127.471 344.078 127.385 344.012 127.288 343.964C127.192 343.917 127.087 343.889 126.979 343.882C126.872 343.875 126.764 343.89 126.662 343.925L124.25 344.738C124.045 344.809 123.877 344.957 123.781 345.151C123.685 345.346 123.67 345.57 123.737 345.775L127.25 355.913ZM132.25 288.45C132.309 288.424 132.358 288.377 132.386 288.318C132.414 288.259 132.42 288.192 132.404 288.129C132.387 288.066 132.349 288.011 132.296 287.974C132.242 287.936 132.177 287.919 132.112 287.925C131.911 287.97 131.702 287.97 131.5 287.925C131.237 287.838 131.412 287.563 131.6 287.313C131.624 287.29 131.643 287.263 131.657 287.233C131.67 287.203 131.677 287.171 131.677 287.138C131.677 287.105 131.67 287.072 131.657 287.042C131.643 287.012 131.624 286.985 131.6 286.963C131.487 286.875 131.3 286.963 131.125 287.05C131.025 287.115 130.94 287.2 130.874 287.3C130.809 287.399 130.765 287.511 130.745 287.629C130.725 287.746 130.729 287.866 130.758 287.982C130.787 288.097 130.84 288.206 130.912 288.3C131.093 288.459 131.318 288.559 131.557 288.586C131.797 288.612 132.038 288.565 132.25 288.45ZM133.225 288.65C133.198 288.861 133.12 289.062 132.998 289.236C132.876 289.411 132.714 289.553 132.525 289.65C132.124 289.811 131.676 289.811 131.275 289.65C131.202 289.61 131.116 289.601 131.036 289.625C130.957 289.648 130.89 289.702 130.85 289.775C130.81 289.848 130.801 289.934 130.824 290.014C130.848 290.093 130.902 290.16 130.975 290.2C131.294 290.405 131.665 290.514 132.044 290.514C132.423 290.514 132.794 290.405 133.112 290.2C133.373 290.039 133.583 289.809 133.72 289.535C133.857 289.261 133.915 288.955 133.887 288.65C133.887 288.562 133.852 288.478 133.79 288.416C133.728 288.354 133.644 288.319 133.556 288.319C133.468 288.319 133.384 288.354 133.322 288.416C133.26 288.478 133.225 288.562 133.225 288.65ZM132.637 284.763C132.087 284.988 132.425 286.013 133.012 286.013C133.096 286.013 133.178 285.989 133.247 285.942C133.316 285.895 133.369 285.828 133.4 285.75C133.612 285.313 133.1 284.575 132.637 284.763ZM129.362 286.538C128.912 286.213 128.462 286.675 128.712 287.3C128.85 287.613 129.162 287.875 129.45 287.75C129.737 287.625 129.75 286.825 129.362 286.538ZM131.587 283.975C131.708 283.764 131.898 283.601 132.125 283.513C132.366 283.444 132.621 283.444 132.862 283.513C132.937 283.535 133.017 283.529 133.087 283.496C133.157 283.463 133.213 283.405 133.242 283.333C133.272 283.261 133.274 283.181 133.247 283.108C133.221 283.035 133.168 282.974 133.1 282.938C132.921 282.835 132.723 282.772 132.518 282.753C132.313 282.734 132.107 282.759 131.912 282.827C131.718 282.894 131.54 283.003 131.392 283.145C131.243 283.287 131.126 283.459 131.05 283.65C131.007 283.721 130.994 283.807 131.014 283.888C131.034 283.969 131.085 284.038 131.156 284.081C131.227 284.124 131.313 284.137 131.394 284.118C131.475 284.098 131.544 284.046 131.587 283.975ZM117.125 285.275C116.8 285.188 116.8 285.55 116.325 285.925C116.063 286.134 115.742 286.255 115.408 286.271C115.073 286.287 114.742 286.196 114.462 286.013C114.399 285.958 114.317 285.93 114.234 285.936C114.151 285.942 114.073 285.981 114.019 286.044C113.964 286.107 113.936 286.189 113.942 286.272C113.948 286.355 113.987 286.433 114.05 286.488C114.291 286.732 114.592 286.91 114.922 287.003C115.253 287.095 115.602 287.1 115.935 287.017C116.269 286.934 116.574 286.765 116.822 286.528C117.07 286.29 117.252 285.992 117.35 285.663C117.361 285.622 117.364 285.58 117.359 285.539C117.354 285.497 117.34 285.457 117.319 285.421C117.298 285.385 117.27 285.354 117.237 285.329C117.203 285.303 117.165 285.285 117.125 285.275ZM115.475 284.775C115.543 284.739 115.596 284.678 115.622 284.605C115.649 284.532 115.647 284.452 115.617 284.38C115.588 284.308 115.532 284.25 115.462 284.217C115.392 284.183 115.312 284.177 115.237 284.2C114.612 284.5 114.375 283.138 114.375 282.45C114.384 282.405 114.383 282.358 114.372 282.313C114.361 282.268 114.34 282.226 114.311 282.19C114.281 282.154 114.244 282.125 114.202 282.106C114.161 282.086 114.115 282.075 114.069 282.075C114.022 282.075 113.977 282.086 113.935 282.106C113.893 282.125 113.856 282.154 113.827 282.19C113.797 282.226 113.776 282.268 113.765 282.313C113.754 282.358 113.753 282.405 113.762 282.45C113.762 283.75 114.262 285.238 115.475 284.775ZM112.612 280.338C112.612 280.025 112.125 279.913 111.837 279.938C111.537 279.992 111.262 280.143 111.056 280.369C110.851 280.595 110.725 280.883 110.7 281.188C110.694 281.232 110.699 281.276 110.712 281.319C110.725 281.361 110.747 281.4 110.777 281.433C110.807 281.466 110.843 281.493 110.883 281.511C110.924 281.529 110.968 281.538 111.012 281.538C111.437 281.538 111.45 280.638 112.262 280.638C112.5 280.663 112.625 280.513 112.612 280.338ZM114.262 279.363C114.512 279.363 115.025 278.925 115.762 279.263C115.839 279.297 115.926 279.301 116.005 279.273C116.084 279.245 116.15 279.188 116.187 279.113C116.4 278.625 115.1 277.863 114.05 278.825C114.005 278.868 113.974 278.923 113.961 278.984C113.948 279.044 113.953 279.107 113.976 279.165C113.999 279.223 114.038 279.272 114.089 279.307C114.14 279.343 114.2 279.362 114.262 279.363ZM112.512 282.4C111.912 282.7 112.512 283.975 113.15 283.65C113.787 283.325 113.112 282.113 112.512 282.4ZM115.262 280.95C114.675 281.238 115.262 282.525 115.9 282.2C116.537 281.875 115.875 280.65 115.262 280.95ZM139.512 275.138C140.267 275.108 140.993 274.841 141.587 274.375C141.837 275.488 141.437 276.175 140.775 276.45C140.724 276.474 140.684 276.515 140.659 276.565C140.634 276.615 140.627 276.672 140.639 276.727C140.65 276.781 140.68 276.831 140.723 276.867C140.765 276.903 140.819 276.923 140.875 276.925C141.236 276.865 141.567 276.684 141.812 276.413C142.114 276.015 142.299 275.541 142.345 275.044C142.391 274.547 142.298 274.047 142.075 273.6C142.039 273.519 141.974 273.455 141.893 273.421C141.812 273.386 141.72 273.383 141.637 273.413C141.022 274.003 140.271 274.433 139.45 274.663C139.387 274.671 139.33 274.704 139.291 274.754C139.252 274.805 139.235 274.868 139.244 274.931C139.252 274.994 139.285 275.051 139.335 275.09C139.386 275.129 139.449 275.146 139.512 275.138ZM140.825 268.575C140.699 268.568 140.575 268.6 140.468 268.667C140.361 268.733 140.278 268.831 140.228 268.947C140.179 269.062 140.167 269.19 140.193 269.313C140.219 269.436 140.282 269.548 140.374 269.634C140.465 269.72 140.581 269.776 140.706 269.793C140.83 269.811 140.957 269.79 141.069 269.733C141.181 269.676 141.273 269.586 141.332 269.475C141.391 269.364 141.415 269.237 141.4 269.113C141.39 268.967 141.326 268.83 141.219 268.73C141.112 268.63 140.971 268.575 140.825 268.575ZM137.137 270.788C137.159 270.69 137.157 270.589 137.131 270.492C137.105 270.396 137.056 270.307 136.988 270.234C136.92 270.161 136.835 270.106 136.74 270.073C136.646 270.04 136.545 270.031 136.446 270.047C136.347 270.062 136.254 270.101 136.174 270.161C136.093 270.221 136.029 270.299 135.986 270.39C135.944 270.48 135.924 270.58 135.928 270.679C135.933 270.779 135.962 270.876 136.012 270.963C136.07 271.075 136.161 271.166 136.274 271.223C136.386 271.28 136.513 271.3 136.638 271.281C136.762 271.261 136.878 271.203 136.967 271.115C137.057 271.026 137.116 270.912 137.137 270.788ZM141 266.925C141.056 266.905 141.107 266.873 141.151 266.831C141.194 266.79 141.229 266.741 141.252 266.686C141.276 266.63 141.287 266.571 141.287 266.511C141.287 266.452 141.274 266.392 141.25 266.338C141.075 265.775 140 265.75 139.425 266.05C139.15 266.188 138.95 266.388 138.962 266.65C138.975 266.913 139.237 267.113 139.562 267.125C140.05 267.147 140.537 267.079 141 266.925ZM137.25 268.413C137.25 268.075 136.962 267.738 136.325 267.9C136.007 267.978 135.717 268.142 135.487 268.375C134.937 268.925 135.237 269.488 135.675 269.488C136.112 269.488 137.112 268.863 137.25 268.413ZM197.962 250.213C194 244.488 185.337 232.063 180.862 226.75C180.829 226.723 180.787 226.708 180.744 226.708C180.7 226.708 180.658 226.723 180.625 226.75L154.862 241.788C154.793 241.831 154.744 241.9 154.726 241.98C154.707 242.059 154.72 242.143 154.762 242.213C160.187 250.863 167.175 260.163 173.187 268.463C173.21 268.496 173.239 268.525 173.273 268.546C173.306 268.568 173.344 268.583 173.384 268.59C173.424 268.597 173.464 268.596 173.503 268.587C173.543 268.578 173.58 268.561 173.612 268.538C181.112 263.238 187.762 258.538 197.9 250.663C197.934 250.638 197.964 250.606 197.986 250.57C198.008 250.534 198.022 250.493 198.028 250.451C198.034 250.409 198.031 250.366 198.02 250.325C198.008 250.284 197.989 250.246 197.962 250.213ZM177.312 240.8C177.276 240.766 177.231 240.742 177.183 240.73C177.134 240.719 177.084 240.72 177.036 240.734C176.988 240.748 176.944 240.774 176.909 240.809C176.875 240.845 176.85 240.889 176.837 240.938C176.788 241.322 176.591 241.672 176.287 241.913C175.85 242.113 175.437 241.488 175.2 241.45C175.127 241.439 175.053 241.456 174.993 241.498C174.932 241.54 174.89 241.603 174.875 241.675C174.725 242.588 174.225 243.55 173.5 243.638C172.775 243.725 172.65 243.413 172.462 243.538C172.426 243.557 172.395 243.585 172.373 243.621C172.352 243.656 172.34 243.696 172.34 243.738C172.34 243.779 172.352 243.819 172.373 243.855C172.395 243.89 172.426 243.919 172.462 243.938C173.612 244.538 174.875 244.025 175.325 242.213C175.482 242.358 175.678 242.454 175.889 242.49C176.1 242.525 176.316 242.498 176.512 242.413C176.847 242.224 177.097 241.916 177.212 241.55C178.448 243.038 179.175 244.882 179.287 246.813C179.678 247.704 180.215 248.523 180.875 249.238C180.562 250.488 179.962 251.163 177.887 251.125C177.636 250.335 177.278 249.582 176.825 248.888C176.537 248.45 174.537 249.038 172.35 244.438C172.322 244.38 172.274 244.335 172.215 244.312C172.155 244.289 172.089 244.29 172.03 244.314C171.971 244.338 171.924 244.383 171.897 244.441C171.871 244.499 171.867 244.565 171.887 244.625C172.096 245.183 172.342 245.726 172.625 246.25C171.075 246.788 169.562 244.588 171.75 243.488C171.8 243.471 171.843 243.439 171.874 243.397C171.905 243.354 171.922 243.303 171.922 243.25C171.922 243.197 171.905 243.146 171.874 243.104C171.843 243.061 171.8 243.029 171.75 243.013C169.45 242.463 169.1 240.675 170.412 239.075C171.725 237.475 173.387 237.575 174.775 239.613C174.796 239.652 174.828 239.684 174.867 239.707C174.905 239.73 174.949 239.742 174.994 239.742C175.038 239.742 175.082 239.73 175.121 239.707C175.159 239.684 175.191 239.652 175.212 239.613C175.356 239.299 175.595 239.039 175.897 238.87C176.198 238.702 176.545 238.633 176.887 238.675C177.662 238.788 177.725 239.4 177.737 240.013V240.238C177.737 240.675 178.475 240.238 178.787 241.225C178.852 241.436 178.866 241.658 178.829 241.875C178.792 242.092 178.705 242.298 178.575 242.475C178.227 241.865 177.803 241.302 177.312 240.8ZM174.812 256.838C175.362 254.884 176.374 253.092 177.762 251.613C178.556 251.788 179.385 251.7 180.125 251.363C180.487 251.154 180.791 250.859 181.009 250.503C181.227 250.147 181.353 249.742 181.375 249.325C182.982 248.556 184.747 248.172 186.528 248.205C188.31 248.237 190.059 248.685 191.637 249.513C187.112 252.863 179.6 258.15 174.95 261.413C174.436 259.936 174.401 258.335 174.85 256.838H174.812ZM192.087 249.175C190.441 248.23 188.589 247.701 186.692 247.634C184.794 247.566 182.909 247.962 181.2 248.788C180.707 248.124 180.248 247.435 179.825 246.725C179.792 245.314 179.414 243.932 178.725 242.7C178.985 242.502 179.178 242.23 179.278 241.92C179.379 241.609 179.382 241.275 179.287 240.963C179.241 240.688 179.112 240.435 178.918 240.236C178.724 240.037 178.473 239.902 178.2 239.85C178.277 239.426 178.193 238.988 177.966 238.622C177.738 238.256 177.382 237.988 176.968 237.869C176.553 237.751 176.109 237.791 175.722 237.981C175.336 238.172 175.034 238.499 174.875 238.9C171.462 234.175 166 241.675 170.937 243.275C170.516 243.519 170.203 243.916 170.064 244.383C169.924 244.849 169.968 245.352 170.187 245.788C170.406 246.223 170.782 246.559 171.24 246.726C171.698 246.893 172.202 246.88 172.65 246.688C172.714 246.671 172.773 246.641 172.825 246.6C173.183 247.283 173.689 247.879 174.305 248.343C174.921 248.808 175.632 249.13 176.387 249.288C176.725 249.938 177.037 250.538 177.312 251.288C174.5 254.3 172.975 257.988 174.487 261.75L173 262.813C171.75 260.95 168.262 256.688 158.625 242.688C165.95 237.913 173.837 233.138 179.8 229.888C185.237 236.45 191.35 245.45 193.25 248.3L192.087 249.175ZM152.437 213.35C152.846 213.38 153.254 213.287 153.609 213.081C153.963 212.876 154.247 212.568 154.425 212.199C154.602 211.83 154.663 211.415 154.601 211.01C154.54 210.606 154.357 210.229 154.078 209.929C153.798 209.629 153.435 209.421 153.036 209.331C152.636 209.24 152.218 209.273 151.838 209.424C151.457 209.574 151.13 209.836 150.9 210.176C150.671 210.515 150.548 210.915 150.55 211.325C150.533 211.844 150.722 212.348 151.076 212.727C151.429 213.107 151.919 213.331 152.437 213.35ZM152.437 209.913C152.725 209.877 153.016 209.93 153.272 210.064C153.529 210.198 153.738 210.407 153.873 210.663C154.008 210.919 154.062 211.21 154.027 211.497C153.992 211.785 153.871 212.054 153.679 212.271C153.488 212.488 153.234 212.641 152.953 212.71C152.673 212.78 152.377 212.762 152.107 212.659C151.836 212.556 151.603 212.374 151.439 212.135C151.275 211.897 151.187 211.615 151.187 211.325C151.17 210.973 151.291 210.628 151.525 210.364C151.758 210.1 152.086 209.938 152.437 209.913ZM141 215C143.338 214.769 145.694 214.802 148.025 215.1C150.387 215.393 152.715 215.917 154.975 216.663C155.031 216.671 155.088 216.658 155.135 216.626C155.182 216.594 155.215 216.546 155.228 216.49C155.241 216.435 155.232 216.377 155.204 216.328C155.175 216.278 155.129 216.242 155.075 216.225C150.587 214.434 145.71 213.843 140.925 214.513C140.637 214.5 140.55 215 141 215ZM143.225 210.3C144.707 211.207 146.012 212.376 147.075 213.75C147.117 213.787 147.17 213.809 147.225 213.813C147.281 213.816 147.336 213.801 147.382 213.769C147.429 213.738 147.463 213.691 147.479 213.638C147.496 213.585 147.495 213.527 147.475 213.475C146.225 210.975 143.587 209.725 143.237 209.9C143.203 209.921 143.175 209.949 143.154 209.984C143.134 210.018 143.123 210.057 143.122 210.097C143.12 210.137 143.129 210.176 143.147 210.212C143.165 210.247 143.192 210.278 143.225 210.3ZM106.625 199.138C112.037 203.188 111.775 203.05 111.9 203.05C112.025 203.05 111.9 203.338 114.537 198.7C118.562 199.6 120.012 200.225 120.587 200.35C121.162 200.475 121.087 199.938 120.825 199.838C118.885 199.139 116.906 198.55 114.9 198.075L115.4 197.213C115.416 197.196 115.43 197.177 115.439 197.155C115.448 197.134 115.452 197.111 115.452 197.088C115.452 197.064 115.448 197.041 115.439 197.02C115.43 196.998 115.416 196.979 115.4 196.963L110.325 194.025C110.289 193.997 110.245 193.981 110.2 193.981C110.154 193.981 110.11 193.997 110.075 194.025L106.65 198.838C106.622 198.851 106.599 198.871 106.582 198.896C106.565 198.921 106.554 198.95 106.552 198.981C106.549 199.011 106.555 199.041 106.568 199.069C106.58 199.096 106.6 199.12 106.625 199.138ZM114.312 197.363L114 197.888C112.931 197.662 111.85 197.5 110.762 197.4C110.708 197.395 110.653 197.406 110.604 197.431C110.556 197.456 110.515 197.494 110.488 197.542C110.46 197.589 110.447 197.643 110.449 197.698C110.451 197.752 110.469 197.805 110.5 197.85C110.637 198.038 110.612 197.85 113.65 198.513L111.787 201.688L107.775 198.75L110.362 195.113L114.312 197.363ZM157.175 266.363C159.395 261.756 160.524 256.701 160.475 251.588C160.461 251.523 160.426 251.465 160.375 251.424C160.323 251.382 160.259 251.36 160.194 251.36C160.128 251.36 160.064 251.382 160.013 251.424C159.961 251.465 159.926 251.523 159.912 251.588C159.653 256.58 158.545 261.492 156.637 266.113C156.5 266.438 157.012 266.688 157.175 266.363ZM133.837 206.625C138.75 210 138.5 210 138.787 210C138.838 209.991 138.885 209.968 138.924 209.934C138.962 209.9 138.99 209.855 139.005 209.806C139.019 209.756 139.019 209.704 139.005 209.654C138.991 209.604 138.963 209.56 138.925 209.525C137.48 208.203 135.871 207.073 134.137 206.163C134.076 206.123 134.001 206.109 133.93 206.124C133.858 206.14 133.796 206.183 133.756 206.244C133.716 206.305 133.702 206.38 133.718 206.451C133.733 206.523 133.776 206.585 133.837 206.625ZM181.287 266.55C181.284 266.474 181.254 266.401 181.201 266.345C181.148 266.29 181.076 266.256 181 266.25C180.15 266.25 181.637 268.625 178.5 285.588C178.495 285.655 178.513 285.723 178.553 285.778C178.593 285.833 178.651 285.872 178.717 285.889C178.783 285.905 178.852 285.898 178.913 285.868C178.974 285.838 179.023 285.787 179.05 285.725C180.997 279.532 181.757 273.026 181.287 266.55ZM134.062 200.325C139.387 201.988 140.5 202.825 140.837 202.725C140.889 202.705 140.933 202.67 140.965 202.624C140.996 202.578 141.013 202.524 141.013 202.469C141.013 202.413 140.996 202.359 140.965 202.314C140.933 202.268 140.889 202.233 140.837 202.213C138.741 201.116 136.509 200.301 134.2 199.788C134.129 199.769 134.053 199.78 133.99 199.818C133.926 199.855 133.881 199.916 133.862 199.988C133.844 200.059 133.855 200.135 133.892 200.198C133.93 200.261 133.991 200.307 134.062 200.325Z" fill="black"/>
<path d="M117.487 197.638L121.962 197.975L121.525 203.563C121.521 203.607 121.535 203.651 121.563 203.686C121.591 203.721 121.631 203.744 121.675 203.75C125.425 204.388 132.6 205.563 132.475 205.563C132.737 205.563 132.625 205.95 133.612 193.563C133.617 193.535 133.614 193.508 133.606 193.481C133.597 193.455 133.583 193.431 133.563 193.412C133.544 193.392 133.52 193.378 133.494 193.369C133.467 193.361 133.44 193.358 133.412 193.363L122.437 193.975C122.391 193.975 122.346 193.994 122.314 194.026C122.281 194.059 122.262 194.104 122.262 194.15L122.012 197.35C120.518 197.183 119.016 197.095 117.512 197.088C117.439 197.084 117.368 197.11 117.314 197.159C117.26 197.209 117.228 197.277 117.225 197.35C117.222 197.423 117.247 197.494 117.297 197.548C117.346 197.602 117.414 197.634 117.487 197.638ZM122.75 201.938C122.75 202.063 122.975 202.113 123.087 202.088C125.55 201.557 128.08 201.41 130.587 201.65C130.624 201.654 130.66 201.651 130.695 201.641C130.73 201.631 130.763 201.614 130.791 201.592C130.819 201.569 130.843 201.541 130.861 201.509C130.878 201.477 130.89 201.442 130.894 201.406C130.898 201.37 130.895 201.334 130.885 201.299C130.875 201.264 130.858 201.231 130.835 201.203C130.813 201.174 130.785 201.151 130.753 201.133C130.721 201.115 130.686 201.104 130.65 201.1C129.745 200.999 128.835 200.954 127.925 200.963V200.175C128.219 200.296 128.532 200.359 128.85 200.363C129.268 200.394 129.682 200.262 130.004 199.993C130.326 199.725 130.531 199.342 130.575 198.925C132.125 197.925 131.162 195.1 129.087 196.063C127.6 194.138 125.337 195.325 125.925 196.788C125.588 196.783 125.261 196.897 125.001 197.11C124.74 197.323 124.564 197.622 124.503 197.953C124.441 198.283 124.499 198.625 124.665 198.918C124.832 199.21 125.097 199.434 125.412 199.55C125.479 199.559 125.546 199.544 125.603 199.508C125.66 199.472 125.702 199.418 125.723 199.354C125.744 199.29 125.742 199.221 125.717 199.159C125.692 199.096 125.646 199.045 125.587 199.013C124.687 198.713 125.012 197.225 126.375 197.338C126.428 197.343 126.482 197.333 126.529 197.309C126.577 197.285 126.616 197.247 126.643 197.201C126.669 197.154 126.682 197.101 126.679 197.048C126.675 196.994 126.657 196.943 126.625 196.9C125.775 195.763 127.612 195.025 128.787 196.588C128.828 196.643 128.887 196.681 128.954 196.695C129.021 196.709 129.091 196.697 129.15 196.663C130.712 195.775 131.312 197.975 130.137 198.525C130.104 198.542 130.074 198.566 130.049 198.595C130.025 198.624 130.006 198.657 129.994 198.693C129.983 198.729 129.978 198.767 129.982 198.805C129.985 198.842 129.995 198.879 130.012 198.913C130 199.031 129.96 199.146 129.898 199.247C129.835 199.349 129.75 199.435 129.65 199.5C129.397 199.676 129.096 199.77 128.787 199.77C128.479 199.77 128.178 199.676 127.925 199.5V199.225C127.911 199.161 127.876 199.103 127.825 199.061C127.773 199.02 127.71 198.997 127.644 198.997C127.578 198.997 127.514 199.02 127.463 199.061C127.411 199.103 127.376 199.161 127.362 199.225V200.9H126.6L126.787 199.05C126.787 198.977 126.758 198.907 126.707 198.856C126.655 198.804 126.585 198.775 126.512 198.775C126.439 198.775 126.37 198.804 126.318 198.856C126.266 198.907 126.237 198.977 126.237 199.05L126.037 200.963C124.969 201.031 123.911 201.224 122.887 201.538C122.821 201.553 122.762 201.593 122.725 201.65L123.012 198.05C123.325 198.05 123.45 198.125 123.575 198.05C123.648 198.04 123.714 198.002 123.758 197.943C123.803 197.884 123.822 197.811 123.812 197.738C123.802 197.665 123.764 197.599 123.705 197.554C123.647 197.51 123.573 197.49 123.5 197.5H123.112L123.312 195L132.437 194.488L131.65 203.75L122.712 202.5L122.75 201.938ZM165.087 233.988C163.503 229.953 161.353 226.165 158.7 222.738C158.656 222.685 158.594 222.65 158.526 222.641C158.457 222.632 158.388 222.649 158.332 222.688C158.275 222.727 158.236 222.786 158.22 222.853C158.205 222.92 158.216 222.99 158.25 223.05C160.608 226.654 162.722 230.412 164.575 234.3C164.616 234.368 164.683 234.417 164.76 234.436C164.838 234.454 164.919 234.442 164.987 234.4C165.055 234.359 165.104 234.292 165.123 234.215C165.142 234.137 165.129 234.056 165.087 233.988ZM140.212 205.438C138.421 204.387 136.538 203.5 134.587 202.788C134.519 202.757 134.442 202.755 134.372 202.781C134.302 202.806 134.245 202.858 134.212 202.925C134.185 202.994 134.184 203.07 134.21 203.139C134.235 203.208 134.285 203.265 134.35 203.3C135.45 203.8 139.937 205.963 140.062 205.963C140.123 205.96 140.181 205.939 140.228 205.901C140.276 205.864 140.311 205.813 140.327 205.754C140.344 205.696 140.342 205.634 140.321 205.577C140.3 205.521 140.262 205.472 140.212 205.438Z" fill="black"/>
<path d="M215.542 270.96L215.158 271.824H196.054L203.734 252.624L197.014 245.904V223.632L198.358 222.192L206.614 212.016L214.582 204.048H252.214V259.92L243.19 271.248V271.824H225.43V257.232L224.374 259.92L215.542 270.96ZM212.854 238.128V231.408H227.254V238.128H212.854ZM205.846 217.296L198.838 224.304V245.232L205.846 252.24L198.838 270H213.91L220.918 252.24H227.254V270H241.366V217.296H205.846ZM301.42 271.248V271.824H255.244V215.472H255.628L264.844 204.048H310.444V228.24L304.492 235.728H310.444V259.92L301.42 271.248ZM285.484 248.88V255.888H271.084V250.704H281.932V236.688H271.084V231.408H285.484V238.416H299.596V217.296H257.068V270H299.596V248.88H285.484ZM343.495 215.472L352.711 204.048H369.319V259.92L360.199 271.248V271.824H342.631V254.928L339.655 259.92L331.399 270.192L330.535 271.824H313.639V215.472H314.023L323.239 204.048H340.423V220.656L343.207 215.472H343.495ZM344.359 217.296L329.575 244.368V217.296H315.463V270H329.575L344.359 244.56V270H358.375V217.296H344.359ZM372.706 215.376L381.826 203.952H421.954V221.232L412.834 232.56V233.136H410.05V259.92L401.026 271.248V271.824H383.362V233.136H372.226V215.376H372.706ZM374.05 217.2V231.312H385.186V270H399.202V231.312H411.01V217.2H374.05ZM498.035 271.248V271.824H480.371V254.16H462.707L454.547 246.096V215.376H455.027L464.147 203.952H481.331V214.704L489.971 203.952H507.155V259.92L498.035 271.248ZM482.195 217.2V238.416H470.483V217.2H456.371V245.424L463.379 252.432H482.195V270H496.211V217.2H482.195ZM538.749 252.432L539.517 251.472L538.653 252.528L538.749 252.432ZM539.325 242.736H539.517V235.44C539.325 235.248 538.909 234.864 538.269 234.288C537.693 233.712 537.309 233.328 537.117 233.136H536.637V240.144L539.325 242.736ZM557.181 259.824V260.112L545.565 271.824H521.565L509.949 260.112V227.088L511.389 225.552L519.453 215.472L530.973 203.952H554.877L566.301 215.472V248.4L557.181 259.824ZM544.893 217.2H522.237L511.677 227.76V259.44L522.237 270H544.893L555.357 259.44V227.76L544.893 217.2ZM525.693 252.336V234.768L529.341 231.312H537.789L541.245 234.768V252.336L537.789 255.888H529.341L525.693 252.336ZM616.248 259.824V260.112L604.632 271.824H580.248L568.536 260.112V215.376H569.016L578.136 203.952H595.32V240.144L597.912 242.736H598.68V215.376H598.968L608.184 203.952H625.368V248.4L616.248 259.824ZM584.472 252.336V217.2H570.36V259.44L580.92 270H603.864L614.424 259.44V217.2H600.408V252.336L596.952 255.888H587.928L584.472 252.336ZM646.604 270.96L646.22 271.824H627.116L634.796 252.624L628.076 245.904V223.632L629.42 222.192L637.676 212.016L645.644 204.048H683.276V259.92L674.252 271.248V271.824H656.492V257.232L655.436 259.92L646.604 270.96ZM643.916 238.128V231.408H658.316V238.128H643.916ZM636.908 217.296L629.9 224.304V245.232L636.908 252.24L629.9 270H644.972L651.98 252.24H658.316V270H672.428V217.296H636.908ZM761.047 259.824V260.112L749.431 271.824H715.639V215.376H716.119L725.239 203.952H758.647L770.071 215.472V248.4L761.047 259.824ZM741.655 255.888H731.575V231.312H741.655L745.111 234.768V252.336L741.655 255.888ZM748.759 217.2H717.463V270H748.759L759.223 259.44V227.76L748.759 217.2ZM819.201 271.248V271.824H773.025V215.472H773.409L782.625 204.048H828.225V228.24L822.273 235.728H828.225V259.92L819.201 271.248ZM803.265 248.88V255.888H788.865V250.704H799.713V236.688H788.865V231.408H803.265V238.416H817.377V217.296H774.849V270H817.377V248.88H803.265ZM873.66 271.344V271.92H831.42V254.064H831.9L838.524 245.712L831.42 239.376V215.28H831.9L841.02 203.952H882.78V221.232L873.948 232.368L882.78 239.952V260.016L873.66 271.344ZM847.452 231.312H871.836V217.2H833.34V238.512L852.732 255.888H833.34V270H871.836V252.336L847.452 231.312ZM885.717 215.376L894.837 203.952H912.117V259.92L902.997 271.248V271.824H885.333V215.376H885.717ZM887.061 217.2V270H901.173V217.2H887.061ZM933.479 270.96L933.095 271.824H913.991L921.671 252.624L914.951 245.904V223.632L916.295 222.192L924.551 212.016L932.519 204.048H970.151V259.92L961.127 271.248V271.824H943.367V257.232L942.311 259.92L933.479 270.96ZM930.791 238.128V231.408H945.191V238.128H930.791ZM923.783 217.296L916.775 224.304V245.232L923.783 252.24L916.775 270H931.847L938.855 252.24H945.191V270H959.303V217.296H923.783ZM1019.36 271.248V271.824H973.181V215.472H973.565L982.781 204.048H1028.38V228.24L1022.43 235.728H1028.38V259.92L1019.36 271.248ZM1003.42 248.88V255.888H989.021V250.704H999.869V236.688H989.021V231.408H1003.42V238.416H1017.53V217.296H975.005V270H1017.53V248.88H1003.42ZM1076.98 259.824V260.112L1065.37 271.824H1031.58V215.376H1032.06L1041.18 203.952H1074.58L1086.01 215.472V248.4L1076.98 259.824ZM1057.59 255.888H1047.51V231.312H1057.59L1061.05 234.768V252.336L1057.59 255.888ZM1064.7 217.2H1033.4V270H1064.7L1075.16 259.44V227.76L1064.7 217.2ZM311.589 367.248V367.824H265.413V311.472H265.893L275.013 300.048H320.709V324.24L314.661 331.728H320.709V355.92L311.589 367.248ZM295.653 344.88V351.888H281.349V327.408H295.653V334.416H309.765V313.296H267.237V366H309.765V344.88H295.653ZM352.327 348.432L353.095 347.472L352.231 348.528L352.327 348.432ZM352.903 338.736H353.095V331.44C352.903 331.248 352.487 330.864 351.847 330.288C351.271 329.712 350.887 329.328 350.695 329.136H350.215V336.144L352.903 338.736ZM370.759 355.824V356.112L359.143 367.824H335.143L323.527 356.112V323.088L324.967 321.552L333.031 311.472L344.551 299.952H368.455L379.879 311.472V344.4L370.759 355.824ZM358.471 313.2H335.815L325.255 323.76V355.44L335.815 366H358.471L368.935 355.44V323.76L358.471 313.2ZM339.271 348.336V330.768L342.919 327.312H351.367L354.823 330.768V348.336L351.367 351.888H342.919L339.271 348.336ZM420.13 311.472L429.25 300.048H445.858V355.92L436.834 367.248V367.824H419.074V357.168L418.786 357.84L410.242 368.4L409.474 369.936L404.962 361.2L399.97 367.248V367.824H382.402V311.472H382.69L391.906 300.048H408.418L417.058 316.752C417.57 315.92 418.018 315.056 418.402 314.16C418.85 313.264 419.298 312.368 419.746 311.472H420.13ZM420.898 313.296L409.57 335.376L398.146 313.296H384.13V366H398.146V344.016L409.474 366H409.57L420.898 344.016V366H435.01V313.296H420.898ZM465.975 367.248V367.824H448.407V311.472H448.695L457.911 300.048H491.991L500.055 308.016V330.192L490.935 341.52V341.904L482.775 350.064H475.095V355.92L465.975 367.248ZM464.151 334.128V327.408H475.095V334.128H464.151ZM482.103 313.296H450.135V366H464.151V348.24H482.103L489.207 341.232V320.304L482.103 313.296ZM549.92 355.824V356.112L538.304 367.824H513.92L502.208 356.112V311.376H502.688L511.808 299.952H528.992V336.144L531.584 338.736H532.352V311.376H532.64L541.856 299.952H559.04V344.4L549.92 355.824ZM518.144 348.336V313.2H504.032V355.44L514.592 366H537.536L548.096 355.44V313.2H534.08V348.336L530.624 351.888H521.6L518.144 348.336ZM561.94 311.376L571.06 299.952H611.188V317.232L602.068 328.56V329.136H599.284V355.92L590.26 367.248V367.824H572.596V329.136H561.46V311.376H561.94ZM563.284 313.2V327.312H574.42V366H588.436V327.312H600.244V313.2H563.284ZM660.529 367.248V367.824H614.353V311.472H614.737L623.953 300.048H669.553V324.24L663.601 331.728H669.553V355.92L660.529 367.248ZM644.593 344.88V351.888H630.193V346.704H641.041V332.688H630.193V327.408H644.593V334.416H658.705V313.296H616.177V366H658.705V344.88H644.593ZM702.753 311.376L711.873 299.952H752V317.232L742.881 328.56V329.136H740.097V355.92L731.073 367.248V367.824H713.409V329.136H702.273V311.376H702.753ZM704.097 313.2V327.312H715.233V366H729.249V327.312H741.057V313.2H704.097ZM783.39 348.432L784.158 347.472L783.294 348.528L783.39 348.432ZM783.966 338.736H784.158V331.44C783.966 331.248 783.55 330.864 782.91 330.288C782.334 329.712 781.95 329.328 781.758 329.136H781.278V336.144L783.966 338.736ZM801.822 355.824V356.112L790.206 367.824H766.206L754.59 356.112V323.088L756.03 321.552L764.094 311.472L775.614 299.952H799.518L810.942 311.472V344.4L801.822 355.824ZM789.534 313.2H766.878L756.318 323.76V355.44L766.878 366H789.534L799.998 355.44V323.76L789.534 313.2ZM770.334 348.336V330.768L773.982 327.312H782.43L785.886 330.768V348.336L782.43 351.888H773.982L770.334 348.336ZM858.969 355.824V356.112L847.353 367.824H813.561V311.376H814.041L823.161 299.952H856.569L867.993 311.472V344.4L858.969 355.824ZM839.577 351.888H829.497V327.312H839.577L843.033 330.768V348.336L839.577 351.888ZM846.681 313.2H815.385V366H846.681L857.145 355.44V323.76L846.681 313.2ZM922.499 367.248V367.824H904.835V362.448H892.739L888.899 367.248V367.824H871.331V344.784H871.619L877.475 337.68V311.376H877.763L887.075 299.952H927.395V333.36H931.523V355.92L922.499 367.248ZM893.219 346.608V327.312H902.435V346.608H893.219ZM916.547 346.608V313.2H879.299V343.056L876.611 346.608H873.059V366H887.171V360.624H906.563V366H920.675V346.608H916.547ZM978.551 367.248V367.824H960.887V350.16H943.223L935.063 342.096V311.376H935.543L944.663 299.952H961.847V310.704L970.487 299.952H987.671V355.92L978.551 367.248ZM962.711 313.2V334.416H950.999V313.2H936.887V341.424L943.895 348.432H962.711V366H976.727V313.2H962.711ZM991.041 311.472L1000.26 300.048H1017.44V337.488L1016.48 338.736H1017.44V355.92L1008.32 367.248V367.824H990.753V350.064H991.041L991.713 349.296H990.753V311.472H991.041ZM992.48 313.296V347.568H1006.59V313.296H992.48ZM992.48 351.888V366H1006.59V351.888H992.48Z" fill="black"/>
<path d="M499.01 575.43C494.09 576.103 489.421 576.873 485.114 577.753C484.606 577.856 484.11 578.06 483.632 578.27C483.314 578.41 483.212 578.66 483.261 578.905C483.417 579.703 490.112 578.591 500.409 577.265C499.915 576.718 499.446 576.104 499.01 575.43Z" fill="black"/>
<path d="M719.71 575.353C719.084 575.296 699.762 573.936 671.965 572.723C671.904 573.464 671.834 574.168 671.747 574.838C692.211 575.7 709.142 576.559 719.821 576.792C721.162 576.821 720.984 575.468 719.71 575.353Z" fill="black"/>
<path d="M585.366 440.612C586.242 440.65 596.241 428.836 599.268 424.667C600.392 423.119 600.313 422.43 598.583 424.015C594.637 427.63 583.097 440.515 585.366 440.612Z" fill="black"/>
<path d="M515.691 433.32C515.269 433.201 514.805 433.617 515.205 434.015C515.231 434.041 531.597 448.486 532.725 448.449C535.959 448.343 516.03 433.415 515.691 433.32Z" fill="black"/>
<path d="M552.394 417.161C552.4 420.234 553.517 431.516 554.547 436.644C554.909 438.444 555.986 438.311 555.986 436.979C556.124 436.969 554.492 422.826 553.431 417.869C552.95 415.622 552.391 415.812 552.394 417.161Z" fill="black"/>
<path d="M523.691 474.854C516.72 473.536 512.216 472.925 510.002 472.806C507.754 472.685 507.786 473.567 510.08 474.234C512.417 474.912 517.101 475.384 523.77 476.404C526.629 476.841 527.126 475.504 523.691 474.854Z" fill="black"/>
<path d="M716.254 558.73C716.197 552.825 713.029 545.77 711.695 543.676C711.4 543.214 708.56 538.801 707.875 538.138C706.877 537.171 708.231 536.114 707.267 534.635C706.74 533.825 707.84 533.621 707.747 532.129C707.63 530.235 706.182 530.75 706.439 530.105C706.899 528.944 707.302 529.043 709.784 525.14C710.582 523.884 711.196 522.785 710.219 521.893C707.4 519.319 707.251 520.783 706.985 519.951C705.824 516.326 702.552 515.121 700.137 516.531C699.809 516.724 699.774 516.43 699.545 515.959C698.73 514.273 696.977 512.85 694.976 512.836C692.975 512.823 692.772 513.964 692.361 513.323C690.072 509.749 684.219 510.769 683.546 515.725C683.467 516.309 683.336 516.151 681.64 516.535C679.54 517.009 678.114 517.036 678.597 518.503C679.415 520.983 680.32 523.609 681.552 525.745C681.831 526.228 681.215 526.114 680.766 526.813C679.851 528.236 681.08 528.756 680.376 529.016C678.609 529.669 679.3 530.8 678.815 530.991C678.794 531 676.859 531.943 674.09 533.644C673.851 545.896 673.299 556.756 672.534 565.044C672.062 570.143 672.064 574.106 671.336 577.174C671.952 577.59 672.572 577.968 673.189 578.303C678.855 581.376 686.079 582.604 692.525 582.614C701.257 582.628 705.996 581.536 712.14 574.434C714.62 571.566 715.725 567.281 716.139 563.461C716.505 560.076 716.281 561.751 716.252 558.728L716.254 558.73ZM704.599 518.404C706.136 520.066 706.01 521.801 706.136 522.963C706.201 523.558 705.709 523.504 704.152 523.783C701.991 523.624 700.952 523.061 698.914 521.799C698.605 521.609 698.505 521.513 698.63 521.035C699.439 517.934 702.594 516.238 704.599 518.404ZM692.176 516.963C692.425 515.858 693.086 515.075 694.09 514.591C696.707 513.333 698.335 516.684 698.712 517.244C699.05 517.745 698.069 517.9 697.375 520.206C697.276 520.535 697.011 520.414 696.3 519.888C692.806 517.308 691.966 517.894 692.176 516.963ZM685.279 515.136C687.342 510.289 692.091 513.968 691.481 514.773C690.657 515.859 690.879 516.995 690.201 516.775C686.244 515.489 684.539 516.876 685.279 515.136ZM693.1 570.419C692.386 570.425 693.086 571.191 692.072 572.911C691.597 573.719 690.536 573.7 690.097 572.878C689.816 572.351 689.58 571.803 689.79 571.181C690.437 569.261 688.291 571.141 684.527 567.04C683.516 565.939 684.401 564.376 685.661 564.898C686.53 565.258 687.22 566.444 689.67 567.415C692.144 568.395 695.969 567.891 697.715 565.88C698.395 565.098 698.532 563.368 697.864 562.413C695.416 558.916 690.629 560.815 687.201 557.113C683.434 553.043 687.456 547.896 692.652 547.225C693.231 547.15 692.857 546.806 693.269 544.926C693.667 543.1 696.344 543.391 696.019 545.386C695.666 547.555 695.721 547.59 696.135 547.744C702.392 550.069 700.841 554.38 699.34 553.064C698.804 552.595 697.927 550.375 694.526 549.778C692.272 549.383 690.319 550.013 688.86 551.838C687.941 552.988 687.934 554.1 688.916 555.246C691.717 558.518 698.021 556.563 700.465 561.985C700.736 562.588 700.682 562.854 700.682 563.865C700.951 567.834 696.811 570.388 693.1 570.42V570.419ZM681.896 533.336C681.171 532.76 680.077 531.525 680.521 530.713C680.864 530.084 680.569 530.42 681.187 529.746C682.085 530.673 681.859 530.901 684.02 532.213C688.544 534.958 693.355 535.71 698.636 536.056C704.922 536.47 706.07 534.506 706.282 535.175C707.925 540.36 689.127 539.083 681.896 533.336ZM704.899 533.918C696.642 536.621 678.132 530.658 682.352 527.119C682.482 527.01 682.574 527.02 682.692 527.126C686.745 530.761 696.602 533.71 704.641 531.76C706.016 531.426 705.794 530.884 706.276 531.325C706.961 531.949 706.276 533.466 704.899 533.918Z" fill="black"/>
<path d="M537.661 535.709C534.121 533.411 533.096 533.584 533.06 532.899C533.015 532.017 532.542 531.6 531.709 531.316C530.941 531.056 532.229 530.854 531.369 529.112C531.055 528.479 530.242 528.517 530.495 528.125C531.224 526.991 532.295 524.376 532.746 523.084C534.061 519.319 534.521 519.59 528.899 518.515C528.636 518.464 528.66 518.387 528.525 517.762C527.531 513.196 523.044 512.449 520.619 514.684C519.716 515.515 519.692 516.006 519.369 515.787C518.392 515.131 516.737 514.875 515.23 515.577C513.43 516.417 512.825 517.755 512.246 518.884C510.749 518.236 511.107 518.456 510.706 518.359C508.789 517.887 506.286 518.96 505.231 521.951C505.007 522.586 505.011 522.381 504.315 522.594C502.855 523.041 500.842 524.521 501.535 525.894C504.305 531.381 506.61 532.1 505.284 532.85C504.066 533.539 504.152 535.022 504.912 536.197C505.282 536.77 504.594 536.707 504.514 537.83C504.384 539.68 504.981 539.476 504.479 540.102C492.062 555.597 494.7 571.521 500.81 577.691C506.104 583.037 509.364 584.884 518.901 584.884C518.906 584.995 530.322 584.816 536.666 581.695C538.145 580.967 539.364 580.296 540.4 579.652C538.319 573.69 537.74 561.396 537.661 535.709ZM520.622 516.689C522.177 514.26 525.307 514.57 526.437 516.606C526.719 517.114 527.356 518.295 526.78 518.359C526.4 518.401 526.591 518.26 523.32 518.739C521.73 518.971 521.624 519.346 521.425 518.779C520.726 516.795 520.424 517 520.624 516.69L520.622 516.689ZM513.371 519.614C515.45 515.06 519.476 516.401 519.964 519.299C520.072 519.946 520.114 519.511 517.802 520.9C517.089 521.329 515.107 522.62 515.081 522.641C514.69 522.945 514.731 522.251 514.186 521.189C513.592 520.034 513.217 519.951 513.371 519.614ZM513.43 523.235C513.496 523.54 513.756 523.63 513.432 523.861C511.746 525.065 510.257 526.006 507.876 525.977C507.212 525.97 505.944 525.937 505.962 525.269C506.162 518.01 512.392 518.441 513.431 523.235H513.43ZM506.355 533.571C507.699 534.442 511.856 534.817 513.455 534.71C515.701 534.56 518.722 534.435 523.679 532.679C525.221 532.132 528.117 530.775 529.369 529.429C529.621 529.157 529.724 529.36 529.98 529.627C533.029 532.829 516.889 538.749 507.439 536.281C504.977 535.639 505.336 532.91 506.355 533.571ZM528.441 571.909C527.642 572.54 528.58 574.314 528.956 575.407C529.567 577.184 526.814 578.155 526.147 576.435C524.767 572.872 526.927 573.777 522.966 574.71C520.994 575.174 517.051 574.635 516.249 572.806C515.256 570.541 520.645 571.64 522.364 571.325C528.546 570.189 529.89 565.08 526.084 564.082C522.895 563.246 517.357 564.886 514.816 561.016C514.089 559.909 513.59 557.669 514.269 555.536C515.151 552.767 517.337 551.632 518.129 551.11C518.606 550.795 518.491 551.032 517.439 547.855C516.937 546.342 519.235 545.352 519.921 546.747C520.387 547.699 520.269 547.751 521.039 549.691C521.4 549.617 521.759 549.535 522.119 549.469C529.339 548.135 529.306 554.372 526.805 553.422C526.072 553.144 524.864 551.67 522.217 552.416C519.092 553.297 516.179 555.289 516.737 558.504C517.384 562.221 524.689 558.971 529.014 561.926C532.722 564.46 531.81 569.247 528.441 571.909ZM531.651 533.642C531.325 534.906 529.809 536.032 528.664 536.68C523.62 539.535 520.037 540.011 514.276 540.66C513.992 540.691 513.7 540.665 513.414 540.665L513.411 540.684C508.784 540.479 508.114 540.584 506.139 539.229C505.466 538.767 505.64 537.042 506.125 537.332C509.746 539.49 518.524 537.744 520.069 537.51C521.614 537.276 523.714 536.764 527.107 535.01C530.716 533.144 530.745 531.602 531.082 532.164C531.807 533.369 531.732 533.326 531.651 533.642Z" fill="black"/>
<path d="M672.534 565.046C671.671 574.381 672.391 579.91 667.33 583.105C666.464 583.651 664.574 584.106 664.479 584.361C664.174 585.174 662.482 587.37 662.27 587.638C661.451 588.669 660.98 588.471 657.489 588.724C657.457 588.724 651.217 589.04 648.177 588.61C646.077 588.313 646.552 585.417 645.509 585.424C644.521 585.43 625.005 585.8 624.97 585.801C624.372 585.806 623.844 587.54 621.792 588.868C620.064 589.985 619.931 589.841 609.531 589.791C603.919 589.764 604.209 589.46 602.979 586.489C602.745 585.924 603.007 586.136 598.829 586.106C598.122 586.101 596.429 589.037 594.575 589.141C583.525 589.757 582.762 589.323 582.11 588.125C581.275 586.594 581.409 586.344 580.799 586.349C572.555 586.418 572.716 586.099 572.262 586.845C571.341 588.361 569.876 589.873 568.102 589.808C557.652 589.425 553.117 590.36 552.396 587.981C551.62 585.423 551.692 585.584 551.297 585.563C538.012 584.863 537.396 586.181 537.704 507.012C537.787 485.316 539.867 465.547 539.936 465.12C541.31 456.624 543.822 456.016 549.17 455.336C575.342 452.011 630.682 453.809 657.041 454.959C666.537 455.374 671.375 456.201 672.164 465.95C675.106 502.326 674.58 542.886 672.532 565.048L672.534 565.046ZM587.395 455.054C587.395 455.125 556.59 455.386 547.021 457.207C542.04 458.155 541.26 460.08 540.355 482.315C538.539 526.924 539.844 564.417 540.886 572.996C542.34 584.96 542.561 583.621 559.131 584.219C577.581 584.885 630.762 585.081 636.006 583.024C641.359 580.924 641.127 578.463 641.512 574.886C643.75 554.09 644.777 506.444 642.79 475.689C641.502 455.771 646.609 455.054 587.395 455.054ZM670.286 572.801C674.692 526.116 670.809 469.196 671.2 473.253C670.177 462.63 671.335 457.767 661.815 456.77C654.182 455.97 635.607 455.601 635.411 455.889C643.957 458.66 643.627 461.379 644.501 471.687C648.13 514.504 644.266 570.655 642.816 577.319C641.3 584.285 636.032 584.11 637.872 584.119C667.526 584.24 669.267 583.604 670.287 572.8L670.286 572.801Z" fill="black"/>
<path d="M629.167 465.063C634.427 466.69 631.985 472.526 633.28 491.856C633.67 497.671 633.895 539.664 631.926 567.794C631.289 576.898 626.661 573.814 614.836 575.092C614.271 575.154 575.877 575.915 561.004 575.057C548.94 574.362 548.056 575.442 547.646 564.517C547.097 549.884 545.782 472.61 549.375 466.796C551.324 463.643 556.435 465.157 568.212 463.804C571.996 463.369 623.375 463.27 629.167 465.063ZM630.654 467.768C629.869 464.553 616.524 465.922 603.477 465.19C596.967 464.824 558.07 464.869 551.747 466.465C549.834 466.949 550.219 468.602 549.879 471.357C549.282 476.19 546.329 571.571 551.182 572.815C558.632 574.724 626.302 574.025 628.949 572.446C632.7 570.208 632.132 473.826 630.654 467.768Z" fill="black"/>
<path d="M605.382 523.369C605.77 534.599 596.68 547.361 580.774 547.722C568.757 547.995 555.854 537.809 556.69 521.706C557.309 509.791 568.08 499.166 581.437 499.287C595.44 499.415 605.805 511.531 605.382 523.369ZM603.835 523.27C601.175 490.93 556.27 496.337 558.35 525.155C559.295 538.252 571.715 547.45 584.14 545.498C595.837 543.659 603.59 534.31 603.835 523.27Z" fill="black"/>
<path d="M612.951 477.624C619.015 477.489 625.752 482.702 625.14 490.291C624.677 496.021 619.402 500.584 613.455 500.194C607.962 499.834 601.3 494.664 601.961 487.774C602.571 481.42 608.132 477.307 612.951 477.624ZM622.384 487.872C622.384 485.799 621.947 486.854 621.146 486.914C620.26 486.981 620.102 485.997 620.7 485.589C621.406 485.105 621.92 485.252 621.664 484.736C620.679 482.757 620.579 482.785 620.227 483.175C619.397 484.097 618.11 483.494 618.65 482.585C619.011 481.977 619.722 481.94 619.279 481.526C618.695 480.981 618.039 480.547 617.311 480.217C616.849 480.007 616.966 481.975 615.797 481.587C615.157 481.375 615.247 480.504 615.577 479.934C615.726 479.676 615.676 479.485 615.426 479.424C612.721 478.762 613.436 479.057 613.185 480.167C613.022 480.89 612.375 480.8 612.101 480.337C611.654 479.579 612.125 479.001 611.549 479.109C609.695 479.454 609.855 479.414 609.987 479.982C610.211 480.941 610.272 481.88 609.302 481.48C608.445 481.126 608.514 479.98 607.986 480.336C606.335 481.446 606.431 481.496 606.736 481.831C607.63 482.815 607.01 484.16 605.584 482.806C605.435 482.665 605.312 482.674 605.201 482.83C603.171 485.695 604.31 484.992 605.007 485.82C605.254 486.112 605.194 486.682 604.657 486.68C603.462 486.675 603.376 486.252 603.404 488.979C603.407 489.295 603.539 489.399 603.892 489.456C604.452 489.549 605.136 490.057 604.625 490.415C603.949 490.889 603.276 490.415 604.622 492.857C604.949 493.45 605.187 492.827 605.971 492.664C606.926 492.464 607.07 493.019 606.569 493.632C606.064 494.251 605.657 494.357 605.884 494.561C607.52 496.04 607.521 496.177 607.761 495.732C607.896 495.48 608.262 494.315 609.197 494.833C609.787 495.159 609.361 495.867 609.099 496.491C608.92 496.916 609.085 496.926 610.317 497.304C611.037 497.524 610.665 497.101 610.957 496.239C611.106 495.8 611.882 495.587 612.179 496.374C612.461 497.122 611.801 497.644 612.462 497.666C614.225 497.729 614.157 497.589 613.974 497.08C613.265 495.115 615.12 494.569 615.327 497.042C615.361 497.451 615.625 497.295 616.801 496.822C617.816 496.414 616.467 496.286 616.525 495.325C616.569 494.6 617.51 494.6 617.802 495.062C618.12 495.565 618.192 496.159 618.509 495.882C620.229 494.38 620.359 494.335 619.874 494.061C618.771 493.44 619.072 492.33 619.985 492.377C621.024 492.432 621.047 493.499 621.615 492.027C622.195 490.525 622.284 490.524 621.774 490.374C619.812 489.794 620.701 488.512 621.639 488.666C622.22 488.761 622.384 489.179 622.384 487.872Z" fill="black"/>
<path d="M591.775 509.482C599.737 515.812 601.101 527.964 592.311 536.418C583.401 544.988 565.88 540.743 563.064 526.591C559.935 510.871 578.661 499.059 591.775 509.482ZM582.14 517.594C582.119 518.271 581.981 518.26 582.4 518.451C583.831 519.104 585.15 520.641 585.329 522.417C585.582 524.942 584.54 525.064 585.164 525.583C593.764 532.724 592.757 533.011 593.434 532.109C600.239 523.035 594.915 509.423 582.719 507.77C581.914 507.661 582.472 507.168 582.14 517.594ZM564.739 523.483C564.927 525.713 565.764 529.96 566.38 529.721C566.711 529.594 568.89 527.856 573.331 525.574C575.304 524.56 575.246 524.653 575.211 524.268C574.992 521.841 575.515 519.811 577.98 518.623C578.931 518.164 578.114 510.048 578.551 508.064C578.841 506.75 564.879 509.973 564.74 523.481L564.739 523.483ZM589.804 535.666C590.255 535.315 590.267 535.928 585.875 530.691C583.097 527.381 583.204 527.288 582.851 527.531C582.062 528.078 580.637 528.429 578.972 528.108C577.279 527.781 577.164 526.849 576.612 527.295C568.607 533.774 568.234 533.022 568.955 533.805C574.351 539.655 583.979 540.196 589.805 535.666H589.804ZM576.959 522.991C576.637 527.247 583.687 527.602 583.691 523.041C583.695 518.52 576.529 518.87 576.959 522.991Z" fill="black"/>
<path d="M607.492 488.434C607.28 484.3 612.64 481.072 616.286 484.614C619.214 487.457 617.502 492.664 613.464 493.266C609.425 493.869 607.187 490.564 607.492 488.434ZM611.189 484.61C606.304 486.235 609.23 493.642 613.96 491.892C618.784 490.109 616.365 482.887 611.189 484.61Z" fill="black"/>
<path d="M580.285 524.64C578.065 524.647 578.055 521.42 580.24 521.456C582.494 521.494 582.25 524.634 580.285 524.64Z" fill="black"/>
<path d="M197.894 457.749C197.894 460.272 200.778 462.692 205.912 464.476C211.046 466.26 218.009 467.263 225.269 467.263C232.529 467.263 239.492 466.26 244.626 464.476C249.76 462.692 252.644 460.272 252.644 457.749C252.644 455.225 249.76 452.805 244.626 451.021C239.492 449.237 232.529 448.234 225.269 448.234C218.009 448.234 211.046 449.237 205.912 451.021C200.778 452.805 197.894 455.225 197.894 457.749Z" fill="#E38414"/>
<path fill-rule="evenodd" clip-rule="evenodd" d="M182.864 455.578C182.864 450.265 184.975 445.17 188.731 441.413C192.488 437.656 197.583 435.546 202.896 435.546H247.805C252.539 435.546 257.12 437.222 260.736 440.277C264.352 443.332 266.769 447.569 267.56 452.236H280.347C283.855 452.236 287.328 452.927 290.569 454.27C293.809 455.612 296.754 457.58 299.234 460.06C301.714 462.541 303.681 465.485 305.023 468.726C306.365 471.967 307.056 475.44 307.056 478.948V486.625C307.056 493.708 304.242 500.502 299.233 505.511C294.224 510.519 287.431 513.333 280.347 513.333H262.412C258.72 519.917 253.34 525.399 246.825 529.213C240.311 533.027 232.898 535.036 225.349 535.033C201.886 535.033 182.864 516.011 182.864 492.548V455.578ZM267.834 472.269V492.548C267.834 492.798 267.834 493.051 267.828 493.301H276.506C279.25 493.235 281.86 492.098 283.778 490.133C285.695 488.168 286.769 485.532 286.769 482.786C286.769 480.041 285.695 477.404 283.778 475.44C281.86 473.475 279.25 472.338 276.506 472.272H267.834V472.269ZM225.263 467.263C240.382 467.263 252.638 463.001 252.638 457.745C252.638 452.493 240.382 448.234 225.263 448.234C210.144 448.234 197.887 452.493 197.887 457.745C197.887 463.001 210.144 467.263 225.263 467.263Z" fill="#FFB9EC"/>
<path d="M182.864 455.578C182.864 450.265 184.975 445.17 188.731 441.413C192.488 437.656 197.583 435.546 202.896 435.546H247.805C252.539 435.546 257.12 437.222 260.736 440.277C264.352 443.332 266.769 447.569 267.56 452.236H280.347C283.855 452.236 287.328 452.927 290.569 454.27C293.809 455.612 296.754 457.58 299.234 460.06C301.714 462.541 303.681 465.485 305.023 468.726C306.365 471.967 307.056 475.44 307.056 478.948V486.625C307.056 493.708 304.242 500.502 299.233 505.511C294.224 510.519 287.431 513.333 280.347 513.333H262.412C258.72 519.917 253.34 525.399 246.825 529.213C240.311 533.027 232.898 535.036 225.349 535.033C201.886 535.033 182.864 516.011 182.864 492.548V455.578ZM267.834 472.269V492.548C267.834 492.798 267.834 493.051 267.828 493.301H276.506C279.25 493.235 281.86 492.098 283.778 490.133C285.695 488.168 286.769 485.532 286.769 482.786C286.769 480.041 285.695 477.404 283.778 475.44C281.86 473.475 279.25 472.338 276.506 472.272H267.834V472.269Z" stroke="black" stroke-width="5.37607" stroke-linecap="round"/>
<path d="M225.34 535.033C241.253 535.033 255.124 526.284 262.403 513.333L274.088 528.357C270.396 534.941 265.016 540.422 258.501 544.236C251.987 548.05 244.574 550.059 237.025 550.056C230.707 550.063 224.468 548.658 218.762 545.943C213.057 543.228 208.031 539.273 204.051 534.366L193.274 520.42C197.258 525.013 202.184 528.696 207.716 531.217C213.249 533.738 219.26 535.04 225.34 535.033Z" fill="#2685F5"/>
<path d="M307.049 478.948C307.058 473.33 305.286 467.853 301.988 463.304L314.109 478.948C317.131 483.375 318.744 488.611 318.738 493.971V501.648C318.738 505.156 318.047 508.629 316.704 511.87C315.362 515.11 313.394 518.055 310.914 520.535C308.433 523.015 305.489 524.982 302.248 526.324C299.007 527.666 295.534 528.357 292.026 528.357H274.094L262.409 513.333H280.344C287.427 513.332 294.22 510.518 299.228 505.509C304.236 500.501 307.049 493.708 307.049 486.625V478.948Z" fill="#2685F5"/>
<path d="M225.34 535.033C241.253 535.033 255.124 526.284 262.403 513.333L274.088 528.357C270.396 534.941 265.016 540.422 258.501 544.236C251.987 548.05 244.574 550.059 237.025 550.056C230.707 550.063 224.468 548.658 218.762 545.943C213.057 543.228 208.031 539.273 204.051 534.366L193.274 520.42C197.258 525.013 202.184 528.696 207.716 531.217C213.249 533.738 219.26 535.04 225.34 535.033Z" stroke="black" stroke-width="5.37607" stroke-linecap="round" stroke-linejoin="round"/>
<path d="M307.049 478.948C307.058 473.33 305.286 467.853 301.988 463.304L314.109 478.948C317.131 483.375 318.744 488.611 318.738 493.971V501.648C318.738 505.156 318.047 508.629 316.704 511.87C315.362 515.11 313.394 518.055 310.914 520.535C308.433 523.015 305.489 524.982 302.248 526.324C299.007 527.666 295.534 528.357 292.026 528.357H274.094L262.409 513.333H280.344C287.427 513.332 294.22 510.518 299.228 505.509C304.236 500.501 307.049 493.708 307.049 486.625V478.948Z" stroke="black" stroke-width="5.37607" stroke-linecap="round" stroke-linejoin="round"/>
<path d="M197.894 457.749C197.894 460.272 200.778 462.692 205.912 464.476C211.046 466.26 218.009 467.263 225.269 467.263C232.529 467.263 239.492 466.26 244.626 464.476C249.76 462.692 252.644 460.272 252.644 457.749C252.644 455.225 249.76 452.805 244.626 451.021C239.492 449.237 232.529 448.234 225.269 448.234C218.009 448.234 211.046 449.237 205.912 451.021C200.778 452.805 197.894 455.225 197.894 457.749Z" stroke="black" stroke-width="5.37607"/>
<path d="M275.306 102.804H321.627V136.244H275.306V102.804Z" fill="#FFB9EC"/>
<path fill-rule="evenodd" clip-rule="evenodd" d="M279.345 87.7033V67.4952H262.024V188.738H337.076V87.7033H279.345ZM321.623 102.804H275.303V136.241H321.623V102.801V102.804Z" fill="#89DCFF"/>
<path d="M293.847 73.0753H351.577L337.079 87.7126H279.345L293.847 73.0753Z" stroke="black" stroke-width="5.37607" stroke-linejoin="round"/>
<path d="M312.965 73.0753L298.466 87.7126" stroke="black" stroke-width="5.37607" stroke-linejoin="round"/>
<path d="M332.08 73.0753L317.578 87.7126" stroke="black" stroke-width="5.37607" stroke-linejoin="round"/>
<path d="M351.571 92.916L337.073 107.553" stroke="black" stroke-width="5.37607" stroke-linejoin="round"/>
<path d="M351.571 113.482L337.073 128.12" stroke="black" stroke-width="5.37607" stroke-linejoin="round"/>
<path d="M351.571 134.052L337.073 148.689" stroke="black" stroke-width="5.37607" stroke-linejoin="round"/>
<path d="M351.571 154.618L337.073 169.255" stroke="black" stroke-width="5.37607" stroke-linejoin="round"/>
<path d="M274.37 150.446H283.634" stroke="black" stroke-width="5.37607" stroke-linecap="round" stroke-linejoin="round"/>
<path d="M274.37 162.798H283.634" stroke="black" stroke-width="5.37607" stroke-linecap="round" stroke-linejoin="round"/>
<path d="M274.37 175.15H283.634" stroke="black" stroke-width="5.37607" stroke-linecap="round" stroke-linejoin="round"/>
<path d="M293.828 150.446H303.092" stroke="black" stroke-width="5.37607" stroke-linecap="round" stroke-linejoin="round"/>
<path d="M293.828 162.798H303.092" stroke="black" stroke-width="5.37607" stroke-linecap="round" stroke-linejoin="round"/>
<path d="M293.828 175.15H303.092" stroke="black" stroke-width="5.37607" stroke-linecap="round" stroke-linejoin="round"/>
<path d="M312.356 150.446H321.62" stroke="black" stroke-width="5.37607" stroke-linecap="round" stroke-linejoin="round"/>
<path d="M312.356 162.798H321.62" stroke="black" stroke-width="5.37607" stroke-linecap="round" stroke-linejoin="round"/>
<path d="M312.356 175.15H321.62" stroke="black" stroke-width="5.37607" stroke-linecap="round" stroke-linejoin="round"/>
<path d="M279.345 67.5014V87.7064H337.076V188.738H262.024V67.5014H279.345Z" stroke="black" stroke-width="5.37607" stroke-linejoin="round"/>
<path d="M293.847 52.8641V73.0692L279.345 87.7065V67.4983L293.847 52.8641Z" stroke="black" stroke-width="5.37607" stroke-linejoin="round"/>
<path d="M279.345 67.5014H262.024L276.523 52.8641H293.846L279.345 67.5014Z" stroke="black" stroke-width="5.37607" stroke-linejoin="round"/>
<path d="M275.306 102.804H321.627V136.244H275.306V102.804Z" stroke="black" stroke-width="5.37607" stroke-linejoin="round"/>
<path d="M351.571 73.0753V174.107L337.073 188.738V87.7095L351.571 73.0722V73.0753Z" stroke="black" stroke-width="5.37607" stroke-linejoin="round"/>
<path fill-rule="evenodd" clip-rule="evenodd" d="M1114.76 89.3585L1064.94 168.181L1014.71 142.278L1028.84 114.863L1053.96 127.814L1088.69 72.8745L1114.76 89.3585H1114.76Z" fill="#94E986"/>
<path d="M1114.76 89.3585L1064.94 168.181L1014.71 142.278L1028.84 114.863L1053.96 127.814L1088.69 72.8745L1114.76 89.3585H1114.76Z" stroke="black" stroke-width="5.37607" stroke-linejoin="round"/>
<path d="M1105.88 83.8278L1061.11 154.652L1019.4 133.138" stroke="black" stroke-width="5.37607" stroke-linejoin="round"/>
<path d="M1097.2 78.2169L1057.38 141.213L1024.11 124.059" stroke="black" stroke-width="5.37607" stroke-linejoin="round"/>
<path d="M1133.24 86.956L1114.77 89.4326" stroke="black" stroke-width="5.37607" stroke-linejoin="round"/>
<path d="M1093.06 150.394L1074.59 152.873" stroke="black" stroke-width="5.37607" stroke-linejoin="round"/>
<path d="M1103.1 134.493L1084.63 136.97" stroke="black" stroke-width="5.37607" stroke-linejoin="round"/>
<path d="M1113.15 118.593L1094.69 121.073" stroke="black" stroke-width="5.37607" stroke-linejoin="round"/>
<path d="M1123.25 102.693L1104.78 105.172" stroke="black" stroke-width="5.37607" stroke-linejoin="round"/>
<path d="M1028.84 114.866L1053.96 127.82L1059.68 118.766L1047.31 112.389L1028.84 114.866Z" stroke="black" stroke-width="5.37607" stroke-linejoin="round"/>
<path d="M1133.24 86.8788L1107.16 70.3979L1088.69 72.8745L1114.77 89.3585L1133.24 86.8788H1133.24Z" stroke="black" stroke-width="5.37607" stroke-linejoin="round"/>
<path d="M1064.93 168.187L1114.76 89.3585L1133.23 86.8819L1083.4 165.71L1064.93 168.187Z" stroke="black" stroke-width="5.37607" stroke-linejoin="round"/>
<path d="M1070.86 496.27V457.448H1148.51V496.27H1187.33V535.093H1109.68V496.27H1070.86H1070.86Z" fill="#FFB9AA"/>
<path d="M1070.86 496.27V457.448H1148.51V496.27H1187.33V535.093H1109.68V496.27H1070.86H1070.86Z" stroke="black" stroke-width="5.37607" stroke-linejoin="round"/>
<path d="M1167.92 444.509H1090.28L1070.86 457.448H1148.51L1167.92 444.509Z" stroke="black" stroke-width="5.37607" stroke-linejoin="round"/>
<path d="M1187.32 535.09V496.27L1206.73 483.332V522.148L1187.32 535.09Z" stroke="black" stroke-width="5.37607" stroke-linejoin="round"/>
<path d="M1187.33 496.27H1148.51L1167.92 483.332H1206.74L1187.33 496.27Z" stroke="black" stroke-width="5.37607" stroke-linejoin="round"/>
<path d="M1148.51 496.27V457.451L1167.92 444.509V483.331L1148.51 496.27Z" stroke="black" stroke-width="5.37607" stroke-linejoin="round"/>
<path d="M1148.51 476.899L1167.81 463.96" stroke="black" stroke-width="5.37607" stroke-linecap="round" stroke-linejoin="round"/>
<path d="M1187.26 515.799L1206.67 502.86" stroke="black" stroke-width="5.37607" stroke-linecap="round" stroke-linejoin="round"/>
<path d="M1121.8 457.451L1141.22 444.509" stroke="black" stroke-width="5.37607" stroke-linecap="round" stroke-linejoin="round"/>
<path d="M1167.81 496.351L1187.22 483.412" stroke="black" stroke-width="5.37607" stroke-linecap="round" stroke-linejoin="round"/>
<path d="M1094.94 457.451L1114.35 444.509" stroke="black" stroke-width="5.37607" stroke-linecap="round" stroke-linejoin="round"/>
<path d="M1091.98 469.21L1083.21 476.986L1092.25 484.443" stroke="black" stroke-width="5.37607" stroke-linecap="round" stroke-linejoin="round"/>
<path d="M1133.66 508.113L1124.89 515.889L1133.93 523.346" stroke="black" stroke-width="5.37607" stroke-linecap="round" stroke-linejoin="round"/>
<path d="M1110.2 469.21L1101.43 476.986L1110.47 484.443" stroke="black" stroke-width="5.37607" stroke-linecap="round" stroke-linejoin="round"/>
<path d="M1151.88 508.113L1143.11 515.889L1152.15 523.346" stroke="black" stroke-width="5.37607" stroke-linecap="round" stroke-linejoin="round"/>
<path d="M1129.04 469.21L1120.27 476.986L1129.31 484.443" stroke="black" stroke-width="5.37607" stroke-linecap="round" stroke-linejoin="round"/>
<path d="M1170.71 508.113L1161.94 515.889L1170.98 523.346" stroke="black" stroke-width="5.37607" stroke-linecap="round" stroke-linejoin="round"/>
<path d="M881.937 337.232C864.549 337.232 853.722 356.109 862.507 371.117L867.813 380.181L858.749 374.875C843.741 366.087 824.864 376.913 824.864 394.305C824.864 411.694 843.741 422.518 858.749 413.735L867.813 408.43L862.507 417.49C853.722 432.498 864.546 451.378 881.937 451.378C899.326 451.378 910.153 432.501 901.367 417.49L896.062 408.43L905.125 413.735C920.133 422.518 939.01 411.697 939.01 394.305C939.01 376.913 920.133 366.09 905.125 374.875L896.062 380.181L901.367 371.117C910.153 356.109 899.329 337.232 881.937 337.232Z" fill="#FFB9EC"/>
<path d="M881.937 337.232C864.549 337.232 853.722 356.109 862.507 371.117L867.813 380.181L858.749 374.875C843.741 366.087 824.864 376.913 824.864 394.305C824.864 411.694 843.741 422.518 858.749 413.735L867.813 408.43L862.507 417.49C853.722 432.498 864.546 451.378 881.937 451.378C899.326 451.378 910.153 432.501 901.367 417.49L896.062 408.43L905.125 413.735C920.133 422.518 939.01 411.697 939.01 394.305C939.01 376.913 920.133 366.09 905.125 374.875L896.062 380.181L901.367 371.117C910.153 356.109 899.329 337.232 881.937 337.232Z" stroke="black" stroke-width="5.37607" stroke-linejoin="round"/>
<path d="M918.567 416.749C913.88 417.192 909.174 416.135 905.125 413.732L896.065 408.427L901.367 417.49C910.152 432.498 899.329 451.375 881.937 451.375L896.852 457.341C899.058 458.028 901.355 458.375 903.664 458.37C921.056 458.37 931.88 439.493 923.094 424.482L918.567 416.749Z" fill="#FFCE51"/>
<path d="M927.869 374.872C934.372 378.68 939.01 385.683 939.01 394.302C939.01 406.194 930.178 415.017 919.796 416.598L926.849 420.723C941.857 429.509 960.734 418.685 960.734 401.297C960.734 390.427 953.36 382.12 944.164 379.566L927.869 374.872Z" fill="#FFCE51"/>
<path d="M890.701 338.974C902.621 343.976 908.556 358.842 901.37 371.12L896.065 380.181L905.125 374.875C908.124 373.094 911.499 372.043 914.978 371.807C918.457 371.571 921.943 372.157 925.154 373.517C928.829 362.091 922.613 349.794 911.687 345.669L890.781 339.005C890.755 338.994 890.728 338.984 890.701 338.974Z" fill="#FFCE51"/>
<path d="M918.567 416.749C913.88 417.192 909.174 416.135 905.125 413.732L896.065 408.427L901.367 417.49C910.152 432.498 899.329 451.375 881.937 451.375L896.852 457.341C899.058 458.028 901.355 458.375 903.664 458.37C921.056 458.37 931.88 439.493 923.094 424.482L918.567 416.749Z" stroke="black" stroke-width="5.37607" stroke-linejoin="round"/>
<path d="M927.869 374.872C934.372 378.68 939.01 385.683 939.01 394.302C939.01 406.194 930.178 415.017 919.796 416.598L926.849 420.723C941.857 429.509 960.734 418.685 960.734 401.297C960.734 390.427 953.36 382.12 944.164 379.566L927.869 374.872Z" stroke="black" stroke-width="5.37607" stroke-linejoin="round"/>
<path d="M890.701 338.974C902.621 343.976 908.556 358.842 901.37 371.12L896.065 380.181L905.125 374.875C908.124 373.094 911.499 372.043 914.978 371.807C918.457 371.571 921.943 372.157 925.154 373.517C928.829 362.091 922.613 349.794 911.687 345.669L890.781 339.005C890.755 338.994 890.728 338.984 890.701 338.974Z" stroke="black" stroke-width="5.37607" stroke-linejoin="round"/>
</svg>
