<svg width="1080" height="1080" viewBox="0 0 1080 1080" fill="none" xmlns="http://www.w3.org/2000/svg">
<rect x="3" y="3" width="1074" height="1074" rx="11" fill="#D0FFA2" stroke="black" stroke-width="6"/>
<g clip-path="url(#clip0_7_144)">
<path fill-rule="evenodd" clip-rule="evenodd" d="M249 248V184H133V248H69V364H133V293.255L195.264 355.519L223.745 384L195.264 412.482L133 474.746V404H69L69 520L69 584H114.255H133H249V520H178.255L240.519 457.736L269 429.254L297.482 457.736L359.746 520H289V584H405H469V538.746V520V404H405V474.746L342.736 412.482L314.254 384L342.736 355.519L405 293.255V364H469V248H405V184L289 184V248H359.746L297.482 310.264L269 338.745L240.519 310.264L178.255 248H249Z" fill="black"/>
</g>
<g clip-path="url(#clip1_7_144)">
<path d="M310.978 786.182C332.762 608.025 423.567 550.88 504.874 500.247C587.899 448.522 659.709 403.218 651.07 233.002C613.198 235.708 575.91 243.827 540.341 257.111C543.954 392.2 479.96 432.264 417.861 470.95C352.275 511.801 290.32 550.397 286.439 702.71C291.626 731.703 299.871 759.693 310.978 786.182Z" fill="#2F2F2F" fill-opacity="0.2"/>
<path d="M398.938 440.581C456.816 404.506 503.622 374.994 504.678 272.475C399.332 324.11 319.92 420.71 291.5 537.109C320.672 489.372 361.218 464.064 398.938 440.581ZM409.509 926.368C423.603 736.496 506.913 670.23 587.702 606.075C675.466 536.393 758.401 470.36 753.733 238.707C731.639 234.598 709.239 232.355 686.77 232C696.034 422.677 608.664 477.729 523.779 530.598C437.786 584.165 349.038 639.771 342.206 845.758C361.026 875.451 383.652 902.551 409.509 926.368ZM837.884 717.609C918.047 653.275 993.667 592.035 989.625 378.554C968.013 352.249 943.158 328.787 915.65 308.729C914.523 541.956 823.862 614.857 735.991 685.361C653.288 751.734 575.218 814.53 569.495 1016.51C602.475 1025.99 637.155 1031.37 672.998 1032.02C682.423 842.915 761.316 779.081 837.884 717.609ZM972.24 801.045C914.827 836.029 865.034 866.702 859.239 989.719C969.325 934.399 1050.47 829.805 1073.58 704.982C1047.79 754.954 1008.67 778.849 972.24 801.045Z" fill="#2F2F2F" fill-opacity="0.2"/>
<path d="M953.639 770.514C1015.13 733.026 1073.24 697.649 1066.16 533.156L1068 533.084C1058.63 496.453 1044.08 461.347 1024.79 428.83C1016.33 619.668 937.238 683.77 860.313 745.51C787.107 804.21 718.051 860.138 708.912 1031.02C747.933 1028.26 786.335 1019.76 822.878 1005.8C825.06 848.87 893.347 807.251 953.639 770.514ZM713.634 657.46C801.541 586.938 884.601 520.135 879.736 285.335C851.411 268.964 821.178 256.145 789.719 247.167C792.276 489.336 699.629 562.882 609.951 634.084C528.286 698.919 451.218 760.516 443.867 954.627C471.741 975.102 502.156 991.87 534.35 1004.51C543.185 794.803 629.715 724.799 713.634 657.46Z" fill="#2F2F2F" fill-opacity="0.2"/>
</g>
<path d="M68.8 913H50.37L68.23 812.3H85.33L82.29 829.21C90.46 816.86 101.67 810.4 113.83 810.4C129.03 810.4 138.53 818.76 140.81 832.63C149.17 818 162.28 810.4 175.39 810.4C195.91 810.4 207.12 826.55 203.13 849.73L191.92 913H173.49L183.75 854.29C186.79 837.19 181.09 826.93 168.17 826.93C154.87 826.93 143.66 838.14 140.62 855.62L130.55 913H111.93L122.38 854.29C125.23 837.19 119.53 826.93 106.61 826.93C92.55 826.93 82.1 838.9 79.06 856L68.8 913ZM276.068 913L278.918 897.23C271.318 908.44 259.918 914.9 246.048 914.9C227.998 914.9 216.408 904.64 216.408 888.49C216.408 867.4 235.218 854.29 265.238 854.29C271.128 854.29 277.398 854.67 284.048 855.43L285.378 848.21C287.848 834.15 280.818 825.22 267.708 825.22C254.218 825.22 245.858 832.82 242.818 848.02H225.908C228.948 824.46 245.098 810.4 269.418 810.4C293.168 810.4 306.848 825.98 302.858 848.4L291.458 913H276.068ZM234.458 886.59C234.458 895.9 240.918 901.41 251.748 901.41C265.428 901.41 277.778 891.34 280.628 875.57L281.958 867.4C276.448 866.64 269.798 866.26 264.288 866.26C245.478 866.26 234.458 873.86 234.458 886.59ZM318.136 874.62C318.136 838.33 340.556 810.4 369.436 810.4C383.876 810.4 394.516 818.38 398.316 831.49L408.006 776.58H426.436L402.306 913H385.206L388.626 893.81C380.646 906.73 367.726 914.9 353.476 914.9C332.386 914.9 318.136 898.75 318.136 874.62ZM337.326 872.72C337.326 888.49 345.876 898.18 359.556 898.18C380.076 898.18 393.946 875.76 393.946 852.2C393.946 836.81 385.206 826.74 371.336 826.74C351.956 826.74 337.326 846.5 337.326 872.72ZM472.586 914.9C448.456 914.9 430.216 898.37 430.216 871.96C430.216 836.81 453.206 810.4 483.416 810.4C512.486 810.4 526.546 834.91 520.656 867.21H449.596C449.406 868.35 449.406 869.68 449.406 871.01C449.406 888.49 458.716 899.13 474.106 899.13C486.266 899.13 494.626 892.29 499.566 878.8H518.376C510.206 903.5 494.056 914.9 472.586 914.9ZM483.036 825.22C466.886 825.22 455.676 837.76 451.306 854.86H503.936C505.836 837.38 498.046 825.22 483.036 825.22ZM613.601 914.9C589.471 914.9 571.231 898.37 571.231 871.96C571.231 836.81 594.221 810.4 624.431 810.4C653.501 810.4 667.561 834.91 661.671 867.21H590.611C590.421 868.35 590.421 869.68 590.421 871.01C590.421 888.49 599.731 899.13 615.121 899.13C627.281 899.13 635.641 892.29 640.581 878.8H659.391C651.221 903.5 635.071 914.9 613.601 914.9ZM624.051 825.22C607.901 825.22 596.691 837.76 592.321 854.86H644.951C646.851 837.38 639.061 825.22 624.051 825.22ZM731.585 913L734.435 897.23C726.835 908.44 715.435 914.9 701.565 914.9C683.515 914.9 671.925 904.64 671.925 888.49C671.925 867.4 690.735 854.29 720.755 854.29C726.645 854.29 732.915 854.67 739.565 855.43L740.895 848.21C743.365 834.15 736.335 825.22 723.225 825.22C709.735 825.22 701.375 832.82 698.335 848.02H681.425C684.465 824.46 700.615 810.4 724.935 810.4C748.685 810.4 762.365 825.98 758.375 848.4L746.975 913H731.585ZM689.975 886.59C689.975 895.9 696.435 901.41 707.265 901.41C720.945 901.41 733.295 891.34 736.145 875.57L737.475 867.4C731.965 866.64 725.315 866.26 719.805 866.26C700.995 866.26 689.975 873.86 689.975 886.59ZM853.834 883.17C853.834 901.98 839.204 914.9 812.604 914.9C789.044 914.9 772.514 901.98 771.944 880.13H789.614C790.184 893.05 799.494 900.84 813.934 900.84C826.474 900.84 835.594 895.71 835.594 885.26C835.594 876.9 830.654 873.86 821.154 871.58L806.144 868.16C792.084 864.93 782.204 857.52 782.204 841.37C782.204 822.18 799.114 810.4 822.294 810.4C845.284 810.4 859.344 823.32 859.724 844.03H842.054C841.294 831.68 834.264 824.27 821.534 824.27C808.804 824.27 800.064 830.16 800.064 839.85C800.064 848.59 805.954 852.01 814.504 854.1L828.184 857.33C842.434 860.56 853.834 867.02 853.834 883.17ZM963.5 812.3L890.35 949.67H870.21L891.3 911.67L871.16 812.3H889.78L904.22 889.44L943.55 812.3H963.5ZM974.483 896.28C974.483 905.97 966.883 913.95 957.763 913.95C950.543 913.95 945.793 909.2 945.793 902.36C945.793 892.86 953.583 884.69 962.893 884.69C969.923 884.69 974.483 889.63 974.483 896.28Z" fill="black"/>
<path d="M110.56 751L105.28 735.04H75.04L69.64 751H46.72L78.64 664.84H103.48L135.04 751H110.56ZM90.4 689.8L81.16 717.16H99.4L90.4 689.8ZM166.846 751H144.166V664.84H166.846V751ZM251.216 751H228.536V685.36H202.136V664.84H277.616V685.36H251.216V751ZM303.045 721.24V751H282.525V686.44H301.365V697.84C306.285 690.28 316.485 685.96 326.805 685.96V707.32C312.285 705.88 303.045 706.96 303.045 721.24ZM372.473 751V744.76C367.913 749.92 362.273 752.2 353.993 752.2C340.553 752.2 331.553 744.16 331.553 731.92C331.553 719.32 341.753 712.48 360.233 712.48C363.713 712.48 366.953 712.72 369.713 713.2V710.08C369.713 704.44 366.473 701.32 360.713 701.32C355.073 701.32 351.713 704.44 350.993 710.08H332.513C333.713 695.08 344.873 685.24 360.833 685.24C378.593 685.24 389.033 694.84 389.033 711.16V751H372.473ZM350.873 731.32C350.873 735.52 353.753 738.04 358.793 738.04C365.633 738.04 369.713 734.8 369.713 729.52V725.44C366.593 724.84 364.193 724.6 361.553 724.6C354.593 724.6 350.873 726.88 350.873 731.32ZM425.102 671.44C425.102 678.16 419.702 683.08 411.902 683.08C404.102 683.08 398.702 678.16 398.702 671.44C398.702 664.6 404.102 659.68 411.902 659.68C419.702 659.68 425.102 664.6 425.102 671.44ZM422.342 751H401.822V686.44H422.342V751ZM456.326 717.04V751H435.806V686.44H454.646V694.24C459.686 688.6 465.686 685.24 473.846 685.24C486.566 685.24 495.566 693.76 495.566 709.48V751H475.046V716.32C475.046 708.16 472.166 703.72 465.926 703.72C460.886 703.72 456.326 707.32 456.326 717.04ZM531.742 671.44C531.742 678.16 526.342 683.08 518.542 683.08C510.742 683.08 505.342 678.16 505.342 671.44C505.342 664.6 510.742 659.68 518.542 659.68C526.342 659.68 531.742 664.6 531.742 671.44ZM528.982 751H508.462V686.44H528.982V751ZM562.967 717.04V751H542.447V686.44H561.287V694.24C566.327 688.6 572.327 685.24 580.487 685.24C593.207 685.24 602.207 693.76 602.207 709.48V751H581.687V716.32C581.687 708.16 578.807 703.72 572.567 703.72C567.527 703.72 562.967 707.32 562.967 717.04ZM643.903 775.36C626.023 775.36 613.783 765.52 613.063 750.52H632.983C633.703 756.28 637.423 759.4 643.783 759.4C651.463 759.4 655.423 755.32 655.423 747.52V739.96C652.063 744.76 645.943 747.64 638.983 747.64C623.263 747.64 611.023 734.08 611.023 716.44C611.023 698.2 622.303 685.24 638.143 685.24C646.303 685.24 652.183 687.64 657.103 693.04V686.44H675.943V747.28C675.943 764.68 663.703 775.36 643.903 775.36ZM631.783 716.56C631.783 724.6 636.223 729.76 643.183 729.76C650.383 729.76 655.183 724.36 655.183 716.44C655.183 708.4 650.383 703.12 643.183 703.12C636.223 703.12 631.783 708.4 631.783 716.56Z" fill="black"/>
<defs>
<clipPath id="clip0_7_144">
<rect width="400" height="400" fill="white" transform="translate(69 184)"/>
</clipPath>
<clipPath id="clip1_7_144">
<rect width="800" height="800" fill="white" transform="translate(280 232)"/>
</clipPath>
</defs>
</svg>
