<svg width="400" height="400" viewBox="0 0 400 400" fill="none" xmlns="http://www.w3.org/2000/svg">
<g clip-path="url(#clip0_2_18)">
<path fill-rule="evenodd" clip-rule="evenodd" d="M180 64V7.86804e-06H64V64H1.13825e-05V180H64V109.255L126.264 171.519L154.745 200L126.264 228.482L64 290.746V220H2.198e-05L2.05966e-05 336L1.19654e-05 400H45.2548H64H180V336H109.255L171.519 273.736L200 245.254L228.482 273.736L290.746 336H220V400H336H400V354.746V336V220H336V290.746L273.736 228.482L245.254 200L273.736 171.519L336 109.255V180H400V64H336V8.585e-06L220 0V64H290.746L228.482 126.264L200 154.745L171.519 126.264L109.255 64H180Z" fill="black"/>
</g>
<defs>
<clipPath id="clip0_2_18">
<rect width="400" height="400" fill="white"/>
</clipPath>
</defs>
</svg>
